<?xml version="1.0" encoding="UTF-8"?>
<svg id="Layer_2" data-name="Layer 2" xmlns="http://www.w3.org/2000/svg" viewBox="0 0 152.36 60.49">
  <defs>
    <style>
      .cls-1 {
        fill: #3b3366;
        stroke-width: 0px;
      }
    </style>
  </defs>
  <g id="text">
    <path class="cls-1" d="M137.44,46.78c8.46-1.37,14.92-8.68,14.92-17.53,0-9.82-7.96-17.78-17.78-17.78-1.7,0-3.34.25-4.9.7-3.05-5.41-8.84-9.06-15.48-9.06-4.87,0-9.28,1.96-12.5,5.14-3.15-4.96-8.68-8.26-15-8.26s-11.66,3.18-14.84,8c-3.22-4.57-8.52-7.56-14.53-7.56-6.42,0-12.02,3.41-15.15,8.5-3.19-3.04-7.5-4.92-12.26-4.92-7.59,0-14.05,4.77-16.6,11.46C5.67,17.46,0,24.4,0,32.68c0,9.82,7.96,17.78,17.78,17.78,2.36,0,4.62-.47,6.68-1.31,3.26,3.9,8.16,6.38,13.64,6.38,4.71,0,8.98-1.85,12.16-4.84,3.26,4,8.22,6.56,13.78,6.56s10.13-2.37,13.39-6.11c3.23,3.33,7.74,5.4,12.75,5.4s9.83-2.23,13.08-5.76c3.19,3.02,7.48,4.89,12.22,4.89,3.75,0,7.22-1.17,10.09-3.15,6.7,6.82,16.32,9.48,22.19,7.14,1.33-.53-5.41-.24-10.31-12.88Z"/>
  </g>
</svg>