<?xml version="1.0" encoding="UTF-8"?>
<svg id="Layer_2" data-name="Layer 2" xmlns="http://www.w3.org/2000/svg" viewBox="0 0 224.27 115.58">
  <defs>
    <style>
      .cls-1 {
        fill: #605499;
        stroke-width: 0px;
      }
    </style>
  </defs>
  <g id="text">
    <path class="cls-1" d="M202.02,95.15c12.61-2.04,22.25-12.98,22.25-26.17,0-8.88-4.37-16.74-11.08-21.55.43-1.9.67-3.88.67-5.92,0-14.64-11.87-26.52-26.52-26.52-5.75,0-11.07,1.84-15.41,4.94-3.04-11.29-13.35-19.6-25.6-19.6-9.03,0-17,4.52-21.78,11.41-4.76-7.08-12.85-11.75-22.02-11.75s-17.02,4.53-21.81,11.44c-4.82-4.99-11.58-8.1-19.07-8.1-10.12,0-18.92,5.67-23.39,14.01-1.8-.39-3.66-.59-5.58-.59-14.64,0-26.52,11.87-26.52,26.52,0,4.01.89,7.8,2.49,11.21C3.34,59.33,0,66.32,0,74.08c0,14.64,11.87,26.52,26.52,26.52,2.67,0,5.24-.4,7.67-1.13,4.85,5.34,11.85,8.7,19.64,8.7,7.03,0,13.41-2.74,18.15-7.2,4.86,5.96,12.26,9.76,20.55,9.76s15.11-3.52,19.98-9.09c4.82,4.96,11.55,8.04,19.01,8.04s14.67-3.3,19.51-8.57c4.75,4.5,11.16,7.26,18.22,7.26,5.59,0,10.77-1.73,15.05-4.69,9.99,10.16,24.34,14.14,33.09,10.64,1.99-.8-8.07-.36-15.37-19.18Z"/>
  </g>
</svg>