<?xml version="1.0" encoding="UTF-8"?>
<svg id="_レイヤー_2" data-name="レイヤー 2" xmlns="http://www.w3.org/2000/svg" viewBox="0 0 308.9 45.72">
  <defs>
    <style>
      .cls-1 {
        fill: #f2e7da;
        stroke-width: 0px;
      }
    </style>
  </defs>
  <g id="text">
    <g>
      <g>
        <path class="cls-1" d="m48.54,45.72c-2.02,0-3.86-.48-5.54-1.44-1.68-.96-3.03-2.33-4.05-4.1-1.02-1.78-1.53-3.9-1.53-6.37s.48-4.59,1.44-6.43c.96-1.84,2.32-3.26,4.09-4.28,1.76-1.02,3.85-1.53,6.25-1.53.86,0,1.76.08,2.68.25.92.17,1.78.45,2.57.85.79.4,1.43.92,1.93,1.57.49.65.74,1.45.74,2.41.02,1.03-.29,1.94-.94,2.72-.65.78-1.56,1.17-2.74,1.17-.72,0-1.23-.17-1.53-.52-.3-.35-.44-.61-.41-.77,0-.07.15-.2.45-.38.3-.18.6-.46.9-.83.3-.37.45-.87.45-1.49,0-1.08-.36-1.94-1.08-2.57-.72-.64-1.74-.95-3.06-.95-1.44,0-2.73.41-3.87,1.22-1.14.82-2.03,2.01-2.68,3.58-.65,1.57-.97,3.5-.97,5.78,0,1.92.34,3.67,1.03,5.24.68,1.57,1.64,2.82,2.88,3.74,1.24.92,2.67,1.39,4.3,1.39,1.3,0,2.41-.27,3.33-.81.92-.54,1.76-1.41,2.5-2.61.22-.41.6-.44,1.15-.11.22.14.38.32.5.52s.1.41-.07.63c-.91,1.15-1.78,2.02-2.59,2.61-.82.59-1.7.99-2.66,1.21-.96.22-2.11.32-3.46.32Z"/>
        <path class="cls-1" d="m66.08,45.11c-.24,0-.41-.08-.5-.25-.1-.17-.14-.35-.14-.54.02-.41.12-.64.29-.68s.37-.07.61-.07c.65,0,1.14-.13,1.48-.4.34-.26.61-.61.81-1.04.2-.43.4-.88.59-1.33l6.3-14.9c.24-.58.29-1.01.14-1.31-.14-.3-.38-.52-.72-.65s-.71-.23-1.12-.31c-.36-.07-.6-.14-.72-.2s-.18-.27-.18-.63c0-.41.14-.63.43-.67.29-.04.62-.05,1.01-.05.98,0,1.82.1,2.52.29.7.19,1.3.56,1.8,1.1s.97,1.35,1.4,2.43l6.05,14.9c.17.41.35.83.54,1.26.19.43.45.79.77,1.06.32.28.74.43,1.24.45.26,0,.47.02.63.07.16.05.25.28.27.68,0,.19-.05.37-.16.54-.11.17-.27.25-.49.25-.77-.05-1.44-.08-2.02-.09s-1.22-.02-1.94-.02c-1.42,0-2.9.04-4.46.11-.24,0-.41-.08-.5-.25-.1-.17-.14-.35-.14-.54.02-.41.12-.64.29-.68.17-.05.37-.07.61-.07,1.18,0,1.82-.22,1.93-.65.11-.43,0-1.14-.34-2.12l-1.22-2.99h-8.89c-.36.91-.62,1.57-.77,1.98-.16.41-.25.67-.29.79-.04.12-.07.19-.09.22-.26.82-.4,1.42-.41,1.82-.01.4.18.65.58.77s1.06.18,2,.18c.26,0,.47.02.63.07s.25.28.27.68c0,.19-.05.37-.16.54-.11.17-.27.25-.49.25-.77-.05-1.43-.08-2-.09s-1.21-.02-1.93-.02c-.48,0-.88,0-1.21.02-.32.01-.65.02-.99.04-.34.01-.77.03-1.3.05Zm6.84-8.86h7.56l-3.64-9.25h-.11l-3.82,9.25Z"/>
        <path class="cls-1" d="m98.73,45.11c-.22,0-.37-.08-.47-.25-.1-.17-.14-.35-.14-.54.02-.41.12-.64.29-.68.17-.05.37-.07.61-.07.77,0,1.31-.14,1.62-.41.31-.28.51-.62.59-1.04.08-.42.13-.86.13-1.31v-14.29c0-.46-.04-.89-.13-1.31-.08-.42-.28-.77-.59-1.04-.31-.28-.85-.41-1.62-.41-.24,0-.44-.02-.61-.07-.17-.05-.26-.28-.29-.68,0-.19.05-.37.14-.54.1-.17.25-.25.47-.25.79.02,1.52.05,2.2.07.67.02,1.37.04,2.09.04,1.46,0,2.96-.04,4.5-.11.24,0,.41.08.5.25.1.17.14.35.14.54-.02.41-.12.64-.29.68-.17.05-.37.07-.61.07-.74,0-1.28.14-1.6.41-.32.28-.52.62-.59,1.04-.07.42-.12.86-.14,1.31v14.83c.02.31.07.65.14,1.01.07.36.28.66.63.9.35.24.93.35,1.75.32h3.24c.84-.02,1.48-.16,1.93-.41.44-.25.8-.68,1.06-1.28.26-.6.55-1.43.86-2.48.1-.24.26-.4.49-.47.23-.07.47-.08.74-.04.19.02.39.11.59.25.2.14.29.34.27.58l-.72,4.54c-.07.34-.19.55-.34.63-.16.08-.39.13-.7.13h-11.81c-.72,0-1.42,0-2.11.02s-1.42.04-2.21.09Z"/>
        <path class="cls-1" d="m126.48,45.11c-.22,0-.37-.08-.47-.25-.1-.17-.14-.35-.14-.54.02-.41.12-.64.29-.68.17-.05.37-.07.61-.07.77,0,1.31-.14,1.62-.41.31-.28.51-.62.59-1.04.08-.42.13-.86.13-1.31v-14.29c0-.46-.04-.89-.13-1.31-.08-.42-.28-.77-.59-1.04-.31-.28-.85-.41-1.62-.41-.24,0-.44-.02-.61-.07-.17-.05-.26-.28-.29-.68,0-.19.05-.37.14-.54.1-.17.25-.25.47-.25.79.02,1.52.05,2.2.07.67.02,1.37.04,2.09.04h11.3c.26,0,.49.06.67.18s.27.35.27.68l.11,5.04c0,.24-.11.42-.34.54-.23.12-.44.18-.63.18-.26,0-.5-.05-.72-.16-.22-.11-.35-.27-.4-.49-.17-1.08-.37-1.95-.59-2.61-.23-.66-.56-1.14-1.01-1.44s-1.09-.46-1.93-.49h-4.82v9.14h6.52c.19.02.33.12.41.29.08.17.13.35.13.54,0,.17-.04.33-.13.49-.08.16-.22.23-.41.23h-6.52v6.8c.02.31.07.65.14,1.03s.28.69.63.95c.35.26.93.38,1.75.36h3.31c.84-.02,1.48-.16,1.93-.41.44-.25.8-.68,1.06-1.28.26-.6.55-1.43.86-2.48.1-.24.26-.4.49-.47.23-.07.47-.08.74-.04.19.02.39.11.59.25.2.14.29.34.27.58l-.72,4.54c-.07.34-.19.55-.34.63s-.39.13-.7.13h-11.88c-.72,0-1.42,0-2.11.02-.68.01-1.42.04-2.21.09Z"/>
        <path class="cls-1" d="m155.14,45.11c-.24,0-.41-.08-.5-.25-.1-.17-.14-.35-.14-.54.02-.41.12-.64.29-.68s.37-.07.61-.07c.77,0,1.3-.14,1.6-.41.3-.28.49-.62.56-1.04.07-.42.11-.86.11-1.31l.07-14.29c0-1.13-.19-1.85-.58-2.16s-1-.55-1.84-.72c-.36-.07-.6-.14-.72-.2-.12-.06-.18-.27-.18-.63,0-.41.14-.63.43-.67s.62-.05,1.01-.05c1.34,0,2.43.11,3.26.32s1.56.6,2.2,1.15c.64.55,1.33,1.33,2.07,2.34l9.86,12.96h.11l-.07-12.35c0-.46-.04-.89-.11-1.31-.07-.42-.26-.77-.56-1.04-.3-.28-.83-.41-1.6-.41-.24,0-.44-.02-.61-.07-.17-.05-.28-.28-.32-.68,0-.19.05-.37.16-.54s.27-.25.49-.25c.53.02.95.04,1.28.05.32.01.65.02.97.04.32.01.73.02,1.21.02s.88,0,1.19-.02c.31-.01.63-.02.95-.04.32-.01.74-.03,1.24-.05.24,0,.41.08.5.25.1.17.14.35.14.54-.02.41-.11.64-.27.68-.16.05-.37.07-.63.07-.74,0-1.27.14-1.58.41-.31.28-.5.62-.56,1.04s-.1.86-.13,1.31l-.07,18.14c-.02.19-.14.32-.34.38s-.39.09-.56.09c-.46,0-.8-.16-1.04-.47l-13.57-18.14h-.11l.07,14.29c.02.46.07.89.13,1.31.06.42.25.77.56,1.04.31.28.84.41,1.58.41.26,0,.48.02.65.07s.26.28.29.68c0,.19-.05.37-.16.54-.11.17-.27.25-.49.25-.5-.02-.93-.04-1.28-.05-.35-.01-.68-.02-1.01-.04s-.73-.02-1.21-.02-.87,0-1.17.02c-.3.01-.61.02-.92.04-.31.01-.73.03-1.26.05Z"/>
        <path class="cls-1" d="m188.8,45.11c-.22,0-.37-.08-.47-.25-.1-.17-.14-.35-.14-.54.02-.41.12-.64.29-.68s.37-.07.61-.07c.77,0,1.31-.14,1.62-.41.31-.28.51-.62.59-1.04.08-.42.13-.86.13-1.31v-14.29c0-.46-.04-.89-.13-1.31-.08-.42-.28-.77-.59-1.04-.31-.28-.85-.41-1.62-.41-.24,0-.44-.02-.61-.07-.17-.05-.26-.28-.29-.68,0-.19.05-.37.14-.54.1-.17.25-.25.47-.25.79.02,1.52.05,2.2.07.67.02,1.37.04,2.09.04h5.62c2.3,0,4.39.46,6.26,1.37,1.87.91,3.36,2.22,4.46,3.92,1.1,1.7,1.66,3.77,1.66,6.19,0,1.92-.37,3.59-1.12,5-.74,1.42-1.74,2.59-2.99,3.51s-2.65,1.61-4.19,2.05c-1.55.44-3.13.67-4.73.67h-4.97c-.72,0-1.42,0-2.09.02-.67.01-1.4.04-2.2.09Zm9.79-1.44c1.94,0,3.52-.41,4.72-1.24s2.07-1.99,2.61-3.47.81-3.22.81-5.18-.35-3.72-1.04-5.26c-.7-1.54-1.71-2.74-3.04-3.62-1.33-.88-2.95-1.31-4.84-1.31-.38,0-.89,0-1.51.02-.62.01-1.06.02-1.3.02v17.6c0,.96.29,1.61.88,1.94.59.34,1.49.5,2.72.5Z"/>
        <path class="cls-1" d="m220.26,45.11c-.24,0-.41-.08-.5-.25-.1-.17-.14-.35-.14-.54.02-.41.12-.64.29-.68.17-.05.37-.07.61-.07.65,0,1.14-.13,1.48-.4.34-.26.61-.61.81-1.04.2-.43.4-.88.59-1.33l6.3-14.9c.24-.58.29-1.01.14-1.31-.14-.3-.38-.52-.72-.65-.34-.13-.71-.23-1.12-.31-.36-.07-.6-.14-.72-.2-.12-.06-.18-.27-.18-.63,0-.41.14-.63.43-.67s.62-.05,1.01-.05c.98,0,1.82.1,2.52.29.7.19,1.3.56,1.8,1.1.5.54.97,1.35,1.4,2.43l6.05,14.9c.17.41.35.83.54,1.26s.45.79.77,1.06c.32.28.74.43,1.24.45.26,0,.47.02.63.07.16.05.25.28.27.68,0,.19-.05.37-.16.54-.11.17-.27.25-.49.25-.77-.05-1.44-.08-2.02-.09-.58-.01-1.22-.02-1.94-.02-1.42,0-2.9.04-4.46.11-.24,0-.41-.08-.5-.25-.1-.17-.14-.35-.14-.54.02-.41.12-.64.29-.68s.37-.07.61-.07c1.18,0,1.82-.22,1.93-.65.11-.43,0-1.14-.34-2.12l-1.22-2.99h-8.89c-.36.91-.62,1.57-.77,1.98-.16.41-.25.67-.29.79-.04.12-.07.19-.09.22-.26.82-.4,1.42-.41,1.82-.01.4.18.65.58.77.4.12,1.06.18,2,.18.26,0,.47.02.63.07s.25.28.27.68c0,.19-.05.37-.16.54-.11.17-.27.25-.49.25-.77-.05-1.43-.08-2-.09-.56-.01-1.21-.02-1.93-.02-.48,0-.88,0-1.21.02s-.65.02-.99.04c-.34.01-.77.03-1.3.05Zm6.84-8.86h7.56l-3.64-9.25h-.11l-3.82,9.25Z"/>
        <path class="cls-1" d="m252.95,45.11c-.24,0-.41-.08-.5-.25-.1-.17-.14-.35-.14-.54.02-.41.12-.64.29-.68s.37-.07.61-.07c.77,0,1.31-.14,1.62-.41.31-.28.51-.62.59-1.04.08-.42.13-.86.13-1.31v-14.26c0-.46-.04-.9-.13-1.33-.08-.43-.28-.79-.59-1.06-.31-.28-.85-.41-1.62-.41-.24,0-.44-.02-.61-.07-.17-.05-.26-.28-.29-.68,0-.19.05-.37.14-.54.1-.17.26-.25.5-.25.77.02,1.49.05,2.18.07s1.39.04,2.11.04h6.19c1.94.02,3.52.32,4.73.9,1.21.58,2.09,1.31,2.65,2.2s.83,1.81.83,2.77c0,1.27-.51,2.47-1.53,3.6-1.02,1.13-2.45,1.93-4.3,2.41.91,1.44,1.84,2.89,2.77,4.34.94,1.45,2.02,2.81,3.24,4.09.34.26.67.48.99.65.32.17.71.28,1.17.32.19.02.38.05.58.09s.3.26.32.67c0,.19-.05.37-.14.54-.1.17-.26.25-.5.25-.5-.02-.91-.04-1.21-.05-.3-.01-.59-.02-.88-.04s-.67-.02-1.15-.02c-.98-.19-1.82-.54-2.5-1.04-.68-.5-1.35-1.2-2-2.09-.67-.91-1.3-1.84-1.87-2.77-.58-.94-1.14-1.85-1.69-2.74-.31-.5-.63-.87-.95-1.1-.32-.23-.93-.34-1.82-.34h-1.04v5.87c.02.46.07.89.14,1.31.07.42.27.77.59,1.04.32.28.86.41,1.6.41.24,0,.44.02.61.07s.26.28.29.68c0,.19-.05.37-.14.54-.1.17-.26.25-.5.25-1.54-.07-3.04-.11-4.5-.11-.72,0-1.42,0-2.09.02-.67.01-1.39.04-2.16.09Zm6.16-11.59h3.17c1.22,0,2.19-.17,2.9-.5s1.24-.77,1.6-1.3c.36-.53.59-1.08.7-1.66.11-.58.16-1.1.16-1.58,0-.79-.17-1.56-.52-2.3-.35-.74-.96-1.36-1.84-1.84-.88-.48-2.09-.72-3.65-.72-1.03,0-1.71.2-2.03.59-.32.4-.49,1.19-.49,2.39v6.91Z"/>
      </g>
      <path class="cls-1" d="m9.15,31.76c-.42-.8-.74-1.75-1.65-8.4-.91,6.66-1.23,7.61-1.65,8.4-.55.61-1.21,1.06-5.85,2.37,4.63,1.31,5.29,1.77,5.85,2.37.42.8.74,1.75,1.65,8.4.91-6.66,1.23-7.61,1.65-8.4.55-.61,1.21-1.06,5.85-2.37-4.63-1.31-5.29-1.77-5.85-2.37Z"/>
      <path class="cls-1" d="m303.06,31.76c-.42-.8-.74-1.75-1.65-8.4-.91,6.66-1.23,7.61-1.65,8.4-.55.61-1.21,1.06-5.85,2.37,4.63,1.31,5.29,1.77,5.85,2.37.42.8.74,1.75,1.65,8.4.91-6.66,1.23-7.61,1.65-8.4.55-.61,1.21-1.06,5.85-2.37-4.63-1.31-5.29-1.77-5.85-2.37Z"/>
      <g>
        <path class="cls-1" d="m127.5,4.97c.28.13.43.23.44.3.01.05,0,.11-.05.2-.04.09-.07.15-.09.18-.06.13-.08.24-.08.33.03,1.07-.03,2.09-.17,3.07-.08.52-.22.91-.42,1.17-.2.26-.4.41-.59.46-.09.02-.16.02-.23,0-.07-.03-.11-.08-.14-.17-.02-.08-.05-.14-.09-.18-.04-.04-.09-.09-.18-.15-.07-.06-.27-.16-.57-.28-.06-.02-.13-.06-.21-.1-.08-.04-.12-.07-.13-.1,0-.03,0-.04.04-.05.03,0,.07,0,.14,0,.01,0,.16.03.45.09.28.06.51.06.69,0,.1-.03.21-.09.32-.2.11-.11.2-.29.25-.54.1-.52.17-1.02.19-1.5.02-.48.02-.89,0-1.21-.02-.33-.05-.54-.07-.63-.02-.08-.09-.1-.21-.07-.21.06-.91.3-2.09.77-.04.78-.13,1.49-.28,2.13-.17.71-.47,1.41-.9,2.1-.43.69-.87,1.25-1.33,1.66-.06.05-.1.09-.13.1-.03,0-.04,0-.05-.02-.01-.03.01-.09.07-.17.97-1.28,1.58-2.66,1.8-4.15.07-.48.12-.94.15-1.39-.12.05-.24.1-.36.16-.62.29-1.02.49-1.2.59-.04.03-.08.06-.14.09-.06.03-.11.06-.16.07-.17.05-.34.05-.5-.01-.16-.06-.31-.14-.42-.23-.12-.1-.18-.16-.19-.2-.01-.03,0-.05.05-.07.02,0,.06,0,.11,0,.06,0,.11,0,.15,0,.31,0,.6-.05.86-.13.31-.12.62-.23.94-.35.29-.1.58-.21.87-.31,0-.49-.04-.9-.13-1.24-.1-.35-.32-.54-.65-.56-.05,0-.09,0-.13,0-.04,0-.08,0-.1,0-.03,0-.04-.01-.05-.03-.02-.07.02-.13.12-.19.1-.06.22-.11.36-.15.28-.08.57-.11.88-.09.3.02.47.1.52.25.01.05,0,.12-.03.21-.06.13-.09.29-.12.5,0,.09,0,.2,0,.33,0,.25,0,.5,0,.75.92-.34,1.46-.53,1.61-.61.12-.06.25-.17.39-.34.02-.02.05-.05.1-.11.05-.05.1-.09.14-.1.08-.02.26.04.54.17Z"/>
        <path class="cls-1" d="m138.63,7.1c-.12-.07-.24-.16-.34-.26-.1-.1-.16-.17-.16-.21,0-.03,0-.07.02-.12.02-.05.02-.11.02-.17-.01-.36-.06-.84-.16-1.44-.12-.75-.27-1.43-.46-2.05-.05-.19-.21-.27-.48-.23-.04,0-.08.01-.12,0-.04,0-.06-.01-.06-.03-.01-.08.03-.15.13-.2.1-.05.21-.09.32-.11.12-.02.27-.02.46,0,.19.02.35.06.5.11.15.06.23.13.24.22.01.07,0,.16-.06.25-.04.08-.07.15-.09.22-.02.06-.02.15,0,.26.02.18.04.35.06.53.09.73.15,1.16.17,1.27.05.32.1.59.16.82.02.06.04.11.06.15.02.03.05.05.1.04.1-.01.42-.21.99-.58.57-.37,1.2-.86,1.93-1.48.72-.61,1.39-1.3,2.02-2.07.08-.09.14-.14.18-.14.02,0,.03.01.04.05,0,.05-.03.12-.1.22-.73,1.08-1.53,2.01-2.41,2.8-.88.8-1.58,1.38-2.1,1.75-.05.03-.12.11-.21.23-.05.07-.1.13-.14.18-.04.04-.1.07-.16.08-.09.01-.19-.02-.32-.09Z"/>
        <path class="cls-1" d="m154.29,1.27c-.17-.23-.38-.42-.65-.57-.27-.15-.55-.26-.86-.33-.06-.01-.1-.02-.14-.04-.04-.01-.06-.03-.06-.05,0-.06.16-.1.49-.1.3,0,.62.02.94.09.33.06.6.17.82.32.27.2.41.42.41.66,0,.12-.03.22-.1.3-.07.08-.16.12-.28.12-.2,0-.39-.13-.58-.39Zm-1.39,3.9c0-.09,0-.16.03-.22.02-.06.04-.09.07-.09.02,0,.05.03.1.11.04.07.1.14.17.21.07.07.13.12.19.15.06.04.14.05.25.05.25,0,.69-.21,1.34-.6.65-.39,1.42-.94,2.31-1.63.89-.69,1.8-1.48,2.74-2.35.07-.07.13-.1.18-.1.03,0,.04.01.04.04,0,.04-.04.11-.11.21-.51.62-1.1,1.24-1.77,1.88-.67.64-1.31,1.21-1.92,1.72-.61.51-1.08.88-1.42,1.13-.08.06-.15.1-.2.13-.06.04-.12.08-.18.13-.06.05-.13.11-.2.19-.14.16-.3.24-.49.25-.22,0-.44-.08-.65-.26-.21-.18-.35-.39-.41-.64-.03-.11-.05-.21-.05-.31Z"/>
        <path class="cls-1" d="m174.71,1.72c.13.11.25.23.34.36.1.13.14.23.13.29,0,.06-.03.1-.07.12-.04.02-.09.04-.18.05-.1.02-.17.05-.23.07-.05.02-.11.07-.17.13-.6.68-1.23,1.3-1.9,1.86.48.56.68,1,.63,1.33-.02.14-.07.25-.15.32-.08.07-.17.11-.27.09-.15-.02-.27-.17-.36-.43-.11-.31-.23-.61-.37-.89-1.56,1.18-3.3,2.01-5.25,2.51-.08.02-.15.03-.2.02-.05,0-.08-.02-.08-.06,0-.03.08-.08.23-.13,1.75-.61,3.4-1.57,4.98-2.89-.17-.27-.34-.49-.5-.67-.17-.18-.32-.33-.46-.46-.14-.13-.23-.21-.28-.26-.04-.04-.06-.07-.05-.1,0-.03.02-.04.06-.03.03,0,.07.02.11.04.51.27,1.02.64,1.52,1.12.34-.3.64-.59.91-.87.26-.28.47-.52.62-.71.15-.19.23-.31.24-.37,0-.05,0-.08-.02-.11-.02-.02-.07-.04-.13-.05-.05,0-.13,0-.24,0-.55,0-.99,0-1.3-.05-.29-.04-.5-.11-.62-.21-.47.46-1.01.92-1.64,1.39-.62.47-1.13.78-1.54.93-.09.03-.15.04-.18.04-.05,0-.07-.03-.07-.07,0-.05.06-.1.15-.15.32-.2.71-.5,1.16-.91.45-.4.85-.81,1.21-1.23.36-.42.58-.75.66-1,.03-.09.04-.15.04-.18.03-.24-.08-.37-.33-.41-.04,0-.07,0-.09-.02-.02,0-.03-.02-.03-.04,0-.05.07-.08.18-.11.12-.03.22-.03.32-.02.11.01.24.08.39.18.15.11.29.23.4.35.11.13.16.23.15.3,0,.05-.04.1-.09.15-.06.06-.1.1-.12.13-.06.09-.17.23-.33.4.03.01.07.02.12.03.24.03.56.06.95.08.39.02.67.02.83-.01.09-.01.19-.04.29-.07.11-.02.2-.03.27-.02.1.02.22.08.35.19Zm.77-.58c.25.13.47.3.65.49.18.19.25.39.22.6-.02.12-.07.2-.15.25-.08.05-.17.06-.26.05-.08-.01-.16-.05-.23-.11-.08-.06-.13-.14-.14-.24-.04-.21-.11-.39-.2-.55-.09-.16-.22-.3-.38-.43-.16-.12-.23-.2-.23-.24,0-.05.06-.06.16-.05.12.02.31.1.56.23Zm1.05-.56c.23.11.43.24.59.4.16.16.23.34.19.54-.02.1-.06.17-.14.2-.07.04-.15.05-.23.04-.14-.02-.25-.12-.33-.29-.08-.16-.16-.3-.24-.4-.08-.11-.2-.24-.37-.39-.05-.04-.11-.09-.18-.14-.07-.05-.1-.09-.09-.11,0-.03.02-.04.05-.05.03,0,.07,0,.13,0,.17.03.38.1.61.2Z"/>
        <path class="cls-1" d="m183.42,7.02c-.11-.09-.2-.21-.27-.34-.07-.13-.09-.27-.06-.4.02-.07.05-.14.1-.2.05-.06.09-.09.12-.08.01,0,.04.03.08.07.06.07.12.12.19.17.25.15.55.27.89.36.29.07.75.17,1.35.32.6.15,1.12.27,1.54.38.91.23,1.67.42,2.28.57.35.09.63.16.82.23.26.08.46.17.6.26.13.09.18.22.13.37-.05.15-.22.2-.5.13-.14-.03-.33-.08-.56-.16-.98-.28-1.97-.56-2.95-.81-.52-.14-1.1-.27-1.72-.4-.62-.13-1.03-.2-1.22-.21-.18-.01-.32-.03-.42-.06-.18-.04-.31-.11-.39-.2Z"/>
      </g>
    </g>
  </g>
</svg>