<?xml version="1.0" encoding="UTF-8"?>
<svg id="Layer_2" data-name="Layer 2" xmlns="http://www.w3.org/2000/svg" viewBox="0 0 207.9 49.34">
  <defs>
    <style>
      .cls-1 {
        fill: #f2e7da;
        stroke-width: 0px;
      }
    </style>
  </defs>
  <g id="text">
    <g>
      <g>
        <path class="cls-1" d="M35.81,48.72c-.22,0-.37-.08-.47-.25-.1-.17-.14-.35-.14-.54.02-.41.12-.64.29-.68.17-.05.37-.07.61-.07.77,0,1.31-.14,1.62-.41.31-.28.51-.62.59-1.04.08-.42.13-.86.13-1.31v-14.29c0-.46-.04-.89-.13-1.31-.08-.42-.28-.77-.59-1.04-.31-.28-.85-.41-1.62-.41-.24,0-.44-.02-.61-.07-.17-.05-.26-.28-.29-.68,0-.19.05-.37.14-.54.1-.17.25-.25.47-.25.79.02,1.52.05,2.2.07.67.02,1.37.04,2.09.04,1.46,0,2.96-.04,4.5-.11.24,0,.41.08.5.25.1.17.14.35.14.54-.02.41-.12.64-.29.68-.17.05-.37.07-.61.07-.74,0-1.28.14-1.6.41-.32.28-.52.62-.59,1.04-.07.42-.12.86-.14,1.31v14.83c.02.31.07.65.14,1.01.07.36.28.66.63.9.35.24.93.35,1.75.32h3.24c.84-.02,1.48-.16,1.93-.41.44-.25.8-.68,1.06-1.28.26-.6.55-1.43.86-2.48.1-.24.26-.4.49-.47.23-.07.47-.08.74-.04.19.02.39.11.59.25.2.14.29.34.27.58l-.72,4.54c-.07.34-.19.55-.34.63-.16.08-.39.13-.7.13h-11.81c-.72,0-1.42,0-2.11.02-.68.01-1.42.04-2.21.09Z"/>
        <path class="cls-1" d="M74.58,49.34c-1.75,0-3.34-.32-4.75-.97-1.42-.65-2.63-1.52-3.64-2.63-1.01-1.1-1.78-2.36-2.3-3.76s-.79-2.87-.79-4.41c0-1.99.34-3.76,1.03-5.29.68-1.54,1.59-2.83,2.72-3.89,1.13-1.06,2.37-1.85,3.73-2.39,1.36-.54,2.69-.81,4.01-.81,1.8,0,3.41.32,4.84.97,1.43.65,2.65,1.52,3.65,2.63,1.01,1.1,1.78,2.36,2.3,3.76.53,1.4.79,2.86.79,4.37,0,1.99-.35,3.76-1.04,5.29-.7,1.54-1.62,2.83-2.77,3.89-1.15,1.06-2.41,1.86-3.76,2.41-1.36.55-2.69.83-4.01.83ZM74.54,47.75c1.7,0,3.1-.5,4.18-1.51s1.88-2.33,2.39-3.98c.52-1.64.77-3.43.77-5.35,0-1.8-.27-3.47-.81-5.02s-1.35-2.8-2.43-3.74c-1.08-.95-2.45-1.42-4.1-1.42s-3.05.5-4.12,1.49c-1.07,1-1.85,2.3-2.36,3.92-.5,1.62-.76,3.39-.76,5.31,0,1.8.26,3.49.77,5.06.52,1.57,1.31,2.84,2.39,3.8,1.08.96,2.44,1.44,4.07,1.44Z"/>
        <path class="cls-1" d="M107.99,49.34c-2.02,0-3.87-.43-5.56-1.28-1.69-.85-3.05-2.16-4.07-3.92-1.02-1.76-1.53-4-1.53-6.71,0-2.45.53-4.59,1.6-6.43,1.07-1.84,2.55-3.26,4.45-4.28,1.9-1.02,4.07-1.53,6.52-1.53.84,0,1.7.1,2.59.29.89.19,1.72.49,2.48.88.77.4,1.39.92,1.85,1.57.47.65.7,1.43.7,2.34,0,.98-.3,1.88-.9,2.68-.6.8-1.44,1.21-2.52,1.21-.46,0-.93-.11-1.42-.34-.49-.23-.75-.55-.77-.95,0-.07.15-.2.45-.4.3-.19.6-.49.9-.88.3-.4.45-.92.45-1.57,0-1.03-.4-1.85-1.19-2.47-.79-.61-1.81-.92-3.06-.92-1.46,0-2.8.41-4,1.22-1.2.82-2.15,2.01-2.86,3.58-.71,1.57-1.06,3.5-1.06,5.78,0,2.16.34,4.01,1.03,5.56s1.64,2.74,2.88,3.56c1.24.83,2.67,1.24,4.3,1.24.79,0,1.48-.05,2.05-.14.58-.1,1.19-.24,1.84-.43v-3.67c0-.67-.02-1.21-.07-1.6-.05-.4-.22-.69-.5-.88s-.79-.29-1.51-.29c-.24,0-.46-.02-.67-.07-.2-.05-.32-.28-.34-.68,0-.19.07-.37.2-.54s.32-.25.56-.25c.77.02,1.42.05,1.94.07.53.02,1.2.04,2.02.04s1.48-.01,2-.04c.52-.02,1.15-.05,1.89-.07.24,0,.41.08.52.25s.16.35.16.54c-.02.41-.13.64-.32.68-.19.05-.42.07-.68.07-.67,0-1.15.1-1.42.31-.28.2-.44.51-.5.92-.06.41-.09.92-.09,1.55v4.25c-.94.43-1.81.78-2.61,1.04-.8.26-1.66.45-2.56.56-.9.11-1.95.16-3.15.16Z"/>
        <path class="cls-1" d="M129.33,48.72c-.24,0-.41-.08-.5-.25-.1-.17-.14-.35-.14-.54.02-.41.12-.64.29-.68.17-.05.37-.07.61-.07.77,0,1.31-.14,1.62-.41.31-.28.51-.62.59-1.04.08-.42.14-.86.16-1.31v-14.29c-.02-.46-.08-.89-.16-1.31-.08-.42-.28-.77-.59-1.04-.31-.28-.85-.41-1.62-.41-.24,0-.44-.02-.61-.07s-.26-.28-.29-.68c0-.19.05-.37.14-.54.1-.17.26-.25.5-.25.77.02,1.49.05,2.18.07.68.02,1.39.04,2.11.04,1.46,0,2.96-.04,4.5-.11.22,0,.38.08.49.25.11.17.16.35.16.54-.02.41-.12.64-.29.68s-.38.07-.65.07c-.74,0-1.28.14-1.6.41-.32.28-.52.62-.59,1.04s-.12.86-.14,1.31v14.29c.02.46.07.89.14,1.31s.27.77.59,1.04c.32.28.86.41,1.6.41.26,0,.48.02.65.07.17.05.26.28.29.68,0,.19-.05.37-.16.54-.11.17-.27.25-.49.25-1.54-.07-3.02-.11-4.46-.11-.72,0-1.43,0-2.12.02-.7.01-1.43.04-2.2.09Z"/>
        <path class="cls-1" d="M149.71,48.72c-.24,0-.41-.08-.5-.25-.1-.17-.14-.35-.14-.54.02-.41.12-.64.29-.68.17-.05.37-.07.61-.07.77,0,1.3-.14,1.6-.41.3-.28.49-.62.56-1.04.07-.42.11-.86.11-1.31l.07-14.29c0-1.13-.19-1.85-.58-2.16-.38-.31-1-.55-1.84-.72-.36-.07-.6-.14-.72-.2-.12-.06-.18-.27-.18-.63,0-.41.14-.63.43-.67s.62-.05,1.01-.05c1.34,0,2.43.11,3.26.32.83.22,1.56.6,2.2,1.15.64.55,1.33,1.33,2.07,2.34l9.86,12.96h.11l-.07-12.35c0-.46-.04-.89-.11-1.31-.07-.42-.26-.77-.56-1.04-.3-.28-.83-.41-1.6-.41-.24,0-.44-.02-.61-.07s-.28-.28-.32-.68c0-.19.05-.37.16-.54s.27-.25.49-.25c.53.02.95.04,1.28.05.32.01.65.02.97.04.32.01.73.02,1.21.02s.88,0,1.19-.02c.31-.01.63-.02.95-.04s.74-.03,1.24-.05c.24,0,.41.08.5.25.1.17.14.35.14.54-.02.41-.11.64-.27.68-.16.05-.37.07-.63.07-.74,0-1.27.14-1.58.41-.31.28-.5.62-.56,1.04s-.1.86-.13,1.31l-.07,18.14c-.02.19-.14.32-.34.38s-.39.09-.56.09c-.46,0-.8-.16-1.04-.47l-13.57-18.14h-.11l.07,14.29c.02.46.07.89.13,1.31s.25.77.56,1.04c.31.28.84.41,1.58.41.26,0,.48.02.65.07.17.05.26.28.29.68,0,.19-.05.37-.16.54-.11.17-.27.25-.49.25-.5-.02-.93-.04-1.28-.05-.35-.01-.68-.02-1.01-.04-.32-.01-.73-.02-1.21-.02s-.87,0-1.17.02c-.3.01-.61.02-.92.04-.31.01-.73.03-1.26.05Z"/>
      </g>
      <path class="cls-1" d="M9.15,35.65c-.42-.8-.74-1.75-1.65-8.4-.91,6.66-1.23,7.61-1.65,8.4-.55.61-1.21,1.06-5.85,2.37,4.63,1.31,5.29,1.77,5.85,2.37.42.8.74,1.75,1.65,8.4.91-6.66,1.23-7.61,1.65-8.4.55-.61,1.21-1.06,5.85-2.37-4.63-1.31-5.29-1.77-5.85-2.37Z"/>
      <path class="cls-1" d="M202.06,35.65c-.42-.8-.74-1.75-1.65-8.4-.91,6.66-1.23,7.61-1.65,8.4-.55.61-1.21,1.06-5.85,2.37,4.63,1.31,5.29,1.77,5.85,2.37.42.8.74,1.75,1.65,8.4.91-6.66,1.23-7.61,1.65-8.4.55-.61,1.21-1.06,5.85-2.37-4.63-1.31-5.29-1.77-5.85-2.37Z"/>
      <g>
        <path class="cls-1" d="M50.65,8.32c.18.08.27.15.29.2,0,.03,0,.07-.03.11-.04.05-.1.12-.2.19-.06.06-.12.12-.19.18-.12.12-.36.35-.71.67-.35.33-.66.59-.92.79,0,.07,0,.13,0,.2,0,.03,0,.07,0,.14,0,.07,0,.14,0,.2-.02.42-.06.83-.11,1.22-.05.4-.2.88-.42,1.45-.23.57-.56,1.09-1.01,1.56-.04.05-.08.07-.1.08-.03.01-.05,0-.06-.02,0-.02,0-.04.03-.08.02-.04.04-.06.04-.06.39-.51.66-1.1.83-1.76.16-.66.25-1.27.26-1.83.01-.56-.01-.93-.07-1.11-.05-.17-.13-.29-.24-.35-.11-.06-.26-.09-.44-.08-.04,0-.06-.01-.06-.03-.01-.04.02-.08.1-.12.08-.04.17-.08.29-.12.16-.05.31-.07.46-.05.14.02.26.05.35.11.09.06.15.11.16.17,0,.03,0,.07,0,.13-.01.06-.02.1-.02.14.47-.47.8-.96.98-1.45.04-.12.05-.21.04-.25-.03-.1-.15-.11-.35-.05-.1.03-.38.15-.83.37-.45.22-.8.39-1.05.53-.15.08-.36.2-.61.35-.17.1-.35.2-.51.3-.17.09-.3.16-.38.18-.11.04-.26.03-.44-.01-.18-.04-.31-.1-.4-.18-.05-.04-.07-.08-.09-.12-.02-.06,0-.09.03-.1.01,0,.05,0,.11,0,.06,0,.1,0,.14,0,.13,0,.29-.04.48-.1.14-.04.28-.1.43-.16.22-.09.71-.31,1.44-.65.73-.34,1.18-.55,1.32-.64.28-.19.46-.29.54-.31.04-.01.11,0,.21.04.28.11.5.21.68.3Z"/>
        <path class="cls-1" d="M62.96,6.3c.21.11.33.2.34.25,0,.04,0,.09-.04.16-.04.07-.06.11-.07.14-.05.1-.06.19-.07.26,0,.85-.06,1.67-.2,2.45-.07.42-.2.72-.37.92-.17.2-.33.32-.48.35-.07.02-.13.01-.18-.01-.05-.02-.09-.07-.1-.14-.02-.07-.04-.12-.06-.15-.03-.03-.07-.07-.14-.12-.06-.05-.21-.14-.45-.25-.05-.02-.1-.05-.16-.08-.06-.04-.09-.06-.1-.08,0-.02,0-.03.03-.04.02,0,.06,0,.11,0,.01,0,.13.03.35.09.22.05.4.06.55.03.08-.02.17-.07.26-.15.09-.08.16-.22.21-.43.1-.41.16-.81.19-1.19.03-.38.04-.71.03-.97,0-.26-.03-.43-.04-.5-.02-.06-.07-.08-.16-.06-.16.04-.71.21-1.65.54-.05.62-.15,1.18-.29,1.69-.15.56-.42,1.1-.79,1.64-.37.53-.75.95-1.13,1.26-.04.04-.09.06-.11.07-.02,0-.03,0-.04-.02,0-.03.02-.07.07-.13.84-.97,1.37-2.05,1.6-3.22.07-.38.13-.75.16-1.1-.09.04-.19.07-.28.11-.5.2-.81.34-.96.42-.03.02-.06.04-.11.07-.05.02-.08.04-.12.05-.13.03-.27.02-.39-.03-.12-.06-.23-.13-.32-.21-.09-.08-.13-.14-.14-.17,0-.03,0-.04.04-.05.02,0,.05,0,.09,0,.04,0,.08,0,.12,0,.24.01.47,0,.67-.06.25-.08.5-.15.74-.23.23-.07.46-.14.69-.21.02-.39,0-.72-.07-1-.07-.29-.23-.45-.48-.48-.04,0-.07,0-.1,0-.03,0-.06,0-.08,0-.02,0-.04-.01-.04-.03-.01-.06.02-.11.1-.15.08-.04.18-.08.28-.1.22-.05.45-.06.68-.04.23.03.36.1.39.22,0,.04,0,.1-.03.16-.05.1-.08.23-.11.39,0,.07,0,.16,0,.27,0,.2-.02.4-.02.6.73-.23,1.15-.37,1.27-.43.1-.04.19-.13.31-.26.02-.01.04-.04.08-.08.04-.04.08-.07.11-.07.06-.01.2.04.42.15Z"/>
        <path class="cls-1" d="M75.35,3.73s0,.08-.01.11c-.02.02-.04.05-.08.08-.06.03-.1.07-.12.12-.04.07-.06.12-.08.17-.02.05-.04.14-.07.27-.15.73-.34,1.35-.57,1.88-.23.52-.57,1.03-1.03,1.52-.46.49-1.09.96-1.88,1.43-.05.03-.09.05-.13.06-.03,0-.04,0-.04,0,0-.01.04-.06.12-.13.93-.69,1.62-1.4,2.05-2.16.44-.75.7-1.4.79-1.93.09-.53.12-.9.09-1.09-.02-.11-.08-.16-.18-.14-.08.01-1.06.29-2.93.87.06.15.13.31.19.49.05.13.09.26.14.39.03.08.06.17.09.25.07.19.11.31.12.35.01.08,0,.16-.03.24-.04.08-.09.12-.15.14-.09.02-.18-.01-.28-.09-.1-.07-.16-.19-.19-.33,0-.06-.02-.13-.03-.19-.05-.29-.13-.58-.24-.87-.11-.29-.21-.48-.31-.56-.06-.05-.13-.09-.21-.13-.09-.04-.17-.06-.24-.06-.04,0-.06,0-.09-.01-.03,0-.04-.01-.04-.03,0-.04,0-.07.05-.09.04-.02.09-.03.16-.05.09-.02.24-.02.44,0,.2.02.32.05.36.08.03.02.06.06.1.12.32-.08.74-.19,1.25-.35-.01-.1-.03-.2-.04-.3-.03-.17-.06-.32-.1-.45-.04-.13-.08-.22-.11-.27-.04-.04-.09-.09-.17-.12-.04-.01-.07-.03-.1-.04-.03,0-.05-.02-.07-.03-.02,0-.03-.03-.03-.05,0-.04.01-.07.06-.11.05-.04.11-.06.18-.08.07-.01.19,0,.36,0,.17.02.29.05.36.1.11.06.15.12.16.17,0,.04,0,.08-.02.13-.02.05-.03.08-.04.09-.04.09-.03.26.01.53.02.14.04.23.05.27.74-.21,1.15-.33,1.23-.36.06-.03.14-.08.23-.17,0,0,.02-.02.05-.05.03-.03.06-.05.09-.05.05,0,.17.03.36.11.19.08.33.15.39.19.07.05.11.09.11.14Z"/>
        <path class="cls-1" d="M83.8,2.76c-.15-.17-.33-.31-.55-.41-.22-.1-.45-.17-.69-.21-.04,0-.08-.01-.11-.02-.03,0-.05-.02-.05-.03,0-.05.12-.09.37-.12.23-.03.48-.03.74,0,.26.03.48.1.66.2.23.14.35.3.37.49,0,.1,0,.18-.05.24-.05.07-.12.1-.21.11-.16.02-.31-.07-.48-.27ZM82.99,5.97c0-.07,0-.13,0-.17.01-.05.03-.07.05-.07.01,0,.05.02.08.08.04.05.09.1.15.15.06.05.12.08.16.11.05.02.12.03.2.02.2-.02.53-.21,1.02-.58.49-.36,1.04-.86,1.68-1.48.64-.63,1.28-1.33,1.92-2.11.04-.06.09-.1.13-.1.02,0,.03,0,.04.03,0,.03-.02.09-.07.17-.34.54-.73,1.09-1.21,1.65-.47.57-.92,1.08-1.36,1.53-.43.45-.78.79-1.04,1.01-.06.05-.11.1-.15.12-.04.04-.09.08-.14.12-.04.04-.09.1-.15.17-.1.14-.23.22-.37.23-.18.02-.36-.03-.54-.16-.18-.13-.31-.29-.37-.48-.03-.08-.05-.16-.06-.24Z"/>
        <path class="cls-1" d="M98.75,2.86c.46.22.69.48.71.79,0,.09-.02.17-.06.23-.05.06-.1.09-.17.09-.15,0-.35-.13-.59-.42-.39-.45-.86-.79-1.41-1.01,0,.05,0,.09,0,.14.01.44.03.87.04,1.31.03.9.07,1.42.1,1.56,0,.04.02.12.06.25.03.13.05.23.05.31,0,.11-.03.2-.09.29-.07.09-.13.13-.19.13-.08,0-.15-.05-.22-.17-.07-.12-.13-.25-.18-.4-.05-.15-.07-.25-.08-.31,0-.03,0-.1.03-.2.02-.1.03-.23.03-.39,0-.22,0-.43,0-.65,0-.16,0-.32,0-.47,0-.15,0-.3,0-.43,0-.36,0-.9-.04-1.63-.02-.59-.05-.97-.08-1.16-.02-.11-.06-.2-.11-.26-.05-.06-.11-.11-.15-.14-.05-.03-.08-.05-.1-.06-.05-.03-.07-.06-.07-.08,0-.06.05-.11.15-.14.11-.02.21-.04.3-.04.19,0,.35.05.48.16.06.06.1.12.1.2,0,.04,0,.07,0,.1,0,.03-.01.05-.01.07,0,.03-.02.1-.03.22-.01.12-.02.26-.01.41,0,.06,0,.11,0,.17,0,.3,0,.65.02,1.06.57.09,1.08.25,1.55.46Z"/>
        <path class="cls-1" d="M107.75,6.09c-.09-.08-.15-.18-.19-.3-.19-.53-.28-1.19-.27-1.98,0-.36.03-.68.1-.96.06-.28.14-.57.24-.88.04-.14.08-.28.12-.42.04-.14.05-.26.06-.36,0-.1-.01-.21-.05-.31-.04-.11-.08-.19-.15-.26-.04-.06-.06-.1-.06-.12,0-.03,0-.04.03-.04.03,0,.08.02.13.05.18.11.33.25.43.41.1.16.15.36.15.6,0,.1-.02.2-.06.31-.04.1-.08.21-.12.31-.04.1-.08.17-.09.2-.13.27-.22.5-.27.68-.06.21-.09.42-.1.63,0,.14,0,.27.02.39.02.12.05.18.1.18.03,0,.07-.05.14-.16.05-.1.1-.2.15-.29.1-.18.2-.36.29-.54.04-.06.07-.09.08-.09.02,0,.02.01.02.03,0,.03-.02.06-.03.1-.08.19-.16.43-.26.72-.1.29-.14.54-.15.74,0,.23.03.57.12,1.03.02.15.03.23.03.26,0,.07-.02.12-.07.16-.04.04-.1.05-.14.05-.08,0-.15-.04-.25-.13ZM110.14,5.74c-.31-.12-.53-.34-.65-.67-.03-.08-.05-.13-.04-.15,0-.02,0-.03.03-.03.02,0,.04.01.06.03.02.02.04.03.06.05.21.17.44.29.7.36.13.04.31.06.56.07.28.01.64,0,1.09-.05.09,0,.19-.01.28-.02.13,0,.22.04.3.11.08.07.11.14.11.21,0,.14-.14.23-.4.27-.26.04-.59.05-1.01.03-.42-.02-.78-.08-1.09-.2ZM110.5,1.72c-.18-.05-.34-.13-.48-.22-.14-.09-.23-.19-.28-.29-.02-.04-.03-.08-.03-.1,0-.02,0-.02.02-.02.02,0,.04.01.09.04.04.03.08.05.12.07.18.07.37.12.6.12.16,0,.37,0,.64-.02.27-.02.5-.05.67-.08.07-.02.12-.03.16-.03.1,0,.2.04.29.1.08.06.13.13.13.2,0,.12-.15.21-.44.25-.29.05-.58.06-.89.05-.24,0-.44-.04-.6-.08Z"/>
        <path class="cls-1" d="M124.48,2.57c.11.1.22.21.3.32.09.12.13.19.12.24,0,.04-.02.07-.06.11-.03.04-.09.08-.16.13-.01,0-.04.03-.08.06-.05.03-.08.07-.11.1-.03.03-.05.07-.06.1-.08.22-.16.43-.24.65-.13.35-.26.7-.39,1.05.26.07.39.18.37.33,0,.08-.09.12-.25.1-.09,0-.2-.03-.35-.06-.28-.05-.51-.08-.68-.1-.32-.03-.66-.06-1.03-.07-.37-.01-.68-.02-.94,0,0,.03,0,.07,0,.11-.03.25-.09.38-.19.37-.29-.03-.42-.29-.37-.8,0-.07.01-.15.02-.22.02-.19.02-.56,0-1.12-.02-.56-.05-.94-.12-1.12-.03-.11-.08-.19-.13-.25-.05-.06-.12-.11-.22-.15-.03-.01-.06-.03-.09-.04-.03-.01-.05-.02-.06-.03-.01,0-.02-.02-.02-.03,0-.03.06-.06.17-.09.06-.01.13-.01.22,0,.14.01.27.04.38.1.1.05.22.14.33.28,0,.01.02.02.02.03.11,0,.23,0,.34,0,1.5.03,2.3.04,2.41,0,.05-.01.1-.02.13-.04.04-.02.07-.03.1-.03.09-.03.16-.06.22-.07.06-.02.12-.02.18-.01.05,0,.13.06.24.16ZM122.14,5.2c.43,0,.82.02,1.15.04.1-.27.23-.68.39-1.25.16-.56.25-.87.25-.92,0-.04-.01-.08-.05-.1-.03-.02-.1-.04-.2-.05-.09,0-.5-.02-1.23-.04-.73-.02-1.26,0-1.57.02,0,.08-.01.18,0,.3.04.78.05,1.43.05,1.97.37,0,.78,0,1.21.02Z"/>
        <path class="cls-1" d="M136.97,4.06c.11.09.2.2.28.31.08.11.11.21.1.28-.01.06-.04.11-.09.14-.05.03-.12.07-.22.1-.08.03-.16.07-.21.09-.05.03-.1.07-.15.11-.83.86-1.75,1.54-2.76,2.06-1.01.52-2,.82-2.97.9-.03,0-.06,0-.09,0-.05,0-.07-.02-.07-.05,0-.02.04-.04.12-.06,1.02-.25,1.97-.63,2.82-1.14.86-.51,1.72-1.26,2.6-2.26.04-.05.07-.1.07-.13,0-.05-.02-.08-.09-.1-.03,0-.07,0-.12,0-.28.02-.5.03-.65.03-.15,0-.29,0-.43-.03-.17-.03-.31-.07-.43-.14-.43.33-.92.64-1.48.95-.56.3-1,.49-1.3.55-.06.01-.1.02-.11.02-.02,0-.03-.01-.03-.03,0-.02.02-.03.04-.05.02-.02.05-.03.09-.05.27-.13.63-.34,1.06-.64.43-.3.81-.61,1.15-.92.34-.31.52-.56.55-.73.02-.15-.06-.28-.24-.4-.05-.03-.07-.06-.07-.08,0-.03.03-.05.09-.07.08-.02.17-.02.29,0,.13.02.26.08.37.16.11.09.2.18.25.29.06.1.09.19.07.26,0,.05-.05.11-.12.19-.07.09-.19.2-.35.35.04,0,.08.01.12.02.23.04.46.06.72.06.25,0,.43,0,.52-.04.05-.02.1-.04.16-.06.06-.02.1-.04.14-.05.04,0,.07,0,.1,0,.06.01.14.06.25.15ZM137.35,2.98c.2.08.38.2.54.35.16.15.22.32.19.51-.02.09-.06.15-.11.19-.06.04-.13.05-.2.03-.05,0-.11-.04-.17-.08-.06-.04-.1-.1-.12-.18-.05-.17-.12-.31-.18-.43-.06-.11-.16-.22-.29-.31,0,0-.04-.02-.07-.05-.03-.02-.07-.05-.08-.07-.02-.02-.02-.04-.02-.06,0-.04.05-.06.13-.04.07.01.2.06.4.14ZM138.4,2.63c.16.08.3.18.42.3.11.13.16.27.12.44-.01.07-.05.12-.11.15-.06.03-.12.03-.18.02-.05,0-.1-.03-.14-.08-.05-.04-.08-.09-.11-.16-.07-.15-.14-.28-.21-.36-.07-.09-.17-.18-.31-.27-.04-.02-.08-.05-.12-.07-.04-.03-.07-.05-.09-.06-.02-.01-.02-.03-.02-.05,0-.03.03-.04.08-.04.05,0,.13.01.23.03.12.02.27.07.44.15Z"/>
        <path class="cls-1" d="M148.96,5.63c.05.1.07.18.06.25,0,.04-.02.06-.04.07-.01,0-.05.02-.09.03,0,0-.03.01-.08.03-.04.01-.09.04-.13.07-.42.36-.85.69-1.31.99.12.09.22.17.3.23.07.07.1.14.07.23-.01.05-.04.11-.09.2-.09.17-.13.29-.14.34-.08.34-.17.68-.25,1.03-.18.77-.29,1.27-.31,1.5-.01.13-.03.24-.05.34-.06.26-.17.37-.33.33-.12-.03-.2-.09-.25-.19-.04-.1-.04-.22,0-.38.06-.27.13-.54.21-.8.09-.33.15-.58.19-.74.1-.43.19-.85.29-1.28.06-.26.06-.45,0-.58-.98.59-1.98,1.01-3.02,1.25-.07.02-.12.02-.16.01-.04,0-.06-.02-.06-.05,0-.04.07-.08.2-.12.8-.33,1.51-.69,2.14-1.07.64-.38,1.14-.74,1.5-1.06.37-.33.57-.57.61-.72.02-.1.02-.19-.02-.26-.02-.03-.04-.05-.06-.08-.02-.03-.03-.05-.03-.06,0-.04.06-.05.14-.03.2.05.38.14.53.27.08.06.14.14.2.24Z"/>
        <path class="cls-1" d="M157.99,9.53c-.07-.22-.19-.41-.35-.59-.16-.18-.35-.33-.56-.46-.04-.02-.07-.04-.1-.06-.02-.02-.03-.04-.03-.05.01-.05.14-.03.39.04.23.07.45.16.68.29.23.13.41.27.53.44.16.21.21.41.15.6-.03.09-.08.16-.14.2-.07.04-.15.05-.24.02-.15-.04-.26-.19-.34-.44ZM155.99,12.17c.02-.07.04-.12.08-.16.04-.04.06-.05.07-.05.02,0,.03.04.05.1.01.07.04.13.08.2.04.07.08.12.11.16.04.04.1.07.18.1.19.06.58.01,1.17-.14.59-.15,1.3-.38,2.14-.71.84-.33,1.71-.73,2.61-1.2.07-.04.12-.05.16-.04.02,0,.03.02.02.04,0,.03-.05.07-.13.13-.52.36-1.11.72-1.77,1.06-.66.34-1.27.64-1.86.88-.58.25-1.03.43-1.36.53-.08.03-.14.04-.19.05-.05.02-.11.04-.17.06-.06.02-.12.05-.2.1-.14.09-.29.11-.43.07-.17-.05-.32-.17-.44-.36-.12-.19-.17-.38-.16-.58,0-.09.01-.17.04-.25Z"/>
      </g>
    </g>
  </g>
</svg>