<?xml version="1.0" encoding="UTF-8"?>
<svg id="_レイヤー_2" data-name="レイヤー 2" xmlns="http://www.w3.org/2000/svg" viewBox="0 0 97.15 12.78">
  <defs>
    <style>
      .cls-1 {
        fill: #f2e7da;
        stroke-width: 0px;
      }
    </style>
  </defs>
  <g id="text">
    <g>
      <path class="cls-1" d="m.32,12.45c-.11,0-.2-.04-.25-.13-.05-.09-.08-.18-.08-.29.01-.22.06-.34.15-.36.09-.03.2-.04.32-.04.41,0,.69-.07.86-.22.16-.15.27-.33.31-.55.04-.22.07-.45.07-.69V2.61c0-.24-.02-.47-.07-.7-.04-.22-.15-.41-.31-.55-.17-.15-.45-.22-.86-.22-.13,0-.24-.01-.32-.04-.09-.03-.14-.15-.15-.36,0-.1.03-.2.08-.29.05-.09.13-.13.25-.13.42.01.81.03,1.16.04.35.01.72.02,1.1.02.77,0,1.57-.02,2.38-.06.13,0,.22.04.27.13.05.09.08.18.08.29-.01.22-.06.34-.15.36-.09.03-.2.04-.32.04-.39,0-.68.07-.85.22-.17.15-.28.33-.31.55-.04.22-.06.45-.08.7v7.84c.01.17.04.34.08.53s.15.35.33.48.49.18.92.17h1.71c.44-.01.78-.09,1.02-.22.23-.13.42-.36.56-.68s.29-.76.46-1.31c.05-.13.14-.21.26-.25s.25-.04.39-.02c.1.01.21.06.31.13s.16.18.14.3l-.38,2.4c-.04.18-.1.29-.18.33-.08.04-.21.07-.37.07H2.61c-.38,0-.75,0-1.11,0-.36,0-.75.02-1.17.05Z"/>
      <path class="cls-1" d="m26.92,12.78c-.93,0-1.76-.17-2.51-.51-.75-.34-1.39-.81-1.92-1.39-.53-.58-.94-1.25-1.22-1.99-.28-.74-.42-1.52-.42-2.33,0-1.05.18-1.99.54-2.8s.84-1.5,1.44-2.06,1.25-.98,1.97-1.27c.72-.29,1.42-.43,2.12-.43.95,0,1.81.17,2.56.51.75.34,1.4.81,1.93,1.39.53.58.94,1.25,1.22,1.99.28.74.42,1.51.42,2.31,0,1.05-.18,1.99-.55,2.8-.37.81-.86,1.5-1.47,2.06s-1.27.98-1.99,1.28c-.72.29-1.43.44-2.12.44Zm-.02-.84c.9,0,1.64-.27,2.21-.8s.99-1.23,1.27-2.1c.27-.87.41-1.81.41-2.83,0-.95-.14-1.84-.43-2.66-.29-.82-.71-1.48-1.29-1.98-.57-.5-1.29-.75-2.17-.75s-1.62.26-2.18.79c-.56.53-.98,1.22-1.25,2.08-.27.86-.4,1.79-.4,2.81,0,.95.14,1.84.41,2.67.27.83.69,1.5,1.27,2.01s1.29.76,2.15.76Z"/>
      <path class="cls-1" d="m50.69,12.78c-1.07,0-2.05-.23-2.94-.68-.9-.45-1.61-1.14-2.15-2.08-.54-.93-.81-2.12-.81-3.55,0-1.29.28-2.43.85-3.4.56-.97,1.35-1.73,2.35-2.27,1-.54,2.15-.81,3.45-.81.44,0,.9.05,1.37.15s.91.26,1.31.47c.41.21.73.49.98.83s.37.75.37,1.24c0,.52-.16.99-.48,1.42-.32.42-.76.64-1.33.64-.24,0-.49-.06-.75-.18-.26-.12-.4-.29-.41-.5,0-.04.08-.11.24-.21.16-.1.32-.26.48-.47.16-.21.24-.49.24-.83,0-.55-.21-.98-.63-1.3-.42-.32-.96-.49-1.62-.49-.77,0-1.48.22-2.11.65s-1.14,1.06-1.51,1.89c-.37.83-.56,1.85-.56,3.06,0,1.14.18,2.12.54,2.94.36.82.87,1.45,1.52,1.88.65.44,1.41.66,2.28.66.42,0,.78-.03,1.09-.08s.63-.13.97-.23v-1.94c0-.36-.01-.64-.04-.85-.03-.21-.11-.36-.27-.47-.15-.1-.42-.15-.8-.15-.13,0-.24-.01-.35-.04-.11-.02-.17-.15-.18-.36,0-.1.04-.2.1-.29.07-.09.17-.13.29-.13.41.01.75.03,1.03.04s.63.02,1.07.02.78,0,1.06-.02.61-.03,1-.04c.13,0,.22.04.28.13s.09.18.09.29c-.01.22-.07.34-.17.36-.1.03-.22.04-.36.04-.36,0-.61.05-.75.16-.15.11-.23.27-.27.49-.03.22-.05.49-.05.82v2.25c-.5.23-.96.41-1.38.55s-.88.24-1.35.29c-.48.06-1.03.09-1.67.09Z"/>
      <path class="cls-1" d="m68.07,12.45c-.13,0-.22-.04-.27-.13-.05-.09-.08-.18-.08-.29.01-.22.06-.34.15-.36.09-.03.2-.04.32-.04.41,0,.69-.07.86-.22.16-.15.27-.33.31-.55.04-.22.07-.45.09-.69V2.61c-.01-.24-.04-.47-.09-.7-.04-.22-.15-.41-.31-.55-.17-.15-.45-.22-.86-.22-.13,0-.24-.01-.32-.04-.09-.03-.14-.15-.15-.36,0-.1.03-.2.08-.29.05-.09.14-.13.27-.13.41.01.79.03,1.15.04s.73.02,1.11.02c.77,0,1.57-.02,2.38-.06.11,0,.2.04.26.13s.09.18.09.29c-.01.22-.06.34-.15.36-.09.03-.2.04-.34.04-.39,0-.68.07-.85.22-.17.15-.28.33-.31.55-.04.22-.06.45-.08.7v7.56c.01.24.04.47.08.69.04.22.14.41.31.55.17.15.45.22.85.22.14,0,.25.01.34.04.09.03.14.15.15.36,0,.1-.03.2-.09.29s-.14.13-.26.13c-.81-.04-1.6-.06-2.36-.06-.38,0-.76,0-1.12,0-.37,0-.76.02-1.16.05Z"/>
      <path class="cls-1" d="m84.94,12.45c-.13,0-.22-.04-.27-.13-.05-.09-.08-.18-.08-.29.01-.22.06-.34.15-.36.09-.03.2-.04.32-.04.41,0,.69-.07.85-.22s.26-.33.29-.55c.04-.22.06-.45.06-.69l.04-7.56c0-.6-.1-.98-.3-1.14-.2-.17-.53-.29-.97-.38-.19-.04-.32-.07-.38-.1-.06-.03-.1-.14-.1-.33,0-.22.08-.33.23-.35.15-.02.33-.03.53-.03.71,0,1.29.06,1.72.17s.82.32,1.16.61c.34.29.7.71,1.09,1.24l5.22,6.85h.06l-.04-6.53c0-.24-.02-.47-.06-.7-.04-.22-.14-.41-.3-.55s-.44-.22-.85-.22c-.13,0-.23-.01-.32-.04s-.15-.15-.17-.36c0-.1.03-.2.09-.29s.14-.13.26-.13c.28.01.5.02.68.03.17,0,.34.01.51.02.17,0,.38,0,.64,0s.46,0,.63,0c.16,0,.33-.01.5-.02.17,0,.39-.02.66-.03.13,0,.22.04.27.13s.08.18.08.29c-.01.22-.06.34-.14.36-.08.03-.19.04-.33.04-.39,0-.67.07-.84.22s-.26.33-.29.55c-.03.22-.05.45-.07.7l-.04,9.6c-.01.1-.07.17-.18.2-.11.03-.21.05-.29.05-.24,0-.43-.08-.55-.25l-7.18-9.6h-.06l.04,7.56c.01.24.04.47.07.69.03.22.13.41.29.55s.44.22.84.22c.14,0,.25.01.34.04s.14.15.15.36c0,.1-.03.2-.09.29s-.14.13-.26.13c-.27-.01-.49-.02-.68-.03-.18,0-.36-.01-.53-.02-.17,0-.38,0-.64,0s-.46,0-.62,0c-.16,0-.32.01-.49.02-.17,0-.39.02-.67.03Z"/>
    </g>
  </g>
</svg>