<?xml version="1.0" encoding="UTF-8"?>
<svg id="_レイヤー_2" data-name="レイヤー 2" xmlns="http://www.w3.org/2000/svg" viewBox="0 0 247.4 51.92">
  <defs>
    <style>
      .cls-1 {
        fill: #f2e7da;
        stroke-width: 0px;
      }
    </style>
  </defs>
  <g id="text">
    <g>
      <g>
        <path class="cls-1" d="m44.17,51.92c-2.5,0-4.42-.44-5.76-1.31-1.34-.88-2.02-2.17-2.02-3.87,0-.86.29-1.58.88-2.14.59-.56,1.35-.85,2.29-.85.62.02,1.06.18,1.31.47s.38.5.38.65c0,.05-.11.13-.32.23-.22.11-.43.3-.65.58-.22.28-.32.7-.32,1.28,0,1.08.34,1.94,1.01,2.57.67.64,1.74.95,3.2.95,1.03,0,1.91-.2,2.65-.59.73-.4,1.29-.91,1.67-1.55.38-.64.58-1.29.58-1.96,0-1.01-.29-1.84-.86-2.48-.58-.65-1.33-1.21-2.25-1.67s-1.9-.92-2.93-1.35c-1.03-.43-2.01-.92-2.93-1.48-.92-.55-1.69-1.24-2.29-2.07-.6-.83-.91-1.87-.94-3.11-.02-1.51.3-2.74.97-3.69.67-.95,1.61-1.64,2.81-2.09,1.2-.44,2.53-.67,4-.67,1.08,0,2.14.16,3.19.47,1.04.31,1.91.8,2.59,1.46s1.03,1.53,1.03,2.61c0,.86-.29,1.58-.88,2.14-.59.56-1.35.85-2.29.85-.62-.05-1.06-.21-1.31-.49-.25-.28-.38-.49-.38-.63,0-.07.14-.16.43-.27.29-.11.58-.3.86-.58.29-.28.43-.69.43-1.24,0-.91-.35-1.61-1.04-2.11-.7-.49-1.56-.74-2.59-.74-1.56,0-2.69.37-3.4,1.1-.71.73-1.06,1.55-1.06,2.47s.24,1.61.72,2.16c.48.55,1.2,1.09,2.16,1.62,1.08.58,2.17,1.11,3.28,1.6,1.1.49,2.13,1.04,3.08,1.64.95.6,1.71,1.35,2.29,2.25.58.9.86,2.06.86,3.47,0,1.22-.38,2.32-1.13,3.28s-1.77,1.72-3.04,2.27c-1.27.55-2.69.83-4.25.83Z"/>
        <path class="cls-1" d="m63.61,51.31c-.22,0-.37-.08-.47-.25-.1-.17-.14-.35-.14-.54.02-.41.12-.64.29-.68.17-.05.37-.07.61-.07.77,0,1.31-.14,1.62-.41.31-.28.51-.62.59-1.04.08-.42.13-.86.13-1.31v-14.29c0-.46-.04-.89-.13-1.31-.08-.42-.28-.77-.59-1.04-.31-.28-.85-.41-1.62-.41-.24,0-.44-.02-.61-.07-.17-.05-.26-.28-.29-.68,0-.19.05-.37.14-.54.1-.17.25-.25.47-.25.79.02,1.52.05,2.2.07.67.02,1.37.04,2.09.04h11.3c.26,0,.49.06.67.18s.27.35.27.68l.11,5.04c0,.24-.11.42-.34.54-.23.12-.44.18-.63.18-.26,0-.5-.05-.72-.16-.22-.11-.35-.27-.4-.49-.17-1.08-.37-1.95-.59-2.61-.23-.66-.56-1.14-1.01-1.44-.44-.3-1.09-.46-1.93-.49h-4.82v9.14h6.52c.19.02.33.12.41.29.08.17.13.35.13.54,0,.17-.04.33-.13.49-.08.16-.22.23-.41.23h-6.52v6.8c.02.31.07.65.14,1.03.07.37.28.69.63.95.35.26.93.38,1.75.36h3.31c.84-.02,1.48-.16,1.93-.41.44-.25.8-.68,1.06-1.28s.55-1.43.86-2.48c.1-.24.26-.4.49-.47.23-.07.47-.08.74-.04.19.02.39.11.59.25.2.14.29.34.27.58l-.72,4.54c-.07.34-.19.55-.34.63-.16.08-.39.13-.7.13h-11.88c-.72,0-1.42,0-2.11.02s-1.42.04-2.21.09Z"/>
        <path class="cls-1" d="m90.25,51.31c-.24,0-.41-.08-.5-.25-.1-.17-.14-.35-.14-.54.02-.41.12-.64.29-.68s.37-.07.61-.07c.65,0,1.14-.13,1.48-.4.34-.26.61-.61.81-1.04.2-.43.4-.88.59-1.33l6.3-14.9c.24-.58.29-1.01.14-1.31-.14-.3-.38-.52-.72-.65s-.71-.23-1.12-.31c-.36-.07-.6-.14-.72-.2s-.18-.27-.18-.63c0-.41.14-.63.43-.67.29-.04.62-.05,1.01-.05.98,0,1.82.1,2.52.29.7.19,1.3.56,1.8,1.1s.97,1.35,1.4,2.43l6.05,14.9c.17.41.35.83.54,1.26.19.43.45.79.77,1.06.32.28.74.43,1.24.45.26,0,.47.02.63.07.16.05.25.28.27.68,0,.19-.05.37-.16.54-.11.17-.27.25-.49.25-.77-.05-1.44-.08-2.02-.09s-1.22-.02-1.94-.02c-1.42,0-2.9.04-4.46.11-.24,0-.41-.08-.5-.25-.1-.17-.14-.35-.14-.54.02-.41.12-.64.29-.68.17-.05.37-.07.61-.07,1.18,0,1.82-.22,1.93-.65.11-.43,0-1.14-.34-2.12l-1.22-2.99h-8.89c-.36.91-.62,1.57-.77,1.98-.16.41-.25.67-.29.79-.04.12-.07.19-.09.22-.26.82-.4,1.42-.41,1.82-.01.4.18.65.58.77s1.06.18,2,.18c.26,0,.47.02.63.07s.25.28.27.68c0,.19-.05.37-.16.54-.11.17-.27.25-.49.25-.77-.05-1.43-.08-2-.09s-1.21-.02-1.93-.02c-.48,0-.88,0-1.21.02-.32.01-.65.02-.99.04-.34.01-.77.03-1.3.05Zm6.84-8.86h7.56l-3.64-9.25h-.11l-3.82,9.25Z"/>
        <path class="cls-1" d="m122.93,51.31c-.24,0-.41-.08-.5-.25-.1-.17-.14-.35-.14-.54.02-.41.12-.64.29-.68.17-.05.37-.07.61-.07.77,0,1.31-.14,1.62-.41.31-.28.51-.62.59-1.04.08-.42.13-.86.13-1.31v-14.26c0-.46-.04-.9-.13-1.33-.08-.43-.28-.79-.59-1.06-.31-.28-.85-.41-1.62-.41-.24,0-.44-.02-.61-.07-.17-.05-.26-.28-.29-.68,0-.19.05-.37.14-.54.1-.17.26-.25.5-.25.77.02,1.49.05,2.18.07s1.39.04,2.11.04h6.19c1.94.02,3.52.32,4.73.9s2.09,1.31,2.65,2.2.83,1.81.83,2.77c0,1.27-.51,2.47-1.53,3.6-1.02,1.13-2.45,1.93-4.3,2.41.91,1.44,1.84,2.89,2.77,4.34s2.02,2.81,3.24,4.09c.34.26.67.48.99.65.32.17.71.28,1.17.32.19.02.38.05.58.09.19.04.3.26.32.67,0,.19-.05.37-.14.54-.1.17-.26.25-.5.25-.5-.02-.91-.04-1.21-.05-.3-.01-.59-.02-.88-.04-.29-.01-.67-.02-1.15-.02-.98-.19-1.82-.54-2.5-1.04s-1.35-1.2-2-2.09c-.67-.91-1.3-1.84-1.87-2.77-.58-.94-1.14-1.85-1.69-2.74-.31-.5-.63-.87-.95-1.1-.32-.23-.93-.34-1.82-.34h-1.04v5.87c.02.46.07.89.14,1.31.07.42.27.77.59,1.04.32.28.86.41,1.6.41.24,0,.44.02.61.07.17.05.26.28.29.68,0,.19-.05.37-.14.54-.1.17-.26.25-.5.25-1.54-.07-3.04-.11-4.5-.11-.72,0-1.42,0-2.09.02-.67.01-1.39.04-2.16.09Zm6.16-11.59h3.17c1.22,0,2.19-.17,2.9-.5.71-.34,1.24-.77,1.6-1.3.36-.53.59-1.08.7-1.66.11-.58.16-1.1.16-1.58,0-.79-.17-1.56-.52-2.3-.35-.74-.96-1.36-1.84-1.84-.88-.48-2.09-.72-3.65-.72-1.03,0-1.71.2-2.03.59-.32.4-.49,1.19-.49,2.39v6.91Z"/>
        <path class="cls-1" d="m164.98,51.92c-2.02,0-3.86-.48-5.54-1.44-1.68-.96-3.03-2.33-4.05-4.1-1.02-1.78-1.53-3.9-1.53-6.37s.48-4.59,1.44-6.43,2.32-3.26,4.09-4.28c1.76-1.02,3.85-1.53,6.25-1.53.86,0,1.76.08,2.68.25.92.17,1.78.45,2.57.85.79.4,1.43.92,1.93,1.57.49.65.74,1.45.74,2.41.02,1.03-.29,1.94-.94,2.72-.65.78-1.56,1.17-2.74,1.17-.72,0-1.23-.17-1.53-.52s-.44-.61-.41-.77c0-.07.15-.2.45-.38.3-.18.6-.46.9-.83.3-.37.45-.87.45-1.49,0-1.08-.36-1.94-1.08-2.57-.72-.64-1.74-.95-3.06-.95-1.44,0-2.73.41-3.87,1.22-1.14.82-2.03,2.01-2.68,3.58-.65,1.57-.97,3.5-.97,5.78,0,1.92.34,3.67,1.03,5.24.68,1.57,1.64,2.82,2.88,3.74,1.24.92,2.67,1.39,4.3,1.39,1.3,0,2.41-.27,3.33-.81s1.76-1.41,2.5-2.61c.22-.41.6-.44,1.15-.11.22.14.38.32.5.52s.1.41-.07.63c-.91,1.15-1.78,2.02-2.59,2.61-.82.59-1.7.99-2.66,1.21s-2.11.32-3.46.32Z"/>
        <path class="cls-1" d="m184.49,51.31c-.24,0-.41-.08-.5-.25-.1-.17-.14-.35-.14-.54.02-.41.12-.64.29-.68s.37-.07.61-.07c.77,0,1.31-.14,1.62-.41.31-.28.51-.62.59-1.04.08-.42.13-.86.13-1.31v-14.29c0-.46-.04-.89-.13-1.31-.08-.42-.28-.77-.59-1.04-.31-.28-.85-.41-1.62-.41-.24,0-.44-.02-.61-.07-.17-.05-.26-.28-.29-.68,0-.19.05-.37.14-.54.1-.17.26-.25.5-.25.77.02,1.49.05,2.16.07.67.02,1.37.04,2.09.04,1.46,0,2.96-.04,4.5-.11.24,0,.41.08.5.25.1.17.14.35.14.54-.02.41-.11.64-.27.68-.16.05-.37.07-.63.07-.74,0-1.28.14-1.6.41-.32.28-.52.62-.59,1.04s-.12.86-.14,1.31v6.37h11.3v-6.37c0-.46-.04-.89-.13-1.31-.08-.42-.28-.77-.59-1.04-.31-.28-.85-.41-1.62-.41-.24,0-.45-.02-.63-.07-.18-.05-.28-.28-.31-.68,0-.19.05-.37.16-.54s.27-.25.49-.25c1.56.07,3.06.11,4.5.11.72,0,1.42-.01,2.11-.04.68-.02,1.41-.05,2.18-.07.22,0,.38.08.49.25.11.17.16.35.16.54-.02.41-.12.64-.29.68-.17.05-.37.07-.61.07-.74,0-1.28.14-1.62.41-.34.28-.54.62-.61,1.04s-.12.86-.14,1.31v14.29c.02.46.07.89.14,1.31.07.42.28.77.61,1.04.33.28.88.41,1.62.41.24,0,.44.02.61.07s.26.28.29.68c0,.19-.05.37-.16.54-.11.17-.27.25-.49.25-.77-.05-1.5-.08-2.2-.09-.7-.01-1.4-.02-2.12-.02-1.42,0-2.9.04-4.46.11-.22,0-.38-.08-.49-.25-.11-.17-.16-.35-.16-.54.02-.41.13-.64.31-.68.18-.05.39-.07.63-.07.77,0,1.31-.14,1.62-.41.31-.28.51-.62.59-1.04.08-.42.13-.86.13-1.31v-6.37h-11.3v6.37c.02.46.07.89.14,1.31.07.42.27.77.59,1.04.32.28.86.41,1.6.41.26,0,.47.02.63.07.16.05.25.28.27.68,0,.19-.05.37-.14.54-.1.17-.26.25-.5.25-1.54-.07-3.02-.11-4.46-.11-.72,0-1.42,0-2.11.02s-1.41.04-2.18.09Z"/>
      </g>
      <path class="cls-1" d="m9.15,37.96c-.42-.8-.74-1.75-1.65-8.4-.91,6.66-1.23,7.61-1.65,8.4-.55.61-1.21,1.06-5.85,2.37,4.63,1.31,5.29,1.77,5.85,2.37.42.8.74,1.75,1.65,8.4.91-6.66,1.23-7.61,1.65-8.4.55-.61,1.21-1.06,5.85-2.37-4.63-1.31-5.29-1.77-5.85-2.37Z"/>
      <path class="cls-1" d="m241.17,37.81c-.45-.85-.79-1.86-1.76-8.96-.97,7.1-1.31,8.11-1.76,8.96-.59.65-1.29,1.13-6.24,2.53,4.94,1.4,5.65,1.88,6.24,2.53.45.85.79,1.86,1.76,8.96.97-7.1,1.31-8.11,1.76-8.96.59-.65,1.3-1.13,6.24-2.53-4.94-1.4-5.65-1.88-6.24-2.53Z"/>
      <g>
        <path class="cls-1" d="m89.98,13.23c.03.07.06.14.08.21.02.06.04.11.06.13.01.08-.03.17-.11.27-.09.1-.2.17-.34.21-.05.02-.11.01-.16-.02-.06-.03-.09-.06-.11-.11-.1-.38-.19-.75-.28-1.11-.09-.36-.23-.82-.41-1.4-.37-1.15-.75-2.31-1.12-3.46-.26-.8-.51-1.43-.77-1.91.33.03.66.07.98.1,1.51-.48,3.03-.93,4.56-1.34.04-.09.07-.17.11-.26,0-.02.02-.06.05-.11.02-.05.05-.09.07-.12.02-.03.05-.04.08-.05.04-.01.14,0,.3.06.16.05.31.11.45.19.14.07.22.13.23.18-.06.1-.18.2-.39.3.42,1.6.85,3.2,1.27,4.81.22.79.45,1.55.68,2.25-.04.08-.11.17-.22.27-.11.1-.22.17-.33.2-.04.01-.08,0-.11-.03-.03-.03-.06-.07-.07-.13-.02-.12-.04-.24-.05-.36-.02-.09-.05-.18-.07-.27-1.49.4-2.96.84-4.44,1.3.02.07.04.13.06.2Zm3.37-5.18c-.27-1-.54-1.99-.81-2.99-1.58.43-3.15.89-4.71,1.39.31.99.62,1.97.94,2.96,1.52-.48,3.05-.93,4.59-1.35Zm-4.5,1.63c.33,1.03.65,2.05.98,3.08,1.48-.47,2.96-.9,4.45-1.31-.28-1.04-.56-2.08-.85-3.12-1.53.42-3.06.86-4.58,1.35Z"/>
        <path class="cls-1" d="m103.01,3.72c-.4.08-.82.2-1.25.37-.12-.15-.24-.29-.36-.44.4-.04.88-.1,1.43-.18.63-.11,1.26-.22,1.89-.32.05-.1.1-.2.15-.31.02-.03.04-.07.07-.13.03-.06.06-.1.08-.13.03-.03.05-.05.08-.05.04,0,.14.03.29.1.15.07.29.16.42.25.13.09.2.16.21.21-.01.1-.09.17-.23.19-.93.14-1.86.29-2.78.46Zm1.08-2.05s.04-.07.07-.13c.03-.06.06-.1.08-.13.03-.03.05-.05.08-.05.04,0,.14.03.28.1.14.07.28.15.41.24.13.09.2.16.2.2-.01.11-.09.18-.25.2-.45.07-.91.14-1.36.22-.51.09-1.04.23-1.59.42-.12-.15-.24-.3-.36-.45.4-.03.89-.09,1.45-.18.27-.05.54-.09.81-.14.05-.1.11-.2.16-.3Zm-.74,3.29c-.28.05-.57.15-.86.3-.12-.15-.24-.3-.36-.45.39-.03.87-.09,1.42-.17.3-.05.6-.1.9-.15.05-.09.09-.18.14-.28.02-.04.06-.09.1-.17.04-.07.08-.11.13-.12.07-.01.22.05.45.19.23.14.35.25.36.32-.01.11-.09.18-.24.2-.68.11-1.36.22-2.03.34Zm.22,1.25c-.28.06-.56.15-.85.29-.12-.15-.23-.3-.35-.45.39-.03.86-.09,1.4-.17.3-.05.59-.1.89-.15.05-.09.09-.18.14-.28.02-.04.06-.09.1-.17.04-.08.08-.12.13-.12.07-.01.22.05.44.19.23.14.34.25.36.32-.01.11-.09.18-.24.2-.67.11-1.34.22-2.01.33Zm.38,4.13s-.04.09-.14.16c-.1.07-.21.11-.33.14-.04,0-.08,0-.12-.04-.04-.03-.06-.08-.07-.13-.02-.27-.06-.61-.12-1.01-.04-.2-.07-.41-.11-.61-.14-.74-.29-1.35-.47-1.84.28.07.57.13.85.2.5-.09,1-.17,1.5-.26.04-.07.08-.14.12-.21.02-.02.04-.06.08-.12.04-.06.08-.09.12-.1.04,0,.13.02.27.08.14.06.27.13.39.21.12.08.19.14.19.19-.07.11-.2.19-.38.26.04.28.09.56.13.84.12.67.22,1.2.31,1.6-.03.06-.11.13-.22.21-.11.08-.22.13-.31.14-.03,0-.06,0-.09.01-.03-.15-.05-.31-.08-.46-.54.09-1.08.18-1.61.28.03.16.06.31.08.47Zm-.5-2.83c.12.69.24,1.37.37,2.06.54-.1,1.08-.19,1.62-.28-.11-.69-.22-1.38-.34-2.06-.55.09-1.1.18-1.65.28Zm5.97-6.47s.05-.08.09-.15c.04-.07.09-.11.13-.11.04,0,.14.03.28.11.14.08.27.17.4.26.12.1.19.17.19.21-.08.1-.22.18-.42.25.04.36.08.73.12,1.09.12.91.23,1.61.31,2.11-.04.06-.12.13-.25.21-.13.07-.24.12-.34.13-.03,0-.07,0-.1.01-.02-.15-.04-.3-.05-.46-.86.1-1.73.21-2.59.34.18,1.25.35,2.51.53,3.76.02.11.05.17.12.2.07.03.21.02.43,0,.4-.05.79-.11,1.19-.16.64-.08,1.01-.13,1.11-.15.06-.01.1-.03.13-.06.03-.02.05-.06.06-.12.05-.17.1-.68.16-1.53.04,0,.08,0,.12-.01.07.52.13,1.03.2,1.55.11.03.19.06.24.09.05.04.08.09.08.15.01.11-.04.19-.14.26-.11.07-.31.13-.6.19-.3.06-.74.13-1.32.2-.42.05-.83.11-1.25.16-.29.04-.51.05-.66.03-.15-.02-.27-.07-.34-.16-.07-.09-.12-.23-.15-.42-.12-.84-.25-1.68-.37-2.52-.12-.83-.27-1.5-.44-2.01.32.08.65.15.97.23.82-.12,1.64-.22,2.47-.32-.11-.95-.22-1.9-.34-2.85-.54.06-1.08.13-1.62.2-.51.07-1.04.2-1.6.36-.12-.15-.24-.31-.36-.46.4-.02.89-.06,1.45-.13.66-.09,1.33-.18,2-.25.05-.08.1-.17.15-.25Z"/>
        <path class="cls-1" d="m125.83,2.62c.18.14.26.33.26.57,0,.3-.15.55-.43.76-.28.2-.66.4-1.13.58-.26.1-.52.19-.78.29-.52.19-.86.32-1.04.4-.02.14-.03.36-.03.66,0,.47,0,.74,0,.8,0,.1-.05.19-.13.26-.08.07-.16.11-.25.11-.08,0-.16-.04-.22-.11-.06-.07-.1-.16-.1-.25,0-.07,0-.2.03-.39.02-.26.04-.51.06-.77-.4.22-.71.45-.93.68-.22.24-.33.5-.32.79.01.51.54.75,1.57.74.16,0,.32-.01.48-.04.16-.03.32-.06.46-.09.27-.06.48-.09.64-.09.27,0,.4.09.4.27,0,.2-.19.34-.58.41-.38.08-.78.12-1.19.12-.85,0-1.42-.11-1.71-.35-.29-.24-.44-.55-.45-.91,0-.37.13-.71.42-.99.29-.29.7-.57,1.23-.84,0-.07,0-.18,0-.31,0-.7-.23-1.05-.67-1.04-.25,0-.52.15-.79.45-.27.29-.53.61-.78.96-.02.03-.07.1-.14.21-.07.11-.14.2-.21.27-.07.07-.13.1-.17.11-.12,0-.21-.04-.28-.12-.07-.08-.1-.19-.11-.31,0-.16.03-.28.1-.36.06-.06.12-.11.18-.17.22-.21.4-.39.56-.56.16-.17.3-.35.42-.56.35-.59.63-1.21.84-1.88-.28.08-.55.12-.83.13-.24,0-.44-.03-.61-.09-.17-.07-.37-.18-.6-.34-.03-.02-.04-.04-.05-.06,0-.03.02-.04.05-.04.03,0,.08,0,.15.03.23.07.48.1.74.1.13,0,.31-.02.54-.06.23-.04.48-.1.75-.2.05-.19.07-.35.07-.49,0-.27-.12-.48-.35-.64-.04-.03-.06-.05-.06-.08,0-.1.06-.15.17-.15.07,0,.19.02.37.05.18.04.3.08.34.14.04.04.06.11.06.22,0,.04,0,.11-.02.2.12.07.27.11.47.11.1,0,.18-.01.23-.03.07-.01.14-.02.22-.02.17,0,.25.06.25.17,0,.09-.06.18-.17.29-.11.11-.25.2-.42.28-.23.12-.53.25-.89.38-.25.78-.49,1.42-.73,1.94.2-.12.4-.18.6-.18.35,0,.62.08.81.26.2.18.33.42.39.73.13-.28.26-.53.41-.74.15-.21.33-.42.54-.63.21-.21.48-.39.79-.55.32-.15.62-.22.9-.22.24,0,.44.08.62.22Zm-4.17-1.45s.09-.04.13-.07c.04-.02.07-.04.1-.06.05-.03.07-.05.07-.08,0-.03-.03-.06-.09-.1-.04-.02-.08-.05-.12-.07,0,.02-.03.14-.09.37Zm3.47,2.37c.22-.23.33-.41.34-.56,0-.19-.13-.29-.4-.3-.19,0-.42.06-.67.18-.25.12-.48.29-.7.48-.19.18-.38.42-.55.72-.18.3-.3.57-.38.81,0,0,0,0,0,0,.05-.02.09-.04.14-.06.07-.03.15-.07.22-.1.57-.27.95-.45,1.15-.56.35-.19.63-.4.85-.62Z"/>
        <path class="cls-1" d="m136.54,2.55s.06-.06.11-.11c.05-.05.09-.09.12-.11.03-.02.06-.03.09-.03.04,0,.13.07.25.18.12.11.23.24.33.36.1.13.14.21.14.26-.03.1-.13.15-.29.13-.42-.05-.85-.1-1.27-.15-.03.29-.06.58-.1.86,0,0,0,0,.01,0,.43.26.74.53.93.8.18.27.26.51.24.71-.01.11-.05.19-.12.25-.06.06-.14.08-.22.07-.08-.01-.17-.05-.25-.13-.07-.4-.27-.89-.61-1.49-.1.92-.21,1.84-.31,2.76-.08.82-.14,1.6-.18,2.34-.05.07-.13.13-.25.17-.12.05-.24.06-.34.05-.07,0-.12-.03-.17-.08-.04-.04-.06-.09-.06-.15.07-.39.13-.76.19-1.13.06-.37.12-.85.2-1.44.07-.61.13-1.22.2-1.83-.46.86-1.04,1.6-1.73,2.22-.04-.05-.08-.1-.12-.15.8-.98,1.44-2.28,1.92-3.92-.15-.02-.29-.03-.44-.05-.24-.02-.5,0-.76.07-.08-.18-.15-.36-.23-.54.3.07.66.13,1.09.19.17.02.34.03.5.05.01-.11.02-.23.04-.34.09-.84.11-1.52.08-2.05.39.15.66.27.81.35.15.09.23.16.22.2,0,.03-.04.06-.1.09-.07.03-.13.06-.2.09-.06.58-.13,1.15-.19,1.73.09.01.19.02.28.03.07-.09.15-.17.22-.26Zm5.08,2.45s.06-.06.12-.11c.05-.05.1-.07.14-.06.07.01.18.11.34.3.15.19.23.32.21.39-.06.06-.19.09-.38.1-.04.23-.08.47-.12.7-.08.57-.14,1.02-.16,1.35-.05.05-.13.1-.24.13-.12.03-.24.04-.37.01-.03,0-.07-.01-.1-.02.02-.12.04-.25.06-.37-.43-.07-.87-.14-1.3-.2.16.59.45,1.1.87,1.55.41.45.91.79,1.51,1.04,0,.04-.01.08-.02.12-.29.03-.5.2-.62.5-.57-.35-1.01-.79-1.32-1.31-.31-.52-.52-1.16-.63-1.92-.23.64-.62,1.16-1.17,1.57-.55.41-1.35.7-2.42.89-.02-.05-.05-.11-.07-.16.88-.26,1.56-.57,2.03-.96.47-.39.81-.86,1.02-1.43-.41-.06-.83-.12-1.24-.17-.01.1-.03.19-.04.29,0,.03-.06.07-.16.1-.1.03-.22.04-.36.02-.05,0-.08-.03-.11-.07-.02-.04-.03-.09-.02-.14.04-.18.08-.37.11-.55.01-.11.03-.19.04-.26.02-.17.04-.34.06-.51.08-.64.11-1.16.09-1.57.27.15.53.31.8.47.41.05.82.11,1.23.17.04-.31.09-.61.13-.92-.16-.02-.31-.04-.47-.07-.26-.03-.54-.02-.83.03-.07-.18-.14-.35-.21-.53.39.09.85.18,1.41.27.41.06.82.12,1.23.18.08-.08.15-.15.23-.23.03-.03.07-.06.1-.09.03-.04.07-.07.11-.09.04-.03.07-.04.1-.03.07.01.2.12.38.34.18.22.27.36.26.43-.04.09-.14.13-.29.1-.46-.08-.92-.15-1.39-.22-.05.31-.09.61-.14.92.47.07.95.15,1.42.22.06-.06.12-.12.18-.18Zm-2.7-2.17c-.61.41-1.26.72-1.94.94-.02-.06-.04-.11-.07-.17.56-.25,1.12-.63,1.69-1.13.26-.23.5-.5.73-.81.23-.31.39-.6.48-.87.72.27,1.07.44,1.06.53,0,.02-.03.04-.1.05-.06.01-.12.02-.18.03.25.49.62.96,1.09,1.41.47.45.99.83,1.55,1.14-.01.04-.02.08-.03.13-.12.02-.23.07-.32.15-.09.08-.17.18-.23.3-.51-.41-.96-.87-1.35-1.4-.39-.53-.68-1.07-.87-1.64-.38.49-.88.94-1.5,1.35Zm.14,3.97c.06-.21.11-.47.15-.76.04-.3.09-.59.13-.89-.45-.07-.9-.13-1.36-.19-.07.55-.15,1.1-.22,1.66.43.06.86.12,1.29.18Zm2.09.32c.09-.55.18-1.1.27-1.65-.48-.08-.96-.15-1.45-.23-.04.29-.09.59-.13.88-.05.31-.1.56-.17.76.49.07.99.15,1.48.23Z"/>
        <path class="cls-1" d="m151.5,10.51c.2.16.29.27.28.32,0,.03-.05.04-.13.02-.06-.01-.12-.03-.18-.04-.38.2-.86.37-1.44.52-.58.16-1.15.26-1.7.3-.02-.06-.04-.11-.05-.17.38-.09.76-.21,1.15-.37.33-.12.65-.27.96-.47.32-.19.57-.39.76-.59.12.16.25.31.37.47Zm6.7-3.26c.35.57.5.89.48.97-.01.03-.05.04-.13.03-.06-.01-.13-.03-.19-.04-.21.15-.47.3-.77.45-.31.15-.6.26-.87.35-.03-.04-.06-.07-.09-.11.35-.35.66-.71.93-1.06-1.41-.44-2.83-.86-4.26-1.25.26.21.44.37.54.47.1.1.14.17.13.2,0,.03-.03.04-.06.04-.03,0-.05,0-.06,0-.07,0-.13,0-.2-.01-.29.15-.73.32-1.31.5.16.17.27.33.33.49.06.16.07.3.04.41-.02.09-.07.16-.14.2-.07.04-.14.05-.23.03-.07-.02-.12-.05-.17-.09-.05-.26-.2-.56-.44-.88-.24-.32-.5-.59-.77-.82.04-.03.07-.06.11-.09.44.17.79.36,1.06.57.19-.15.39-.32.58-.51.19-.19.34-.38.45-.55-.71-.19-1.43-.38-2.14-.56-.13.42-.31.7-.55.86-.24.16-.47.21-.69.16-.12-.03-.21-.08-.26-.15-.06-.07-.08-.15-.06-.24.02-.08.07-.16.16-.23.28-.04.54-.15.79-.35.25-.2.44-.48.59-.85.06.02.11.03.17.05-.02.21-.05.36-.07.45.97.24,1.93.5,2.89.76.1-.37.21-.75.31-1.12-.72-.2-1.44-.39-2.16-.58-.5-.12-1.04-.21-1.62-.26-.05-.19-.1-.38-.16-.56.38.13.85.27,1.4.43.87.22,1.75.45,2.62.69.12-.44.2-.81.23-1.11.63.37.92.6.9.69,0,.03-.05.06-.11.07-.07.02-.14.04-.21.05-.05.16-.09.32-.14.48.86.24,1.72.5,2.57.76.11-.07.21-.14.32-.21.04-.02.09-.05.15-.09.06-.04.11-.07.15-.09.04-.02.08-.02.1-.01.04.01.12.09.24.24.11.15.22.3.31.46.09.15.13.25.11.3-.06.09-.17.1-.32.05-1.23-.4-2.47-.77-3.72-1.12-.11.37-.21.74-.32,1.12.99.28,1.99.58,2.97.89.19-.1.38-.19.57-.29Zm-4.8,3.79c-.19.76-.33,1.34-.42,1.75-.06.04-.15.07-.26.09-.11.02-.24,0-.39-.03-.05-.01-.09-.05-.12-.09-.02-.05-.03-.1-.02-.15.19-.54.37-1.08.54-1.64.09-.31.17-.62.26-.93-.1-.02-.19-.04-.29-.06-.83-.15-1.75-.32-2.76-.5-.1.1-.21.14-.31.14-.06-.3-.13-.6-.19-.9.78.19,1.69.4,2.72.65.34-.15.78-.38,1.34-.68.72-.4,1.26-.78,1.62-1.15.44.45.65.71.63.78,0,.03-.04.03-.09.01-.06-.01-.11-.03-.17-.04-.36.18-.81.39-1.35.61-.54.22-1.06.41-1.57.57.33.08.97.24,1.92.49.5.13,1.01.27,1.51.41-.29-.49-.59-.88-.89-1.18.04-.03.08-.05.12-.08.49.29.88.58,1.16.87.28.3.46.57.55.82.09.25.11.45.06.61-.03.09-.08.15-.14.2-.07.04-.14.05-.23.02-.06-.02-.12-.06-.19-.12-.03-.24-.12-.52-.29-.84-.93-.19-1.76-.35-2.5-.5-.08.3-.17.6-.25.9Zm1.04.13c.6.3,1.08.6,1.43.92.35.32.58.61.7.88.12.27.15.48.1.65-.03.09-.08.15-.15.18-.07.03-.15.04-.24,0-.05-.01-.1-.04-.17-.09-.1-.35-.33-.77-.69-1.24-.36-.47-.73-.88-1.11-1.22.04-.03.08-.06.12-.09Z"/>
      </g>
    </g>
  </g>
</svg>