<?xml version="1.0" encoding="UTF-8"?>
<svg id="_レイヤー_2" data-name="レイヤー 2" xmlns="http://www.w3.org/2000/svg" viewBox="0 0 180.9 49.15">
  <defs>
    <style>
      .cls-1 {
        fill: #f2e7da;
        stroke-width: 0px;
      }
    </style>
  </defs>
  <g id="text">
    <g>
      <g>
        <path class="cls-1" d="m32.95,48.53c-.24,0-.41-.08-.5-.25-.1-.17-.14-.35-.14-.54.02-.41.12-.64.29-.68.17-.05.37-.07.61-.07.77,0,1.3-.14,1.6-.41.3-.28.49-.62.56-1.04.07-.42.11-.86.11-1.31l.07-14.29c0-1.13-.19-1.85-.58-2.16-.38-.31-1-.55-1.84-.72-.36-.07-.6-.14-.72-.2-.12-.06-.18-.27-.18-.63,0-.41.14-.63.43-.67s.62-.05,1.01-.05c1.34,0,2.43.11,3.26.32.83.22,1.56.6,2.2,1.15.64.55,1.33,1.33,2.07,2.34l9.86,12.96h.11l-.07-12.35c0-.46-.04-.89-.11-1.31-.07-.42-.26-.77-.56-1.04-.3-.28-.83-.41-1.6-.41-.24,0-.44-.02-.61-.07-.17-.05-.28-.28-.32-.68,0-.19.05-.37.16-.54s.27-.25.49-.25c.53.02.95.04,1.28.05.32.01.65.02.97.04.32.01.73.02,1.21.02s.88,0,1.19-.02c.31-.01.63-.02.95-.04.32-.01.74-.03,1.24-.05.24,0,.41.08.5.25.1.17.14.35.14.54-.02.41-.11.64-.27.68-.16.05-.37.07-.63.07-.74,0-1.27.14-1.58.41-.31.28-.5.62-.56,1.04-.06.42-.1.86-.13,1.31l-.07,18.14c-.02.19-.14.32-.34.38-.2.06-.39.09-.56.09-.46,0-.8-.16-1.04-.47l-13.57-18.14h-.11l.07,14.29c.02.46.07.89.13,1.31.06.42.25.77.56,1.04.31.28.84.41,1.58.41.26,0,.48.02.65.07.17.05.26.28.29.68,0,.19-.05.37-.16.54-.11.17-.27.25-.49.25-.5-.02-.93-.04-1.28-.05-.35-.01-.68-.02-1.01-.04-.32-.01-.73-.02-1.21-.02s-.87,0-1.17.02c-.3.01-.61.02-.92.04-.31.01-.73.03-1.26.05Z"/>
        <path class="cls-1" d="m77.62,49.15c-1.75,0-3.34-.32-4.75-.97-1.42-.65-2.63-1.52-3.64-2.63-1.01-1.1-1.78-2.36-2.3-3.76s-.79-2.87-.79-4.41c0-1.99.34-3.76,1.03-5.29.68-1.54,1.59-2.83,2.72-3.89,1.13-1.06,2.37-1.85,3.73-2.39,1.36-.54,2.69-.81,4.01-.81,1.8,0,3.41.32,4.84.97,1.43.65,2.65,1.52,3.65,2.63,1.01,1.1,1.78,2.36,2.3,3.76.53,1.4.79,2.86.79,4.37,0,1.99-.35,3.76-1.04,5.29-.7,1.54-1.62,2.83-2.77,3.89-1.15,1.06-2.41,1.86-3.76,2.41-1.36.55-2.69.83-4.01.83Zm-.04-1.58c1.7,0,3.1-.5,4.18-1.51s1.88-2.33,2.39-3.98c.52-1.64.77-3.43.77-5.35,0-1.8-.27-3.47-.81-5.02s-1.35-2.8-2.43-3.74c-1.08-.95-2.45-1.42-4.1-1.42s-3.05.5-4.12,1.49c-1.07,1-1.85,2.3-2.36,3.92-.5,1.62-.76,3.39-.76,5.31,0,1.8.26,3.49.77,5.06.52,1.57,1.31,2.84,2.39,3.8,1.08.96,2.44,1.44,4.07,1.44Z"/>
        <path class="cls-1" d="m104.55,48.53c-.24,0-.41-.08-.5-.25-.1-.17-.14-.35-.14-.54.02-.41.12-.64.29-.68.17-.05.37-.07.61-.07.77,0,1.31-.14,1.62-.41.31-.28.51-.62.59-1.04.08-.42.13-.86.13-1.31v-17.17h-2.48c-.82.02-1.45.2-1.91.52-.46.32-.79.83-1.01,1.51-.22.68-.41,1.57-.58,2.65-.02.22-.17.38-.45.49s-.55.16-.81.16c-.17,0-.35-.06-.56-.18-.2-.12-.31-.3-.31-.54l.11-5.08c0-.34.1-.56.29-.68.19-.12.42-.18.68-.18h17.6c.26,0,.49.06.67.18.18.12.27.35.27.68l.14,5.08c0,.24-.1.42-.31.54-.2.12-.4.18-.59.18-.24,0-.49-.05-.76-.16-.26-.11-.42-.27-.47-.49-.17-1.08-.37-1.96-.59-2.65-.23-.68-.56-1.19-1.01-1.51-.44-.32-1.09-.5-1.93-.52h-2.45v17.17c.02.46.07.89.14,1.31.07.42.27.77.59,1.04.32.28.86.41,1.6.41.24,0,.44.02.61.07.17.05.26.28.29.68,0,.19-.05.37-.14.54-.1.17-.26.25-.5.25-.77-.05-1.49-.08-2.18-.09-.68-.01-1.37-.02-2.07-.02-1.44,0-2.94.04-4.5.11Z"/>
        <path class="cls-1" d="m129.07,48.53c-.22,0-.37-.08-.47-.25-.1-.17-.14-.35-.14-.54.02-.41.12-.64.29-.68.17-.05.37-.07.61-.07.77,0,1.31-.14,1.62-.41.31-.28.51-.62.59-1.04.08-.42.13-.86.13-1.31v-14.29c0-.46-.04-.89-.13-1.31-.08-.42-.28-.77-.59-1.04-.31-.28-.85-.41-1.62-.41-.24,0-.44-.02-.61-.07-.17-.05-.26-.28-.29-.68,0-.19.05-.37.14-.54.1-.17.25-.25.47-.25.79.02,1.52.05,2.2.07.67.02,1.37.04,2.09.04h11.3c.26,0,.49.06.67.18.18.12.27.35.27.68l.11,5.04c0,.24-.11.42-.34.54-.23.12-.44.18-.63.18-.26,0-.5-.05-.72-.16-.22-.11-.35-.27-.4-.49-.17-1.08-.37-1.95-.59-2.61-.23-.66-.56-1.14-1.01-1.44-.44-.3-1.09-.46-1.93-.49h-4.82v9.14h6.52c.19.02.33.12.41.29.08.17.13.35.13.54,0,.17-.04.33-.13.49-.08.16-.22.23-.41.23h-6.52v6.8c.02.31.07.65.14,1.03.07.37.28.69.63.95.35.26.93.38,1.75.36h3.31c.84-.02,1.48-.16,1.93-.41.44-.25.8-.68,1.06-1.28.26-.6.55-1.43.86-2.48.1-.24.26-.4.49-.47.23-.07.47-.08.74-.04.19.02.39.11.59.25.2.14.29.34.27.58l-.72,4.54c-.07.34-.19.55-.34.63-.16.08-.39.13-.7.13h-11.88c-.72,0-1.42,0-2.11.02-.68.01-1.42.04-2.21.09Z"/>
      </g>
      <path class="cls-1" d="m9.15,35.19c-.42-.8-.74-1.75-1.65-8.4-.91,6.66-1.23,7.61-1.65,8.4-.55.61-1.21,1.06-5.85,2.37,4.63,1.31,5.29,1.77,5.85,2.37.42.8.74,1.75,1.65,8.4.91-6.66,1.23-7.61,1.65-8.4.55-.61,1.21-1.06,5.85-2.37-4.63-1.31-5.29-1.77-5.85-2.37Z"/>
      <path class="cls-1" d="m175.06,35.19c-.42-.8-.74-1.75-1.65-8.4-.91,6.66-1.23,7.61-1.65,8.4-.55.61-1.21,1.06-5.85,2.37,4.63,1.31,5.29,1.77,5.85,2.37.42.8.74,1.75,1.65,8.4.91-6.66,1.23-7.61,1.65-8.4.55-.61,1.21-1.06,5.85-2.37-4.63-1.31-5.29-1.77-5.85-2.37Z"/>
      <g>
        <path class="cls-1" d="m37.47,11.03s.03-.08.04-.14c.02-.06.03-.11.05-.15.02-.03.04-.05.06-.06.04-.01.14.01.31.08.16.06.32.14.47.22.15.09.23.15.25.2-.05.11-.19.22-.42.32.27.86.53,1.71.8,2.57.3.18.6.3.9.35.3.05.63.04.99-.02.36-.06.85-.18,1.44-.36,1.77-.51,3.05-.87,3.82-1.1.01.05.02.09.04.14-.13.06-.22.15-.28.26-.06.11-.08.24-.06.39-1.12.3-2.23.61-3.34.93-.61.18-1.11.29-1.51.33-.4.04-.76.01-1.08-.09-.32-.1-.65-.3-.99-.59-.1.26-.23.54-.39.87-.16.32-.3.6-.42.82.01,0,.02.03.03.06.02.06,0,.12-.05.18-.23-.21-.46-.41-.7-.62.25-.24.61-.63,1.07-1.16-.3-.95-.6-1.9-.9-2.85-.14.04-.28.09-.42.13-.23.08-.45.2-.68.36-.13-.14-.26-.27-.39-.41.25-.04.54-.1.87-.2.13-.04.27-.09.4-.13.02-.11.05-.22.07-.33Zm-1.84-3.1c.65,0,1.16.1,1.53.3.37.2.59.42.67.67.04.12.04.23,0,.33-.04.1-.11.16-.2.19-.09.03-.2.03-.31,0-.14-.26-.38-.52-.73-.77-.34-.25-.69-.45-1.04-.6.03-.03.06-.07.09-.1Zm8.12.46s.02-.06.04-.11c.02-.05.03-.09.05-.11.02-.03.04-.04.06-.05.04-.01.13,0,.27.06.14.05.28.11.4.19.13.07.19.13.21.18-.02.04-.06.09-.12.14-.06.05-.12.09-.2.12.28,1.06.57,2.12.85,3.18.04.15.06.29.04.39-.01.11-.07.21-.18.3-.1.09-.27.18-.5.27-.06-.16-.14-.26-.23-.3-.12-.05-.33-.06-.63-.02-.01-.05-.03-.1-.04-.14.44-.09.71-.14.81-.17.06-.02.1-.04.11-.07.02-.03.02-.08,0-.13-.29-1.07-.58-2.14-.87-3.2-1.45.39-2.9.81-4.35,1.24.13.43.26.87.39,1.3.25.79.5,1.53.76,2.23-.03.08-.09.16-.18.24-.09.08-.19.14-.31.18-.05.01-.09,0-.13-.02-.04-.03-.07-.07-.09-.12-.08-.37-.21-.86-.37-1.48-.08-.27-.17-.55-.25-.82-.24-.8-.49-1.44-.73-1.92.29.04.58.07.88.11.05-.02.11-.03.16-.05-.11-.38-.23-.77-.34-1.15-.24-.8-.48-1.45-.72-1.92.32.03.63.05.95.08.82-.24,1.64-.48,2.47-.71.03-.08.06-.16.09-.24,0-.02.02-.06.04-.11.02-.05.04-.09.06-.11.02-.03.04-.04.07-.05.04-.01.14,0,.3.05.16.04.31.1.45.16.14.07.22.12.23.17-.03.06-.07.12-.13.16-.06.05-.15.09-.28.14.22.81.44,1.62.66,2.43.07-.02.15-.04.22-.06.03-.08.05-.16.08-.24Zm-4.29-1.27c.25.83.49,1.66.74,2.49.35-.1.69-.2,1.04-.3-.21-.74-.43-1.35-.66-1.83.3.04.59.07.89.11.32-.09.64-.18.96-.27-.09-.32-.18-.65-.27-.97-.9.25-1.79.51-2.69.77Zm3.12,2.75s.03-.07.05-.13c.03-.06.06-.1.1-.11.07-.02.21.02.41.11.21.09.32.18.34.25-.01.04-.04.08-.1.13-.05.05-.11.09-.18.11.05.19.11.39.16.58.04.11.07.23.11.34.08.27.16.51.25.74-.01.07-.06.14-.16.23-.1.09-.19.14-.28.17-.03,0-.05.01-.08.02-.04-.15-.08-.3-.13-.45-.46.13-.91.26-1.37.39.04.13.08.27.12.4,0,.03-.03.08-.12.15-.09.07-.18.13-.28.16-.04.01-.08,0-.12-.03-.04-.03-.06-.07-.08-.12-.03-.17-.06-.33-.1-.48-.02-.07-.04-.15-.05-.22-.04-.15-.09-.29-.13-.44-.16-.54-.32-.98-.49-1.34.26.04.51.08.77.12.42-.12.85-.24,1.27-.36.02-.07.05-.14.07-.21Zm-1.31.85c.12.42.24.83.36,1.25.46-.13.91-.26,1.37-.39-.12-.42-.23-.83-.35-1.25-.46.13-.92.26-1.38.4Zm.15-2.81c.12.41.24.83.35,1.24.36-.1.71-.2,1.07-.3-.11-.41-.23-.83-.34-1.24-.36.1-.72.2-1.08.3Z"/>
        <path class="cls-1" d="m58.13,3.48s.05-.09.09-.16c.03-.07.06-.12.09-.15.02-.03.05-.05.08-.06.04,0,.15.03.32.11.17.08.33.17.48.27.15.1.23.17.24.22,0,.11-.08.18-.22.2-1.11.19-2.22.39-3.32.6.13.69.26,1.38.39,2.07.93-.18,1.85-.34,2.78-.5.06-.12.12-.24.17-.35.02-.04.05-.09.08-.16.03-.07.06-.12.09-.16.03-.04.05-.05.08-.06.04,0,.15.03.32.11.17.08.33.18.49.28.15.1.24.18.24.22-.01.11-.09.18-.23.2-1.43.24-2.86.49-4.28.76-.18.62-.39,1.28-.64,1.95-.25.68-.48,1.25-.71,1.73.88-.25,2.35-.69,4.44-1.26-.57-.54-1.22-1.03-1.95-1.48.04-.04.07-.07.11-.11.75.23,1.38.49,1.88.79.5.3.87.6,1.12.89.24.3.38.56.42.79.02.13.01.23-.03.31-.04.08-.11.13-.2.15-.09.02-.2,0-.31-.06-.17-.32-.45-.69-.86-1.11-1.51.59-3.43,1.31-5.75,2.18-.04.12-.1.21-.2.27-.21-.28-.42-.55-.63-.82.27-.07.82-.22,1.63-.45.14-.49.28-1.08.43-1.76.14-.68.25-1.29.32-1.83-.62.12-1.24.25-1.86.38-.48.11-.99.26-1.51.47-.12-.15-.24-.29-.37-.44.38-.04.84-.12,1.38-.22.95-.2,1.9-.4,2.86-.58-.13-.69-.27-1.38-.4-2.07-.57.11-1.13.22-1.7.34-.49.11-1,.26-1.53.46-.13-.15-.26-.3-.39-.45.39-.04.86-.12,1.4-.22.72-.15,1.44-.29,2.16-.43-.14-.74-.31-1.35-.49-1.82.75.04,1.14.12,1.16.22,0,.03-.02.07-.07.11-.05.05-.11.09-.16.14.08.41.15.81.23,1.22.71-.14,1.42-.27,2.13-.39.06-.12.12-.23.18-.35Z"/>
        <path class="cls-1" d="m73.2,1.76c.61.18,1.14.51,1.58.99.44.48.69,1.11.74,1.91.07,1.04-.2,1.85-.81,2.45-.61.6-1.27,1.01-1.99,1.23-.72.23-1.32.37-1.82.42-.09,0-.14,0-.15-.04,0-.04.13-.1.39-.17,1.14-.31,2.04-.78,2.73-1.4.68-.62.99-1.45.92-2.48-.05-.7-.25-1.27-.61-1.7-.35-.43-.79-.73-1.3-.9-.51-.17-1.03-.23-1.57-.18-.12.01-.21.02-.26.04.11.16.2.37.27.61.07.24.12.46.14.66.05.49-.03,1.07-.21,1.73-.17.61-.38,1.15-.63,1.61-.25.46-.49.82-.74,1.07-.24.25-.45.39-.61.4-.24.03-.49-.07-.73-.28-.24-.21-.45-.5-.62-.87-.17-.37-.28-.76-.33-1.18-.09-.72.03-1.38.37-1.98.33-.6.81-1.1,1.43-1.47.62-.37,1.29-.6,2.01-.66.59-.05,1.19,0,1.8.19Zm-2.31.2c-.54.12-1.03.35-1.47.69-.44.34-.77.76-.99,1.26-.22.5-.3,1.05-.23,1.64.05.4.13.72.26.98.13.25.26.44.4.55.14.11.24.16.32.16.17-.02.36-.17.57-.44.21-.27.4-.57.57-.9.33-.62.55-1.18.66-1.68.12-.5.15-1,.1-1.48-.03-.29-.09-.55-.19-.77Z"/>
        <path class="cls-1" d="m84.87,7.84c0,.08.01.15.02.22,0,.07.01.11.02.14-.01.08-.07.15-.18.22-.11.07-.24.1-.38.11-.05,0-.1-.02-.15-.06-.05-.04-.07-.09-.07-.13.02-.39.04-.78.05-1.15.01-.37.02-.86.02-1.46-.02-1.21-.04-2.43-.06-3.64-.01-.84-.07-1.52-.18-2.05.29.13.59.26.88.39,1.53-.02,3.07-.02,4.6,0,.06-.07.12-.14.17-.22.01-.02.04-.05.08-.09.04-.04.07-.07.1-.09.03-.02.06-.03.08-.03.04,0,.13.05.26.14.13.09.26.19.37.3.11.11.17.19.17.23-.08.09-.23.15-.44.18-.03,1.66-.06,3.31-.09,4.97,0,.83.01,1.61.04,2.35-.06.07-.15.13-.28.2-.13.07-.26.1-.37.1-.04,0-.07-.02-.1-.06-.02-.04-.03-.09-.03-.14.02-.12.03-.24.05-.36,0-.09,0-.19,0-.28-1.52-.02-3.04-.02-4.56,0,0,.07,0,.14,0,.21Zm4.62-4.02c.02-1.03.03-2.07.05-3.1-1.59-.02-3.17-.02-4.76,0,.01,1.03.03,2.07.04,3.1,1.56-.02,3.11-.02,4.67,0Zm-4.67.29c.01,1.08.03,2.15.04,3.23,1.52-.02,3.05-.02,4.57,0,.02-1.08.03-2.15.05-3.23-1.55-.02-3.11-.02-4.66,0Z"/>
        <path class="cls-1" d="m99.72,2.17c-.4-.02-.83,0-1.27.05-.08-.17-.15-.34-.23-.52.39.07.85.12,1.4.18.62.05,1.25.1,1.87.15.07-.09.14-.18.21-.26.02-.02.06-.06.1-.11.04-.05.08-.09.11-.11.03-.02.06-.03.09-.03.04,0,.13.06.25.17.13.11.24.22.34.34.1.12.15.2.15.25-.04.1-.13.14-.27.13-.92-.08-1.83-.16-2.75-.23Zm1.51-1.72s.06-.06.1-.11c.04-.05.08-.08.11-.11.03-.02.06-.03.09-.03.04,0,.12.06.24.16.12.1.23.21.33.33.1.12.15.2.14.24-.04.1-.13.15-.28.14-.45-.04-.89-.08-1.34-.11-.5-.03-1.04-.03-1.6.02-.08-.18-.15-.35-.23-.53.39.07.86.13,1.41.18.27.02.53.04.8.06.07-.08.15-.17.23-.25Zm-1.5,3.01c-.28-.01-.58.01-.89.07-.08-.18-.15-.35-.23-.53.38.07.84.13,1.39.18.3.02.59.05.89.07.07-.08.13-.16.2-.23.03-.03.08-.08.13-.14.06-.06.11-.09.15-.09.07,0,.2.1.38.29.18.19.27.32.27.4-.04.1-.13.15-.28.14-.67-.06-1.34-.12-2.02-.17Zm-.1,1.27c-.28-.02-.57,0-.88.07-.07-.18-.15-.35-.22-.53.38.07.84.13,1.38.18.29.02.59.05.88.07.07-.08.13-.16.2-.23.03-.03.07-.08.13-.14.06-.06.11-.09.15-.09.07,0,.2.1.38.29.18.19.27.32.26.4-.04.1-.13.15-.27.14-.67-.06-1.33-.11-2-.17Zm-.65,4.09s-.06.08-.17.12c-.11.04-.23.06-.35.05-.04,0-.07-.03-.1-.07-.03-.04-.04-.09-.04-.14.05-.27.09-.61.13-1.01.01-.21.03-.41.04-.62.05-.75.06-1.38,0-1.89.25.13.51.27.76.41.5.04,1,.08,1.5.12.06-.06.11-.12.17-.18.02-.02.06-.05.11-.1.05-.05.1-.07.14-.07.04,0,.12.05.24.14.12.09.22.19.32.3.1.11.14.18.14.23-.09.09-.23.14-.43.16-.03.28-.05.56-.08.85-.05.68-.07,1.22-.08,1.63-.05.05-.13.1-.26.15-.13.05-.24.07-.34.06-.03,0-.06,0-.09,0,.01-.16.03-.31.04-.47-.54-.05-1.08-.09-1.62-.13-.01.16-.02.32-.04.48Zm.21-2.86c-.05.69-.1,1.39-.16,2.08.54.04,1.08.08,1.63.13.06-.69.12-1.39.18-2.08-.55-.05-1.1-.09-1.65-.13Zm7.22-4.87s.07-.06.12-.12c.06-.06.11-.08.15-.08.04,0,.12.06.24.17.12.11.22.22.32.35.1.12.14.21.14.25-.09.08-.25.13-.46.15-.04.36-.09.73-.13,1.09-.09.92-.15,1.62-.18,2.12-.05.06-.14.1-.29.15-.14.04-.26.06-.36.05-.03,0-.07,0-.1-.01.02-.15.04-.3.05-.46-.85-.1-1.7-.19-2.56-.27-.13,1.26-.25,2.52-.38,3.78-.01.11.01.18.07.22.06.04.2.07.42.09.4.04.79.08,1.19.13.64.07,1.01.11,1.12.11.06,0,.11,0,.14-.02.03-.02.06-.05.09-.1.09-.15.25-.63.5-1.45.04,0,.08,0,.12.01-.05.52-.1,1.03-.16,1.55.1.05.17.1.21.15.04.05.05.1.05.17-.01.11-.08.18-.2.22-.12.04-.33.06-.63.05-.3,0-.75-.05-1.33-.11-.42-.05-.84-.09-1.25-.13-.29-.03-.51-.07-.65-.13-.14-.05-.24-.13-.29-.24-.05-.11-.06-.25-.04-.45.08-.85.16-1.69.24-2.54.08-.84.1-1.52.06-2.05.29.15.58.3.87.46.81.08,1.62.17,2.44.26.11-.95.22-1.9.33-2.85-.53-.06-1.06-.12-1.59-.18-.5-.05-1.04-.05-1.6-.02-.08-.18-.15-.36-.23-.53.39.08.85.15,1.4.22.65.07,1.3.14,1.95.21.07-.07.13-.14.2-.21Z"/>
        <path class="cls-1" d="m121.45,6.7s.1-.09.17-.16c.07-.07.13-.11.17-.14.04-.03.08-.04.1-.03.04,0,.14.11.3.29.16.19.3.38.43.58.13.2.19.32.18.36-.05.1-.16.13-.33.09-2.3-.51-4.62-.97-6.94-1.37-.49-.08-1.01-.12-1.57-.13-.07-.2-.13-.4-.2-.6.37.1.83.2,1.36.31,1.98.34,3.96.72,5.94,1.14.12-.11.25-.23.37-.34Z"/>
        <path class="cls-1" d="m135.97,10.7s.06-.04.11-.07c.04-.03.08-.05.11-.06.03-.01.06-.01.08,0,.07.02.17.15.32.38.15.23.21.38.18.45-.05.03-.11.05-.18.06-.08.01-.16,0-.24,0-.1.31-.2.62-.29.94-.23.79-.39,1.4-.5,1.82-.05.05-.15.08-.29.1-.14.02-.26.01-.36-.02-.03-.01-.07-.02-.1-.03.04-.13.08-.26.12-.39-.35-.11-.71-.22-1.06-.32-.11.36-.22.71-.32,1.07-.02.06,0,.1.03.13.04.03.14.07.31.12.34.1.68.21,1.02.32.54.17.85.27.95.29.05.02.09.02.12.02.03,0,.06-.03.1-.06.07-.08.26-.39.57-.91.04.01.08.03.12.04-.1.34-.2.68-.3,1.02.08.06.13.12.16.17.02.05.02.11,0,.17-.03.1-.1.15-.21.17-.11.02-.29,0-.55-.05-.26-.06-.64-.16-1.15-.32-.37-.11-.73-.23-1.1-.34-.25-.08-.43-.15-.54-.22-.11-.07-.18-.15-.2-.24-.02-.09,0-.21.04-.36.12-.4.24-.79.35-1.19-.29-.09-.58-.17-.87-.26-.39.57-.92.9-1.58,1.02-.67.11-1.55.06-2.64-.15,0-.06,0-.12,0-.17.95.1,1.69.09,2.24-.03.55-.12.98-.41,1.28-.86-.31-.09-.62-.18-.93-.26-.02.08-.05.16-.07.24,0,.03-.08.06-.2.08-.13.02-.25.01-.36-.02-.05-.01-.08-.04-.1-.09-.02-.05-.02-.1,0-.15.1-.27.22-.62.35-1.04.06-.21.12-.42.17-.63.21-.77.35-1.42.41-1.95.23.19.47.38.7.57,1.36.38,2.72.78,4.08,1.2.07-.05.14-.1.21-.15Zm-2.51-1.62s.07-.05.12-.08c.05-.03.09-.06.12-.07.03-.01.06-.01.09,0,.04.01.11.08.2.19.09.12.18.23.25.36.07.12.1.2.09.25-.05.1-.14.12-.28.08-1.16-.34-2.32-.67-3.48-.99-.04.13-.07.26-.11.4,0,.03-.07.06-.19.08-.12.02-.24.02-.38-.02-.04-.01-.07-.04-.09-.09-.02-.05-.02-.1,0-.15.1-.28.23-.65.36-1.1.06-.22.12-.44.18-.66.22-.81.35-1.48.4-2.02.26.2.52.4.77.6.76.21,1.52.42,2.27.64.09-.06.17-.12.26-.19.03-.02.07-.05.12-.09.05-.04.09-.06.12-.08.03-.02.06-.02.09-.01.07.02.18.14.34.37.15.23.22.37.2.45-.06.09-.16.12-.3.08-.59-.17-1.19-.35-1.78-.51-.05.19-.11.37-.16.56.25.07.5.14.75.21.06-.04.13-.07.19-.11.03-.01.07-.04.12-.07.05-.03.1-.04.14-.03.07.02.18.13.33.32.15.19.22.32.2.39-.11.07-.25.09-.42.06-.03.1-.06.2-.09.3-.01.07-.03.14-.06.23-.02.11-.04.21-.06.32-.04.04-.13.08-.26.1-.13.02-.24.02-.34-.01-.03,0-.06-.02-.09-.03.02-.07.04-.14.06-.21-.28-.08-.55-.16-.83-.24-.06.21-.12.42-.18.64.36.1.73.21,1.09.31.08-.06.16-.12.24-.18Zm-1.37-2.16c.05-.19.1-.37.16-.56-.31-.09-.63-.17-.94-.26-.05.19-.1.37-.15.56.31.09.63.17.94.26Zm1.13,1.34c.06-.22.13-.44.19-.65-.78-.22-1.56-.44-2.34-.66-.06.22-.12.44-.18.66.78.21,1.55.43,2.33.65Zm-2.58.27c.31.08.62.17.93.26.06-.21.12-.42.18-.64-.31-.09-.62-.17-.93-.26-.06.21-.12.42-.17.64Zm4.92,3.29c.07-.22.14-.44.2-.66-1.4-.43-2.81-.85-4.21-1.24-.06.22-.12.44-.19.66,1.4.39,2.8.81,4.2,1.24Zm-4.44-.35c1.39.39,2.79.8,4.17,1.23.06-.2.12-.4.19-.6-1.39-.43-2.79-.84-4.19-1.24-.06.2-.11.4-.17.61Zm4.09,1.51c-1.38-.43-2.77-.84-4.17-1.23-.06.21-.12.41-.17.62,1.39.39,2.77.8,4.15,1.22.06-.2.13-.41.19-.61Zm2.59-4.59s.08-.05.12-.09c.05-.03.09-.06.13-.08.04-.02.08-.03.11-.02.04.01.11.09.21.22.1.13.19.27.26.42.07.14.1.24.09.28-.06.09-.16.11-.3.07-.93-.3-1.85-.59-2.78-.87-.49.35-.97.59-1.46.73-.03-.05-.06-.09-.09-.14.25-.16.49-.34.71-.54.24-.22.49-.5.73-.85.24-.35.41-.66.51-.93.63.42.93.67.9.76,0,.02-.04.03-.11.04-.06,0-.13,0-.19,0-.23.27-.47.51-.72.71.53.16,1.07.33,1.6.5.1-.07.19-.13.29-.2Zm-2.04,1.54c-.29-.08-.6-.13-.93-.14-.04-.19-.08-.37-.12-.56.36.15.81.31,1.33.49.29.09.58.18.86.27.09-.07.18-.14.27-.21.03-.02.07-.05.12-.09.05-.04.1-.07.13-.08.03-.02.07-.02.09-.01.04.01.11.08.21.21.1.13.18.26.26.4.07.14.1.23.09.28-.05.09-.16.12-.31.07-.66-.21-1.33-.42-2-.63Z"/>
      </g>
    </g>
  </g>
</svg>