<?xml version="1.0" encoding="UTF-8"?>
<svg id="Layer_2" data-name="Layer 2" xmlns="http://www.w3.org/2000/svg" viewBox="0 0 609.76 82.77">
  <defs>
    <style>
      .cls-1 {
        fill: #293266;
      }

      .cls-1, .cls-2 {
        stroke-width: 0px;
      }

      .cls-2 {
        fill: #999;
      }
    </style>
  </defs>
  <g id="object">
    <g>
      <g>
        <circle class="cls-1" cx="15.41" cy="72.27" r="10.51"/>
        <path class="cls-2" d="M15.45,60.02c-1.73-1.41-5.45-10-5.45-25.02,0-13.82,3.15-22.2,5-24.55,1.85,2.35,5,10.73,5,24.55h10C30,17.58,25.36,0,15,0S0,17.58,0,35s4.64,35,15,35c2.76,0,5-2.24,5-5,0-2.61-2-4.75-4.55-4.98Z"/>
      </g>
      <g>
        <circle class="cls-1" cx="79.83" cy="72.27" r="10.51"/>
        <path class="cls-2" d="M79.87,60.02c-1.73-1.41-5.45-10-5.45-25.02,0-13.82,3.15-22.2,5-24.55,1.85,2.35,5,10.73,5,24.55h10c0-17.42-4.64-35-15-35s-15,17.58-15,35,4.64,35,15,35c2.76,0,5-2.24,5-5,0-2.61-2-4.75-4.55-4.98Z"/>
      </g>
      <g>
        <circle class="cls-1" cx="144.25" cy="72.27" r="10.51"/>
        <path class="cls-2" d="M144.28,60.02c-1.73-1.41-5.45-10-5.45-25.02,0-13.82,3.15-22.2,5-24.55,1.85,2.35,5,10.73,5,24.55h10c0-17.42-4.64-35-15-35s-15,17.58-15,35,4.64,35,15,35c2.76,0,5-2.24,5-5,0-2.61-2-4.75-4.55-4.98Z"/>
      </g>
      <g>
        <circle class="cls-1" cx="208.66" cy="72.27" r="10.51"/>
        <path class="cls-2" d="M208.7,60.02c-1.73-1.41-5.45-10-5.45-25.02,0-13.82,3.15-22.2,5-24.55,1.85,2.35,5,10.73,5,24.55h10c0-17.42-4.64-35-15-35s-15,17.58-15,35,4.64,35,15,35c2.76,0,5-2.24,5-5,0-2.61-2-4.75-4.55-4.98Z"/>
      </g>
      <g>
        <circle class="cls-1" cx="273.08" cy="72.27" r="10.51"/>
        <path class="cls-2" d="M273.12,60.02c-1.73-1.41-5.45-10-5.45-25.02,0-13.82,3.15-22.2,5-24.55,1.85,2.35,5,10.73,5,24.55h10c0-17.42-4.64-35-15-35s-15,17.58-15,35,4.64,35,15,35c2.76,0,5-2.24,5-5,0-2.61-2-4.75-4.55-4.98Z"/>
      </g>
      <g>
        <circle class="cls-1" cx="337.5" cy="72.27" r="10.51"/>
        <path class="cls-2" d="M337.54,60.02c-1.73-1.41-5.45-10-5.45-25.02,0-13.82,3.15-22.2,5-24.55,1.85,2.35,5,10.73,5,24.55h10c0-17.42-4.64-35-15-35s-15,17.58-15,35,4.64,35,15,35c2.76,0,5-2.24,5-5,0-2.61-2-4.75-4.55-4.98Z"/>
      </g>
      <g>
        <circle class="cls-1" cx="401.92" cy="72.27" r="10.51"/>
        <path class="cls-2" d="M401.95,60.02c-1.73-1.41-5.45-10-5.45-25.02,0-13.82,3.15-22.2,5-24.55,1.85,2.35,5,10.73,5,24.55h10c0-17.42-4.64-35-15-35s-15,17.58-15,35,4.64,35,15,35c2.76,0,5-2.24,5-5,0-2.61-2-4.75-4.55-4.98Z"/>
      </g>
      <g>
        <circle class="cls-1" cx="466.34" cy="72.27" r="10.51"/>
        <path class="cls-2" d="M466.37,60.02c-1.73-1.41-5.45-10-5.45-25.02,0-13.82,3.15-22.2,5-24.55,1.85,2.35,5,10.73,5,24.55h10c0-17.42-4.64-35-15-35s-15,17.58-15,35,4.64,35,15,35c2.76,0,5-2.24,5-5,0-2.61-2-4.75-4.55-4.98Z"/>
      </g>
      <g>
        <circle class="cls-1" cx="530.75" cy="72.27" r="10.51"/>
        <path class="cls-2" d="M530.79,60.02c-1.73-1.41-5.45-10-5.45-25.02,0-13.82,3.15-22.2,5-24.55,1.85,2.35,5,10.73,5,24.55h10c0-17.42-4.64-35-15-35s-15,17.58-15,35,4.64,35,15,35c2.76,0,5-2.24,5-5,0-2.61-2-4.75-4.55-4.98Z"/>
      </g>
      <g>
        <circle class="cls-1" cx="595.17" cy="72.27" r="10.51"/>
        <path class="cls-2" d="M595.21,60.02c-1.73-1.41-5.45-10-5.45-25.02,0-13.82,3.15-22.2,5-24.55,1.85,2.35,5,10.73,5,24.55h10c0-17.42-4.64-35-15-35s-15,17.58-15,35,4.64,35,15,35c2.76,0,5-2.24,5-5,0-2.61-2-4.75-4.55-4.98Z"/>
      </g>
    </g>
  </g>
</svg>