<?xml version="1.0" encoding="UTF-8"?>
<svg id="Layer_2" data-name="Layer 2" xmlns="http://www.w3.org/2000/svg" viewBox="0 0 752 71.35">
  <defs>
    <style>
      .cls-1 {
        fill: rgba(187, 153, 255, .8);
        opacity: .2;
      }

      .cls-1, .cls-2, .cls-3, .cls-4, .cls-5 {
        stroke-width: 0px;
      }

      .cls-2 {
        fill: #3b3366;
        opacity: .6;
      }

      .cls-3 {
        fill: #293266;
      }

      .cls-4 {
        fill: #999;
      }

      .cls-5 {
        fill: #e6a88a;
      }
    </style>
  </defs>
  <g id="text">
    <g>
      <polyline class="cls-2" points="751 71.35 751 20.86 1 20.86 1 71.35"/>
      <polygon class="cls-5" points="752 71.35 750 71.35 750 21.86 2 21.86 2 71.35 0 71.35 0 19.86 752 19.86 752 71.35"/>
      <rect class="cls-1" x="16" y="35.86" width="720" height="35.5"/>
      <g>
        <g>
          <circle class="cls-3" cx="60.51" cy="52.11" r="6.5"/>
          <path class="cls-4" d="M60.51,45.25c-4.78,0-10.1-8.31-10.1-20.25s5.32-20.25,10.1-20.25c4.09,0,8.57,6.1,9.78,15.34h4.94c-1.33-11.59-7.32-20.09-14.72-20.09-8.41,0-15,10.98-15,25s6.59,25,15,25c1.35,0,2.45-1.06,2.45-2.38s-1.1-2.38-2.45-2.38Z"/>
        </g>
        <g>
          <circle class="cls-3" cx="117.89" cy="52.11" r="6.5"/>
          <path class="cls-4" d="M117.89,45.25c-4.78,0-10.1-8.31-10.1-20.25s5.32-20.25,10.1-20.25c4.09,0,8.57,6.1,9.78,15.34h4.94c-1.33-11.59-7.32-20.09-14.72-20.09-8.41,0-15,10.98-15,25s6.59,25,15,25c1.35,0,2.45-1.06,2.45-2.38s-1.1-2.38-2.45-2.38Z"/>
        </g>
        <g>
          <circle class="cls-3" cx="175.28" cy="52.11" r="6.5"/>
          <path class="cls-4" d="M175.28,45.25c-4.78,0-10.1-8.31-10.1-20.25s5.32-20.25,10.1-20.25c4.09,0,8.57,6.1,9.78,15.34h4.94c-1.33-11.59-7.32-20.09-14.72-20.09-8.41,0-15,10.98-15,25s6.59,25,15,25c1.35,0,2.45-1.06,2.45-2.38s-1.1-2.38-2.45-2.38Z"/>
        </g>
        <g>
          <circle class="cls-3" cx="232.67" cy="52.11" r="6.5"/>
          <path class="cls-4" d="M232.67,45.25c-4.78,0-10.1-8.31-10.1-20.25s5.32-20.25,10.1-20.25c4.09,0,8.57,6.1,9.78,15.34h4.94c-1.33-11.59-7.32-20.09-14.72-20.09-8.41,0-15,10.98-15,25s6.59,25,15,25c1.35,0,2.45-1.06,2.45-2.38s-1.1-2.38-2.45-2.38Z"/>
        </g>
        <g>
          <circle class="cls-3" cx="290.06" cy="52.11" r="6.5"/>
          <path class="cls-4" d="M290.06,45.25c-4.78,0-10.1-8.31-10.1-20.25s5.32-20.25,10.1-20.25c4.09,0,8.57,6.1,9.78,15.34h4.94c-1.33-11.59-7.32-20.09-14.72-20.09-8.41,0-15,10.98-15,25s6.59,25,15,25c1.35,0,2.45-1.06,2.45-2.38s-1.1-2.38-2.45-2.38Z"/>
        </g>
        <g>
          <circle class="cls-3" cx="347.45" cy="52.11" r="6.5"/>
          <path class="cls-4" d="M347.45,45.25c-4.78,0-10.1-8.31-10.1-20.25s5.32-20.25,10.1-20.25c4.09,0,8.57,6.1,9.78,15.34h4.94c-1.33-11.59-7.32-20.09-14.72-20.09-8.41,0-15,10.98-15,25s6.59,25,15,25c1.35,0,2.45-1.06,2.45-2.38s-1.1-2.38-2.45-2.38Z"/>
        </g>
        <g>
          <circle class="cls-3" cx="404.83" cy="52.11" r="6.5"/>
          <path class="cls-4" d="M404.83,45.25c-4.78,0-10.1-8.31-10.1-20.25s5.32-20.25,10.1-20.25c4.09,0,8.57,6.1,9.78,15.34h4.94c-1.33-11.59-7.32-20.09-14.72-20.09-8.41,0-15,10.98-15,25s6.59,25,15,25c1.35,0,2.45-1.06,2.45-2.38s-1.1-2.38-2.45-2.38Z"/>
        </g>
        <g>
          <circle class="cls-3" cx="462.22" cy="52.11" r="6.5"/>
          <path class="cls-4" d="M462.22,45.25c-4.78,0-10.1-8.31-10.1-20.25s5.32-20.25,10.1-20.25c4.09,0,8.57,6.1,9.78,15.34h4.94c-1.33-11.59-7.32-20.09-14.72-20.09-8.41,0-15,10.98-15,25s6.59,25,15,25c1.35,0,2.45-1.06,2.45-2.38s-1.1-2.38-2.45-2.38Z"/>
        </g>
        <g>
          <circle class="cls-3" cx="519.61" cy="52.11" r="6.5"/>
          <path class="cls-4" d="M519.61,45.25c-4.78,0-10.1-8.31-10.1-20.25s5.32-20.25,10.1-20.25c4.09,0,8.57,6.1,9.78,15.34h4.94c-1.33-11.59-7.32-20.09-14.72-20.09-8.41,0-15,10.98-15,25s6.59,25,15,25c1.35,0,2.45-1.06,2.45-2.38s-1.1-2.38-2.45-2.38Z"/>
        </g>
        <g>
          <circle class="cls-3" cx="577" cy="52.11" r="6.5"/>
          <path class="cls-4" d="M577,45.25c-4.78,0-10.1-8.31-10.1-20.25s5.32-20.25,10.1-20.25c4.09,0,8.57,6.1,9.78,15.34h4.94c-1.33-11.59-7.32-20.09-14.72-20.09-8.41,0-15,10.98-15,25s6.59,25,15,25c1.35,0,2.45-1.06,2.45-2.38s-1.1-2.38-2.45-2.38Z"/>
        </g>
        <g>
          <circle class="cls-3" cx="634.39" cy="52.11" r="6.5"/>
          <path class="cls-4" d="M634.39,45.25c-4.78,0-10.1-8.31-10.1-20.25s5.32-20.25,10.1-20.25c4.09,0,8.57,6.1,9.78,15.34h4.94c-1.33-11.59-7.32-20.09-14.72-20.09-8.41,0-15,10.98-15,25s6.59,25,15,25c1.35,0,2.45-1.06,2.45-2.38s-1.1-2.38-2.45-2.38Z"/>
        </g>
        <g>
          <circle class="cls-3" cx="691.77" cy="52.11" r="6.5"/>
          <path class="cls-4" d="M691.77,45.25c-4.78,0-10.1-8.31-10.1-20.25s5.32-20.25,10.1-20.25c4.09,0,8.57,6.1,9.78,15.34h4.94c-1.33-11.59-7.32-20.09-14.72-20.09-8.41,0-15,10.98-15,25s6.59,25,15,25c1.35,0,2.45-1.06,2.45-2.38s-1.1-2.38-2.45-2.38Z"/>
        </g>
      </g>
    </g>
  </g>
</svg>