<?xml version="1.0" encoding="UTF-8"?>
<svg id="Layer_2" data-name="Layer 2" xmlns="http://www.w3.org/2000/svg" viewBox="0 0 327.4 55.56">
  <defs>
    <style>
      .cls-1 {
        fill: #f2e7da;
        stroke-width: 0px;
      }
    </style>
  </defs>
  <g id="text">
    <g>
      <g>
        <path class="cls-1" d="M36.25,55.04c-.24,0-.41-.08-.5-.25-.1-.17-.14-.35-.14-.54.02-.41.12-.64.29-.68.17-.05.37-.07.61-.07.77,0,1.3-.14,1.6-.41.3-.28.49-.62.56-1.04.07-.42.11-.86.11-1.31l.07-14.29c0-1.13-.19-1.85-.58-2.16-.38-.31-1-.55-1.84-.72-.36-.07-.6-.14-.72-.2-.12-.06-.18-.27-.18-.63,0-.41.14-.63.43-.67.29-.04.62-.05,1.01-.05,1.34,0,2.43.11,3.26.32s1.56.6,2.2,1.15c.64.55,1.33,1.33,2.07,2.34l9.86,12.96h.11l-.07-12.35c0-.46-.04-.89-.11-1.31-.07-.42-.26-.77-.56-1.04-.3-.28-.83-.41-1.6-.41-.24,0-.44-.02-.61-.07-.17-.05-.28-.28-.32-.68,0-.19.05-.37.16-.54s.27-.25.49-.25c.53.02.95.04,1.28.05.32.01.65.02.97.04.32.01.73.02,1.21.02s.88,0,1.19-.02c.31-.01.63-.02.95-.04.32-.01.74-.03,1.24-.05.24,0,.41.08.5.25.1.17.14.35.14.54-.02.41-.11.64-.27.68-.16.05-.37.07-.63.07-.74,0-1.27.14-1.58.41-.31.28-.5.62-.56,1.04-.06.42-.1.86-.13,1.31l-.07,18.14c-.02.19-.14.32-.34.38-.2.06-.39.09-.56.09-.46,0-.8-.16-1.04-.47l-13.57-18.14h-.11l.07,14.29c.02.46.07.89.13,1.31.06.42.25.77.56,1.04.31.28.84.41,1.58.41.26,0,.48.02.65.07.17.05.26.28.29.68,0,.19-.05.37-.16.54s-.27.25-.49.25c-.5-.02-.93-.04-1.28-.05-.35-.01-.68-.02-1.01-.04-.32-.01-.73-.02-1.21-.02s-.87,0-1.17.02c-.3.01-.61.02-.92.04-.31.01-.73.03-1.26.05Z"/>
        <path class="cls-1" d="M69.91,55.04c-.22,0-.37-.08-.47-.25-.1-.17-.14-.35-.14-.54.02-.41.12-.64.29-.68.17-.05.37-.07.61-.07.77,0,1.31-.14,1.62-.41.31-.28.51-.62.59-1.04.08-.42.13-.86.13-1.31v-14.29c0-.46-.04-.89-.13-1.31-.08-.42-.28-.77-.59-1.04-.31-.28-.85-.41-1.62-.41-.24,0-.44-.02-.61-.07-.17-.05-.26-.28-.29-.68,0-.19.05-.37.14-.54.1-.17.25-.25.47-.25.79.02,1.52.05,2.2.07.67.02,1.37.04,2.09.04h11.3c.26,0,.49.06.67.18.18.12.27.35.27.68l.11,5.04c0,.24-.11.42-.34.54-.23.12-.44.18-.63.18-.26,0-.5-.05-.72-.16-.22-.11-.35-.27-.4-.49-.17-1.08-.37-1.95-.59-2.61-.23-.66-.56-1.14-1.01-1.44-.44-.3-1.09-.46-1.93-.49h-4.82v9.14h6.52c.19.02.33.12.41.29.08.17.13.35.13.54,0,.17-.04.33-.13.49-.08.16-.22.23-.41.23h-6.52v6.8c.02.31.07.65.14,1.03.07.37.28.69.63.95.35.26.93.38,1.75.36h3.31c.84-.02,1.48-.16,1.93-.41.44-.25.8-.68,1.06-1.28.26-.6.55-1.43.86-2.48.1-.24.26-.4.49-.47.23-.07.47-.08.74-.04.19.03.39.11.59.25.2.14.29.34.27.58l-.72,4.54c-.07.34-.19.54-.34.63-.16.08-.39.13-.7.13h-11.88c-.72,0-1.42,0-2.11.02s-1.42.04-2.21.09Z"/>
        <path class="cls-1" d="M106.38,55.29l-5.98-18.72c-.38-.98-.77-1.69-1.15-2.12-.38-.43-.96-.72-1.73-.86-.34-.07-.57-.13-.7-.18s-.2-.26-.2-.65c0-.41.14-.63.43-.67.29-.04.62-.05,1.01-.05,1.61.02,2.86.32,3.74.88.89.56,1.6,1.53,2.12,2.9l4.1,13.18h.14l4.39-16.78h1.87l5.87,16.78h.11l4.07-13.57c.19-.77.19-1.25-.02-1.46-.2-.2-.73-.31-1.57-.31-.24,0-.44-.02-.61-.07-.17-.05-.26-.28-.29-.68,0-.19.05-.37.14-.54.1-.17.25-.25.47-.25.77.02,1.43.05,2,.07s1.21.04,1.93.04c.48,0,.88,0,1.19-.02.31-.01.63-.02.95-.04.32-.01.74-.03,1.24-.05.24,0,.41.08.5.25.1.17.14.35.14.54-.02.41-.11.64-.27.68-.16.05-.37.07-.63.07-.91,0-1.66.17-2.25.52-.59.35-1.01.99-1.28,1.93l-5.9,19.19h-1.69l-5.83-17.17-4.64,17.17h-1.69Z"/>
        <path class="cls-1" d="M154.55,55.04c-.22,0-.37-.08-.47-.25-.1-.17-.14-.35-.14-.54.02-.41.12-.64.29-.68.17-.05.37-.07.61-.07.77,0,1.31-.14,1.62-.41.31-.28.51-.62.59-1.04.08-.42.13-.86.13-1.31v-14.29c0-.46-.04-.89-.13-1.31-.08-.42-.28-.77-.59-1.04-.31-.28-.85-.41-1.62-.41-.24,0-.44-.02-.61-.07s-.26-.28-.29-.68c0-.19.05-.37.14-.54.1-.17.25-.25.47-.25.79.02,1.52.05,2.2.07.67.02,1.37.04,2.09.04h5.62c2.3,0,4.39.46,6.26,1.37,1.87.91,3.36,2.22,4.46,3.92,1.1,1.7,1.66,3.77,1.66,6.19,0,1.92-.37,3.59-1.12,5-.74,1.42-1.74,2.59-2.99,3.51s-2.65,1.61-4.19,2.05c-1.55.44-3.13.67-4.73.67h-4.97c-.72,0-1.42,0-2.09.02-.67.01-1.4.04-2.2.09ZM164.34,53.6c1.94,0,3.52-.41,4.72-1.24s2.07-1.99,2.61-3.47c.54-1.49.81-3.21.81-5.18s-.35-3.72-1.04-5.26c-.7-1.54-1.71-2.74-3.04-3.62s-2.95-1.31-4.84-1.31c-.38,0-.89,0-1.51.02-.62.01-1.06.02-1.3.02v17.6c0,.96.29,1.61.88,1.94.59.34,1.49.5,2.72.5Z"/>
        <path class="cls-1" d="M187.96,55.04c-.24,0-.41-.08-.5-.25-.1-.17-.14-.35-.14-.54.02-.41.12-.64.29-.68.17-.05.37-.07.61-.07.77,0,1.31-.14,1.62-.41.31-.28.51-.62.59-1.04s.14-.86.16-1.31v-14.29c-.02-.46-.08-.89-.16-1.31s-.28-.77-.59-1.04c-.31-.28-.85-.41-1.62-.41-.24,0-.44-.02-.61-.07s-.26-.28-.29-.68c0-.19.05-.37.14-.54.1-.17.26-.25.5-.25.77.02,1.49.05,2.18.07.68.02,1.39.04,2.11.04,1.46,0,2.96-.04,4.5-.11.22,0,.38.08.49.25.11.17.16.35.16.54-.02.41-.12.64-.29.68s-.38.07-.65.07c-.74,0-1.28.14-1.6.41-.32.28-.52.62-.59,1.04s-.12.86-.14,1.31v14.29c.02.46.07.89.14,1.31s.27.77.59,1.04c.32.28.86.41,1.6.41.26,0,.48.02.65.07.17.05.26.28.29.68,0,.19-.05.37-.16.54-.11.17-.27.25-.49.25-1.54-.07-3.02-.11-4.46-.11-.72,0-1.43,0-2.12.02-.7.01-1.43.04-2.2.09Z"/>
        <path class="cls-1" d="M206.31,55.04c-.24,0-.41-.08-.5-.25-.1-.17-.14-.35-.14-.54.02-.41.12-.64.29-.68.17-.05.37-.07.61-.07.65,0,1.14-.13,1.48-.4.34-.26.61-.61.81-1.04s.4-.88.59-1.33l6.3-14.9c.24-.58.29-1.01.14-1.31-.14-.3-.38-.52-.72-.65-.34-.13-.71-.23-1.12-.31-.36-.07-.6-.14-.72-.2s-.18-.27-.18-.63c0-.41.14-.63.43-.67.29-.04.62-.05,1.01-.05.98,0,1.82.1,2.52.29.7.19,1.3.56,1.8,1.1.5.54.97,1.35,1.4,2.43l6.05,14.9c.17.41.35.83.54,1.26.19.43.45.79.77,1.06.32.28.74.43,1.24.45.26,0,.47.02.63.07.16.05.25.28.27.68,0,.19-.05.37-.16.54-.11.17-.27.25-.49.25-.77-.05-1.44-.08-2.02-.09-.58-.01-1.22-.02-1.94-.02-1.42,0-2.9.04-4.46.11-.24,0-.41-.08-.5-.25-.1-.17-.14-.35-.14-.54.02-.41.12-.64.29-.68.17-.05.37-.07.61-.07,1.18,0,1.82-.22,1.93-.65.11-.43,0-1.14-.34-2.12l-1.22-2.99h-8.89c-.36.91-.62,1.57-.77,1.98s-.25.67-.29.79c-.04.12-.07.19-.09.22-.26.82-.4,1.42-.41,1.82s.18.65.58.77c.4.12,1.06.18,2,.18.26,0,.47.02.63.07.16.05.25.28.27.68,0,.19-.05.37-.16.54-.11.17-.27.25-.49.25-.77-.05-1.43-.08-2-.09-.56-.01-1.21-.02-1.93-.02-.48,0-.88,0-1.21.02s-.65.02-.99.04c-.34.01-.77.03-1.3.05ZM213.15,46.19h7.56l-3.64-9.25h-.11l-3.82,9.25Z"/>
        <path class="cls-1" d="M239,55.04c-.24,0-.41-.08-.5-.25-.1-.17-.14-.35-.14-.54.02-.41.12-.64.29-.68.17-.05.37-.07.61-.07.77,0,1.31-.14,1.62-.41.31-.28.51-.62.59-1.04.08-.42.13-.86.13-1.31v-14.26c0-.46-.04-.9-.13-1.33-.08-.43-.28-.79-.59-1.06-.31-.28-.85-.41-1.62-.41-.24,0-.44-.02-.61-.07s-.26-.28-.29-.68c0-.19.05-.37.14-.54.1-.17.26-.25.5-.25.77.02,1.49.05,2.18.07s1.39.04,2.11.04h6.19c1.94.02,3.52.32,4.73.9,1.21.58,2.09,1.31,2.65,2.2.55.89.83,1.81.83,2.77,0,1.27-.51,2.47-1.53,3.6-1.02,1.13-2.45,1.93-4.3,2.41.91,1.44,1.84,2.89,2.77,4.34.94,1.45,2.02,2.81,3.24,4.09.34.26.67.48.99.65.32.17.71.28,1.17.32.19.02.38.05.58.09s.3.26.32.67c0,.19-.05.37-.14.54s-.26.25-.5.25c-.5-.02-.91-.04-1.21-.05-.3-.01-.59-.02-.88-.04s-.67-.02-1.15-.02c-.98-.19-1.82-.54-2.5-1.04-.68-.5-1.35-1.2-2-2.09-.67-.91-1.3-1.84-1.87-2.77-.58-.94-1.14-1.85-1.69-2.74-.31-.5-.63-.87-.95-1.1s-.93-.34-1.82-.34h-1.04v5.87c.02.46.07.89.14,1.31s.27.77.59,1.04c.32.28.86.41,1.6.41.24,0,.44.02.61.07.17.05.26.28.29.68,0,.19-.05.37-.14.54-.1.17-.26.25-.5.25-1.54-.07-3.04-.11-4.5-.11-.72,0-1.42,0-2.09.02-.67.01-1.39.04-2.16.09ZM245.16,43.45h3.17c1.22,0,2.19-.17,2.9-.5s1.24-.77,1.6-1.3c.36-.53.59-1.08.7-1.66.11-.58.16-1.1.16-1.58,0-.79-.17-1.56-.52-2.3-.35-.74-.96-1.36-1.84-1.84-.88-.48-2.09-.72-3.65-.72-1.03,0-1.71.2-2.03.59-.32.4-.49,1.2-.49,2.39v6.91Z"/>
        <path class="cls-1" d="M275,55.04c-.24,0-.41-.08-.5-.25s-.14-.35-.14-.54c.02-.41.12-.64.29-.68.17-.05.37-.07.61-.07.77,0,1.31-.14,1.62-.41.31-.28.51-.62.59-1.04s.13-.86.13-1.31v-4.5c0-.17-.13-.56-.38-1.17-.25-.61-.58-1.33-.97-2.14-.4-.82-.81-1.66-1.24-2.52-.43-.86-.83-1.65-1.21-2.36s-.67-1.25-.88-1.64c-.5-.91-1.06-1.57-1.66-1.96-.6-.4-1.28-.68-2.05-.85-.34-.07-.57-.13-.7-.18s-.2-.26-.2-.65c0-.41.14-.63.43-.67.29-.04.62-.05,1.01-.05,1.7,0,3.08.26,4.12.79s1.97,1.51,2.79,2.95c.7,1.3,1.33,2.56,1.89,3.78.56,1.22,1.19,2.47,1.89,3.74h.11l4-7.88c.41-.82.46-1.31.14-1.49-.31-.18-.89-.27-1.73-.27-.24,0-.44-.02-.61-.07s-.26-.28-.29-.68c0-.19.05-.37.14-.54.1-.17.25-.25.47-.25.77.02,1.43.05,2,.07.56.02,1.21.04,1.93.04s1.31-.01,1.78-.04,1.09-.05,1.85-.07c.24,0,.41.08.5.25.1.17.14.35.14.54-.02.41-.11.64-.27.68-.16.05-.37.07-.63.07-.91,0-1.66.2-2.23.59s-1.09,1.01-1.55,1.85l-4.07,7.67c-.22.46-.4.84-.54,1.15-.14.31-.25.64-.32.97-.07.34-.11.78-.11,1.33v3.49c.02.46.07.89.14,1.31.07.42.27.77.59,1.04.32.28.86.41,1.6.41.26,0,.47.02.63.07.16.05.25.28.27.68,0,.19-.05.37-.14.54s-.25.25-.47.25c-.77-.05-1.5-.08-2.2-.09s-1.4-.02-2.12-.02c-1.42,0-2.9.04-4.46.11Z"/>
      </g>
      <path class="cls-1" d="M9.15,41.7c-.42-.8-.74-1.75-1.65-8.4-.91,6.66-1.23,7.61-1.65,8.4-.55.61-1.21,1.06-5.85,2.37,4.63,1.31,5.29,1.77,5.85,2.37.42.8.74,1.75,1.65,8.4.91-6.66,1.23-7.61,1.65-8.4.55-.61,1.21-1.06,5.85-2.37-4.63-1.31-5.29-1.77-5.85-2.37Z"/>
      <path class="cls-1" d="M321.17,41.54c-.45-.85-.79-1.86-1.76-8.96-.97,7.1-1.31,8.11-1.76,8.96-.59.65-1.29,1.13-6.24,2.53,4.94,1.4,5.65,1.88,6.24,2.53.45.85.79,1.86,1.76,8.96.97-7.1,1.31-8.11,1.76-8.96.59-.65,1.3-1.13,6.24-2.53-4.94-1.4-5.65-1.88-6.24-2.53Z"/>
      <g>
        <path class="cls-1" d="M103.69,12.53c.38-.08.83-.2,1.36-.35.45-.14.89-.28,1.34-.42.01-.33,0-.67-.03-1.04-.03-.37-.1-.69-.16-.95-.37.11-.75.23-1.12.35-.48.16-.97.36-1.48.62-.14-.13-.27-.26-.41-.39.37-.08.81-.19,1.31-.33.2-.06.41-.13.61-.19-.17-.55-.33-.97-.49-1.28.7-.03,1.06,0,1.09.09,0,.03,0,.07-.05.12-.04.05-.09.1-.13.15.07.24.15.48.22.73.26-.08.52-.16.78-.24.04-.11.08-.22.11-.33.01-.03.03-.08.05-.15.02-.06.04-.11.06-.15.02-.03.04-.05.07-.06.04-.01.14,0,.29.06.15.05.3.12.44.19.14.07.21.13.23.18,0,.11-.06.19-.21.23-.44.13-.87.26-1.31.39.38,0,.64,0,.8.02.15.02.24.04.25.08,0,.02-.02.05-.07.09-.05.04-.11.08-.16.12-.13.62-.29,1.16-.47,1.63.27-.08.53-.16.8-.24.03-.11.07-.22.11-.34.02-.04.04-.09.05-.14.02-.05.04-.1.06-.14.03-.04.05-.07.08-.08.04-.01.14.01.29.07.15.06.3.13.44.2.14.08.22.14.23.18.01.05-.01.09-.04.13-.04.04-.09.07-.16.09-.97.29-1.93.58-2.89.88-.48.16-.96.36-1.46.61-.14-.13-.28-.26-.42-.39ZM107.95,14.53c-.28-.19-.56-.33-.85-.44.1.31.19.62.29.94.26.78.47,1.37.63,1.78-.01.07-.07.16-.16.25-.09.09-.19.15-.3.19-.06.02-.11.01-.17-.01-.05-.03-.08-.06-.1-.12-.13-.55-.27-1.09-.42-1.63-.09-.3-.19-.6-.28-.91-.24.94-.64,1.79-1.22,2.56-.05-.04-.1-.07-.16-.11.25-.49.44-1.01.59-1.56.14-.56.23-1.12.25-1.68-.17.05-.34.11-.51.16-.3.1-.59.24-.87.43-.14-.14-.28-.27-.42-.41.38-.08.83-.2,1.34-.35.21-.07.42-.13.63-.2-.14-.45-.28-.82-.42-1.09.66-.01,1,.03,1.03.12,0,.02,0,.06-.04.11-.04.05-.08.09-.12.14.05.18.11.36.17.54.3-.09.6-.18.9-.28.04-.11.07-.21.11-.32.01-.03.03-.08.05-.14.02-.06.04-.11.06-.14.02-.03.04-.05.07-.06.04-.01.13,0,.28.06.15.06.28.12.41.2.13.08.21.14.22.18,0,.11-.06.19-.2.23-.6.18-1.21.36-1.81.55.04.15.09.29.14.44,0,0,0,0,0-.01.58-.03,1.03.03,1.35.18.32.15.52.34.58.56.03.1.03.19,0,.27-.03.08-.09.13-.18.16-.09.03-.17.02-.26,0-.12-.2-.33-.39-.6-.58ZM105.04,11.94c-.08-.22-.2-.46-.39-.71-.18-.25-.37-.48-.56-.67.03-.03.06-.06.09-.09.39.11.7.25.92.42.22.17.36.36.42.55.05.14.04.25,0,.35-.04.1-.1.16-.19.19-.09.03-.19.01-.3-.04ZM112.16,9.5c.16.07.31.14.46.23.14.08.23.15.24.19,0,.11-.05.18-.2.22-.35.1-.71.19-1.06.29.25.89.49,1.78.74,2.67.23.79.47,1.54.71,2.24-.04.08-.1.16-.18.24-.09.08-.19.14-.33.18-.05.01-.11,0-.16-.02-.06-.03-.09-.06-.11-.12-.08-.39-.16-.76-.24-1.12-.08-.36-.2-.83-.35-1.41-.23-.83-.47-1.66-.7-2.49-.48.14-.96.27-1.45.41.03.1.06.19.08.29.2.69.33,1.33.4,1.92.06.59.01,1.19-.15,1.81-.16.62-.48,1.21-.96,1.78-.05-.03-.11-.06-.16-.09.33-.55.54-1.1.64-1.67.1-.57.12-1.14.04-1.71-.07-.57-.21-1.19-.41-1.87-.15-.52-.31-1.05-.46-1.57-.19-.66-.39-1.19-.58-1.59.31.02.61.04.92.05.04-.02.18-.12.42-.3.3-.22.59-.46.86-.73.27-.27.49-.52.64-.75.59.29.9.47.92.55.01.05-.03.07-.13.09-.08.02-.16.03-.24.05-.31.22-.7.45-1.16.71-.46.25-.91.48-1.35.68.2.69.4,1.38.6,2.07.69-.2,1.38-.4,2.08-.59.04-.12.09-.23.13-.35.02-.05.04-.1.07-.15.02-.05.04-.1.07-.15.02-.04.05-.07.08-.08.04-.01.14.02.3.08Z"/>
        <path class="cls-1" d="M122.98,12.24c-.36-.15-.64-.4-.85-.77-.21-.37-.39-.87-.53-1.49-.14-.62-.25-1.35-.35-2.21-.07-.56-.12-.93-.16-1.1-.07-.33-.15-.57-.25-.74-.09-.17-.24-.28-.44-.35-.06-.02-.1-.05-.11-.09-.02-.07.07-.13.27-.17.36-.08.63-.04.8.12.18.16.3.4.37.73.04.21.11.71.18,1.5.08.89.18,1.63.32,2.23.12.55.27.97.44,1.25.17.28.39.46.67.54.27.08.64.07,1.09-.02.8-.17,1.77-.86,2.92-2.06.01,0,.04-.03.08-.08.04-.04.08-.07.11-.07.02,0,.03,0,.04.03,0,.04-.02.12-.1.22-.47.67-.96,1.24-1.48,1.7-.52.46-1.07.75-1.67.87-.54.11-.99.1-1.34-.05Z"/>
        <path class="cls-1" d="M137.97,9.27c-.23-.07-.49-.2-.77-.39-.74-.49-1.18-1.27-1.34-2.34-.05-.33-.07-.74-.06-1.23,0-.3,0-.5-.02-.6-.02-.16-.07-.3-.15-.42-.08-.12-.2-.23-.36-.34-.04-.03-.07-.05-.07-.07,0-.02,0-.04.04-.05.03-.01.05-.02.08-.03.14-.02.3,0,.49.06.19.06.35.15.5.26.15.12.23.25.24.39.01.09.01.19,0,.3-.02.11-.04.23-.06.36-.05.29-.09.54-.1.74-.02.2,0,.44.03.7.05.36.17.67.34.94.18.27.37.47.58.61.21.14.38.2.52.18.08-.01.13-.09.14-.23.02-.29.06-.55.1-.78.04-.23.08-.38.11-.47.02-.05.03-.09.06-.13.02-.04.04-.06.06-.06.02,0,.03.02.04.06,0,.03,0,.09,0,.17-.03.35-.02.66.02.94.01.1.03.19.05.28.02.09.03.16.05.21.02.12.08.26.17.41.08.15.12.26.12.32.01.09,0,.16-.04.21-.04.05-.11.09-.19.1-.13.02-.32,0-.55-.08ZM142.14,6.15c-.06-.05-.11-.12-.15-.2,0-.01-.09-.22-.25-.62-.16-.4-.41-.66-.76-.79-.17-.06-.39-.08-.66-.05-.04,0-.08,0-.12.01-.06,0-.09,0-.1-.05,0-.03.03-.06.1-.09.02-.02.09-.04.2-.07.1-.03.22-.06.36-.07.48-.06.92.06,1.31.35.27.2.47.4.58.62.11.21.18.38.19.5.01.12-.01.23-.08.34-.07.1-.17.16-.3.18-.14.01-.23,0-.29-.05Z"/>
        <path class="cls-1" d="M152.57,8.4c.01.08.02.15.03.22,0,.07.02.11.02.14,0,.08-.07.16-.18.23-.11.07-.23.11-.37.12-.06,0-.1-.02-.15-.06-.05-.04-.07-.08-.07-.13,0-.39,0-.78,0-1.15,0-.37-.02-.86-.04-1.46-.07-1.21-.14-2.42-.21-3.63-.05-.84-.13-1.52-.25-2.04.3.12.59.23.89.35,1.52-.08,3.04-.14,4.57-.19.05-.07.11-.15.16-.22.01-.02.04-.05.07-.1.04-.04.06-.08.09-.1.03-.02.05-.03.08-.03.04,0,.13.04.27.13.14.09.26.18.38.29.11.1.17.18.17.23-.07.09-.22.16-.43.2l.12,4.97c.04.83.08,1.61.14,2.35-.05.07-.15.14-.27.21-.13.07-.25.11-.37.12-.04,0-.07-.02-.1-.06-.02-.04-.04-.08-.04-.14,0-.12.02-.24.03-.36,0-.09,0-.19,0-.28-1.52.04-3.04.1-4.56.19,0,.07,0,.14.01.21ZM157.01,4.2c-.03-1.03-.06-2.07-.09-3.1-1.58.04-3.15.11-4.73.19.06,1.03.11,2.06.16,3.1,1.55-.08,3.1-.15,4.65-.19ZM152.37,4.68c.06,1.08.11,2.15.17,3.23,1.52-.08,3.04-.14,4.56-.19-.03-1.08-.06-2.15-.09-3.23-1.55.04-3.1.11-4.64.19Z"/>
        <path class="cls-1" d="M167.1,2.06c-.4,0-.82.04-1.26.11-.08-.17-.17-.34-.25-.5.39.05.85.08,1.4.11.62.01,1.24.03,1.86.05.07-.09.13-.18.2-.27.02-.03.05-.07.09-.12.04-.05.08-.09.1-.12.03-.02.06-.04.09-.04.04,0,.13.05.26.16.13.1.25.21.36.32.11.11.16.19.16.24-.03.1-.12.14-.26.14-.91-.04-1.83-.06-2.74-.09ZM168.51.26s.05-.06.09-.11c.04-.05.08-.09.1-.11.03-.03.06-.04.09-.04.04,0,.13.05.25.15.12.1.24.2.34.31.11.11.16.19.16.24-.03.11-.12.16-.27.15-.44-.02-.89-.03-1.33-.04-.5,0-1.03.03-1.59.1-.08-.17-.17-.34-.25-.52.39.05.86.08,1.41.11.27,0,.53.01.79.02.07-.09.14-.18.21-.26ZM167.18,3.34c-.28,0-.57.04-.88.12-.08-.17-.17-.34-.25-.51.38.05.84.08,1.39.11.3,0,.59.02.89.03.06-.08.12-.16.19-.24.03-.03.07-.08.13-.15.05-.06.11-.1.14-.1.07,0,.2.09.39.27.19.18.29.31.28.38-.03.11-.12.16-.27.15-.67-.02-1.34-.04-2.01-.06ZM167.15,4.61c-.28,0-.57.04-.87.12-.08-.17-.17-.34-.25-.51.38.05.84.08,1.38.11.29,0,.59.02.88.03.06-.08.12-.16.18-.24.03-.03.07-.08.12-.15.05-.07.1-.1.14-.09.07,0,.2.09.39.27.19.18.29.31.28.38-.03.11-.12.16-.27.15-.67-.02-1.33-.04-2-.06ZM166.71,8.73s-.06.08-.17.13c-.11.05-.22.07-.35.07-.04,0-.08-.02-.11-.06-.03-.04-.04-.09-.04-.14.03-.27.06-.61.08-1.02,0-.21,0-.41.01-.62.02-.75-.01-1.38-.09-1.89.26.12.52.24.78.37.5.01,1,.03,1.5.04.05-.06.11-.12.16-.19.02-.02.06-.05.1-.11.05-.05.09-.08.13-.08.04,0,.12.04.24.13.12.08.23.18.34.28.1.1.15.17.15.22-.09.09-.23.15-.42.18,0,.28-.02.57-.03.85-.01.68-.01,1.22,0,1.63-.04.05-.13.11-.25.16-.13.06-.24.08-.33.08-.03,0-.06,0-.09,0,0-.16.01-.31.02-.47-.54-.02-1.08-.03-1.62-.05,0,.16,0,.32-.01.48ZM166.78,5.87c-.02.7-.03,1.39-.05,2.09.54.01,1.08.03,1.63.05.02-.7.04-1.39.07-2.09-.55-.02-1.1-.03-1.65-.05ZM173.68.62s.06-.07.11-.13c.06-.06.1-.09.14-.09.04,0,.13.05.25.15.12.1.23.21.34.33.1.12.15.2.15.25-.09.09-.24.15-.44.17-.02.37-.05.73-.07,1.1-.04.92-.06,1.63-.06,2.13-.04.06-.14.11-.28.16-.14.05-.26.07-.35.07-.03,0-.07,0-.1,0,0-.15.02-.31.03-.46-.85-.05-1.7-.09-2.56-.13-.06,1.27-.11,2.53-.17,3.8,0,.11.02.18.08.21.06.04.2.06.42.07.4.02.79.04,1.19.06.64.04,1.01.05,1.12.04.06,0,.11-.01.14-.03.03-.02.06-.05.08-.11.07-.16.22-.65.42-1.48.04,0,.08,0,.12,0-.02.52-.05,1.04-.07,1.56.11.05.18.09.22.13.04.04.06.1.06.16,0,.11-.07.19-.18.23-.11.05-.33.08-.63.09-.3,0-.75,0-1.33-.04-.42-.02-.84-.04-1.26-.06-.29-.01-.51-.04-.66-.09-.15-.05-.25-.12-.3-.22-.05-.1-.08-.25-.07-.44.04-.85.07-1.7.1-2.55.03-.84.02-1.52-.05-2.05.3.14.59.27.89.41.81.04,1.62.08,2.43.13.06-.95.11-1.91.17-2.86-.53-.03-1.06-.06-1.58-.09-.5-.02-1.03,0-1.59.07-.08-.17-.17-.35-.25-.52.38.06.86.1,1.4.14.65.03,1.3.07,1.95.1.06-.07.12-.15.18-.22Z"/>
        <path class="cls-1" d="M189.29,4.54c.16.16.22.36.18.59-.04.3-.21.53-.51.7-.3.17-.69.32-1.18.45-.27.06-.53.13-.8.2-.53.13-.89.21-1.07.27-.04.13-.08.35-.11.65-.06.47-.09.73-.11.79-.02.1-.07.18-.16.24-.09.06-.17.08-.26.07-.08,0-.15-.06-.2-.14-.05-.08-.07-.17-.06-.26.01-.07.04-.2.08-.38.05-.25.1-.5.16-.76-.42.16-.76.35-1.01.55-.25.21-.39.45-.42.74-.06.5.43.81,1.45.94.15.02.32.03.48.02.17,0,.32-.02.47-.03.28-.02.49-.03.64,0,.26.03.38.14.36.32-.03.2-.23.31-.62.34-.39.03-.78.02-1.2-.03-.84-.11-1.39-.29-1.64-.58-.25-.28-.36-.6-.32-.96.04-.37.22-.68.55-.93.33-.25.76-.47,1.32-.67.02-.07.03-.17.05-.31.09-.69-.08-1.07-.51-1.12-.25-.03-.53.08-.83.34-.31.25-.6.53-.89.85-.02.02-.07.09-.17.19-.09.1-.17.18-.24.24-.08.06-.13.09-.19.08-.12-.01-.2-.07-.25-.16-.05-.09-.07-.2-.06-.32.02-.16.07-.28.15-.35.07-.05.13-.09.2-.14.24-.17.45-.33.63-.47.17-.14.34-.31.49-.5.42-.54.77-1.12,1.07-1.75-.28.04-.55.05-.82.02-.23-.03-.42-.08-.57-.17-.15-.09-.33-.23-.54-.42-.03-.02-.04-.04-.04-.06,0-.03.02-.04.06-.03.03,0,.08.02.14.05.22.1.45.17.7.2.13.01.3.02.53.01.23,0,.48-.04.75-.1.07-.18.11-.34.13-.48.03-.27-.05-.49-.25-.68-.03-.03-.05-.06-.04-.09.02-.1.08-.14.19-.13.07,0,.18.04.35.1.17.06.27.12.31.18.03.04.04.12.03.22,0,.04-.02.1-.04.2.11.09.25.14.44.16.1.01.17.01.22,0,.07,0,.14,0,.21,0,.16.02.23.09.22.2-.01.09-.08.18-.2.27-.12.09-.27.17-.44.23-.24.09-.54.18-.91.26-.34.74-.67,1.35-.97,1.83.22-.09.42-.12.61-.1.34.04.59.16.76.36.17.2.26.46.29.77.16-.26.32-.49.49-.68.17-.19.38-.38.61-.56.24-.19.51-.33.84-.44.33-.11.63-.15.91-.11.23.03.42.13.58.29ZM185.43,2.59s.1-.03.13-.05c.04-.02.07-.03.1-.04.05-.02.08-.04.08-.07,0-.03-.02-.06-.07-.11-.04-.03-.07-.06-.11-.08,0,.02-.05.14-.14.36ZM188.49,5.38c.24-.2.37-.37.39-.52.03-.19-.09-.31-.35-.34-.19-.03-.41,0-.67.1-.26.09-.5.22-.74.4-.21.15-.42.37-.63.65-.21.28-.37.53-.47.75,0,0,0,0,0,.01.05-.01.09-.03.14-.04.08-.02.15-.05.23-.07.59-.19.99-.33,1.2-.42.36-.15.67-.32.91-.52Z"/>
        <path class="cls-1" d="M198.28,7.16s.06-.06.1-.11c.04-.04.07-.08.1-.1.03-.02.06-.03.08-.02.04,0,.12.08.24.21.12.14.22.27.31.42.09.14.13.24.12.28-.1.08-.27.1-.51.08-.17.88-.35,1.76-.52,2.64.17.31.37.55.6.73.23.18.52.33.86.44.34.11.81.23,1.4.36,1.77.38,3.03.66,3.79.81-.01.05-.02.09-.03.14-.28-.02-.48.12-.6.42-1.09-.25-2.19-.5-3.28-.73-.62-.13-1.1-.27-1.46-.42-.36-.15-.65-.34-.88-.59-.23-.25-.43-.58-.58-1-.24.18-.52.37-.84.58-.32.21-.59.38-.82.5,0,.02,0,.03,0,.05-.02.09-.07.15-.15.18-.1-.3-.2-.61-.3-.91.43-.11.98-.28,1.66-.51.19-.96.37-1.92.56-2.89-.16-.03-.32-.06-.48-.09-.27-.05-.57-.05-.89-.02-.05-.19-.1-.37-.15-.56.27.09.59.18.97.26.15.03.31.06.46.09.07-.08.14-.16.22-.24ZM198,3.37c.59.31,1.01.65,1.25,1,.24.35.34.65.29.9-.02.12-.08.21-.16.27-.08.06-.17.08-.27.07-.09-.02-.18-.07-.26-.15-.02-.28-.12-.61-.32-1-.2-.39-.42-.72-.66-1.02.04-.02.08-.04.12-.06ZM204.28,8.93s.06-.05.1-.08.07-.05.1-.07c.03-.01.06-.02.08-.01.04,0,.11.07.21.19.1.12.19.24.27.37.08.13.12.21.11.26-.04.03-.11.06-.19.07-.08.02-.17.03-.27.02-.06.25-.12.5-.17.75-.12.61-.22,1.09-.27,1.46-.05.05-.14.08-.28.1-.14.03-.27.03-.36,0-.04-.01-.07-.04-.08-.08-.01-.05-.01-.09,0-.15.02-.05.05-.1.08-.15.01-.06.03-.12.04-.19-1.16-.26-2.33-.52-3.49-.76-.03.16-.07.33-.1.49,0,.05-.07.09-.19.12-.12.03-.25.04-.38,0-.05-.01-.09-.04-.12-.09-.03-.05-.05-.1-.04-.15.1-.38.2-.75.3-1.11.09-.36.2-.83.33-1.42.13-.65.27-1.31.4-1.96.17-.82.26-1.5.27-2.04.25.18.5.35.75.53.34.07.67.14,1.01.21.22-.51.36-.97.44-1.37.71.28,1.06.46,1.04.54,0,.02-.04.04-.11.06-.07.02-.14.03-.21.05-.2.24-.46.5-.76.81.6.13,1.2.26,1.79.39.07-.05.13-.1.2-.15.02-.02.07-.04.13-.09.06-.04.11-.06.15-.05.04,0,.12.07.23.18.11.11.21.23.29.34.09.12.12.2.11.25-.04.03-.11.06-.19.08-.08.02-.17.03-.27.03-.05.21-.1.43-.15.64-.03.13-.05.27-.08.4-.06.29-.11.58-.15.85-.05.04-.14.08-.29.1-.15.02-.27.03-.37,0-.03,0-.05-.01-.08-.02.03-.12.05-.24.08-.36-1.1-.25-2.21-.49-3.31-.72-.08.36-.15.72-.23,1.09,1.15.24,2.31.49,3.45.75.07-.06.13-.11.2-.17ZM204.23,7.69c.12-.53.24-1.07.36-1.6-1.11-.25-2.23-.49-3.35-.72-.11.54-.22,1.07-.33,1.61,1.11.23,2.21.47,3.32.72ZM203.7,11.16c.13-.58.26-1.16.4-1.75-1.17-.27-2.35-.52-3.53-.77-.12.58-.24,1.17-.36,1.75,1.17.24,2.33.49,3.5.76Z"/>
        <path class="cls-1" d="M216.44,9.49s.05-.04.1-.07c.04-.03.08-.05.12-.06.03-.01.06-.01.09,0,.04.01.11.08.21.2.09.12.18.25.25.38.07.13.1.22.09.26-.11.06-.27.07-.46.04-.54,1.7-1,2.99-1.39,3.89-.38.9-.72,1.44-1,1.63-.35.22-.74.26-1.17.14.07-.23.06-.41-.03-.53-.1-.15-.37-.32-.8-.52.02-.06.04-.11.06-.17.69.27,1.08.42,1.21.46.1.03.18.04.23.04.05,0,.12-.02.18-.06.2-.11.47-.59.82-1.46.35-.86.77-2.09,1.29-3.69-.47-.14-.94-.27-1.4-.41-.44,1.31-.98,2.45-1.6,3.43-.62.98-1.45,1.76-2.48,2.37-.04-.07-.08-.13-.12-.2.86-.67,1.56-1.48,2.11-2.44.55-.97,1.02-2.08,1.42-3.35-.17-.05-.33-.09-.5-.14-.29-.07-.6-.11-.94-.11-.05-.19-.09-.38-.14-.58.3.12.68.25,1.12.39.18.05.36.1.54.15.01-.04.02-.08.04-.12.1-.33.19-.68.27-1.05.08-.37.13-.69.16-.96.4.15.67.27.82.35.15.08.22.14.21.18,0,.03-.05.06-.11.07-.06.02-.13.04-.2.06-.06.18-.11.37-.17.55-.07.23-.18.6-.34,1.11.43.12.86.25,1.28.37.08-.05.15-.1.23-.15ZM216.79,16.1c-.01.05-.03.12-.05.19-.01.08-.03.17-.04.25-.04.06-.12.1-.24.12-.12.03-.25.02-.37-.02-.06-.02-.1-.05-.14-.1-.03-.05-.04-.1-.03-.16.14-.37.27-.73.4-1.07.13-.35.28-.81.46-1.38.27-.88.53-1.75.8-2.63.24-.8.4-1.47.46-2,.23.21.47.41.7.62.55.17,1.1.34,1.65.52.08-.05.15-.11.23-.16.02-.02.05-.04.1-.07.05-.03.09-.05.12-.06.03,0,.06-.01.09,0,.04.01.11.09.22.22.1.13.2.27.28.4.08.14.12.23.1.27-.05.03-.12.06-.22.07-.1.01-.19,0-.31,0-.41,1.27-.82,2.53-1.22,3.8-.24.79-.45,1.55-.64,2.26-.07.05-.18.08-.33.1-.15.02-.27.01-.37-.02-.05-.02-.07-.05-.08-.09-.01-.04,0-.09,0-.14.05-.11.1-.22.15-.33.03-.09.06-.18.09-.28-.58-.18-1.16-.37-1.74-.54-.02.08-.05.16-.07.24ZM218.61,10.19c-.55,1.8-1.11,3.6-1.66,5.4.58.18,1.16.36,1.74.55.57-1.79,1.14-3.59,1.71-5.38-.6-.19-1.2-.38-1.8-.56Z"/>
      </g>
    </g>
  </g>
</svg>