<?xml version="1.0" encoding="UTF-8"?>
<svg xmlns="http://www.w3.org/2000/svg" viewBox="0 0 100.58 100.58">
  <defs>
    <style>
      .cls-1 {
        isolation: isolate;
      }

      .cls-2 {
        fill: #f2d479;
      }

      .cls-2, .cls-3, .cls-4 {
        stroke-width: 0px;
      }

      .cls-3 {
        fill: #fff7d4;
      }

      .cls-4 {
        fill: #4d3a15;
        mix-blend-mode: multiply;
        opacity: .2;
      }
    </style>
  </defs>
  <g class="cls-1">
    <g id="_レイヤー_2" data-name="レイヤー 2">
      <g id="fixed">
        <g>
          <g>
            <circle class="cls-2" cx="50.29" cy="50.29" r="50.29"/>
            <path class="cls-4" d="m0,50.29C0,55.76.88,61.02,2.5,65.95c7.87,8.7,19.25,14.16,31.9,14.16,23.76,0,43.02-19.26,43.02-43.02,0-15.48-8.18-29.05-20.46-36.63-2.19-.29-4.41-.45-6.68-.45C22.51,0,0,22.51,0,50.29Z"/>
          </g>
          <g>
            <path class="cls-3" d="m68.45,53.79h-36.33c-1.93,0-3.5-1.57-3.5-3.5s1.57-3.5,3.5-3.5h36.33c1.93,0,3.5,1.57,3.5,3.5s-1.57,3.5-3.5,3.5Z"/>
            <path class="cls-3" d="m50.29,71.95c-1.93,0-3.5-1.57-3.5-3.5v-36.33c0-1.93,1.57-3.5,3.5-3.5s3.5,1.57,3.5,3.5v36.33c0,1.93-1.57,3.5-3.5,3.5Z"/>
          </g>
        </g>
      </g>
    </g>
  </g>
</svg>