<?xml version="1.0" encoding="UTF-8"?>
<svg id="Layer_2" data-name="Layer 2" xmlns="http://www.w3.org/2000/svg" viewBox="0 0 1200 268.76">
  <defs>
    <style>
      .cls-1 {
        fill: rgba(134, 115, 191, .8);
        opacity: .1;
        stroke-width: 0px;
      }
    </style>
  </defs>
  <g id="background">
    <g>
      <path class="cls-1" d="M0,268.76h1200V50.83c-4.43-2.21-9.42-3.46-14.71-3.46-11.08,0-20.88,5.47-26.86,13.86-1.81-22.84-20.9-40.81-44.2-40.81-12.16,0-23.17,4.89-31.18,12.82-9.85-19.69-30.2-33.22-53.72-33.22-21.01,0-39.49,10.8-50.22,27.14-6.64-4.03-14.43-6.34-22.76-6.34-23.68,0-42.98,18.73-43.92,42.19-5.76-3.67-12.59-5.81-19.93-5.81-15.43,0-28.66,9.42-34.25,22.83-5.93-17.27-22.3-29.69-41.58-29.69-9.93,0-19.08,3.29-26.44,8.84-9.62-24.15-33.2-41.23-60.78-41.23s-50.1,16.31-60.11,39.59c-4.33-1.27-8.91-1.97-13.66-1.97-25.07,0-45.69,19.08-48.12,43.51-5.29-3.04-11.42-4.79-17.96-4.79-17.7,0-32.42,12.76-35.47,29.59-2-18.02-17.28-32.04-35.83-32.04-6.98,0-13.5,1.99-19.02,5.42.06-.98.1-1.96.1-2.96,0-25.8-20.91-46.71-46.71-46.71-9.86,0-19.01,3.06-26.54,8.28-9.7-23.99-33.19-40.93-60.66-40.93-28.86,0-53.34,18.7-62.03,44.63-5.52-2.76-11.74-4.32-18.33-4.32-22.68,0-41.06,18.38-41.06,41.06,0,.05,0,.09,0,.14-5.48-3.28-11.89-5.16-18.74-5.16-16.43,0-30.33,10.83-34.96,25.73-2.31-17.28-17.09-30.61-35.01-30.61-7.34,0-14.16,2.24-19.81,6.07.96-3.88,1.47-7.94,1.47-12.12,0-27.89-22.61-50.5-50.5-50.5-6.85,0-13.39,1.37-19.35,3.85C54.79,13.48,32.5,0,7.06,0,4.68,0,2.32.12,0,.35v268.4ZM120.24,117.93c-.13,1.19-.19,2.4-.2,3.63h-4.36c1.59-1.13,3.12-2.33,4.56-3.63Z"/>
      <path class="cls-1" d="M0,268.76h1200V0c-31.67,0-57.45,25.13-58.54,56.54-5.25-2.09-10.96-3.25-16.96-3.25-23.25,0-42.44,17.29-45.47,39.71-4.46-1.84-9.34-2.87-14.46-2.87-18.34,0-33.62,13.05-37.09,30.36-6.37-17.7-23.3-30.36-43.19-30.36-9.38,0-18.09,2.82-25.36,7.64-10.31-23.25-33.59-39.48-60.66-39.48-28.61,0-52.98,18.1-62.3,43.48-4.75-1.67-9.86-2.58-15.18-2.58-23.63,0-43.07,17.85-45.61,40.81-4.95-2.53-10.56-3.97-16.5-3.97-16.38,0-30.22,10.85-34.75,25.75h-2.8c-5.6-15.03-20.07-25.75-37.05-25.75-5.95,0-11.59,1.32-16.65,3.68,0-.22.02-.43.02-.65,0-25.9-20.99-46.89-46.89-46.89-9,0-17.41,2.54-24.55,6.94-10.72-23.99-34.78-40.72-62.75-40.72s-52.94,17.35-63.35,42.06c-4.53-1.45-9.35-2.25-14.36-2.25-23.31,0-42.64,17.01-46.27,39.29-4.75-2.29-10.09-3.58-15.72-3.58-16.29,0-30.07,10.75-34.63,25.54-3.5-17.1-18.63-29.96-36.76-29.96-3.81,0-7.48.57-10.94,1.63.01-.54.04-1.08.04-1.63,0-33.16-26.88-60.03-60.03-60.03-4.82,0-9.5.58-13.99,1.66-6.2-27.76-30.97-48.52-60.6-48.52-23.97,0-44.76,13.59-55.11,33.48-6.69-4.46-14.73-7.06-23.38-7.06-19.93,0-36.62,13.81-41.05,32.39-7.2-7.36-17.25-11.94-28.36-11.94s-21.51,4.74-28.73,12.33v186.98Z"/>
      <path class="cls-1" d="M0,268.76h1200V109.11c-11.12-5.85-23.78-9.18-37.22-9.18-41.73,0-75.99,31.93-79.71,72.69-12.18-8.84-27.16-14.07-43.37-14.07-30.71,0-57.04,18.73-68.21,45.39-4.71-43.38-41.45-77.15-86.09-77.15s-79.61,32.17-85.7,74.05c-11.73-13.7-29.15-22.4-48.6-22.4-30.25,0-55.57,21-62.24,49.21-10.26-26.8-36.21-45.84-66.62-45.84-23.55,0-44.44,11.42-57.42,29.03-10.13-28.37-37.23-48.67-69.08-48.67-33.79,0-62.23,22.86-70.73,53.95-14.62-20.74-38.75-34.3-66.06-34.3s-50.73,13.17-65.41,33.4c-6.58-30.32-33.56-53.04-65.85-53.04-15.34,0-29.48,5.14-40.81,13.77.27-2.23.43-4.5.43-6.81,0-30.8-24.97-55.77-55.77-55.77-12.15,0-23.39,3.9-32.55,10.5.11-1.87.18-3.75.18-5.64,0-50.34-40.81-91.16-91.16-91.16-2.7,0-5.37.12-8.01.35v241.35Z"/>
    </g>
  </g>
</svg>