<?xml version="1.0" encoding="UTF-8"?>
<svg id="_レイヤー_2" data-name="レイヤー 2" xmlns="http://www.w3.org/2000/svg" viewBox="0 0 643.45 659.21">
  <defs>
    <style>
      .cls-1 {
        fill: #f2e7da;
        stroke-width: 0px;
      }
    </style>
  </defs>
  <g id="text">
    <g>
      <g>
        <path class="cls-1" d="m215.67,608.81c0,.26-.03.45-.1.58-.84,1.81-1.99,3.72-3.44,5.72-1.45,2-3.14,3.7-5.04,5.09-1.91,1.39-3.96,2.08-6.16,2.08-2.39,0-4.28-.68-5.67-2.04-1.39-1.36-2.41-3.05-3.05-5.09-.65-2.04-1.05-4.15-1.21-6.35-.16-2.2-.24-4.13-.24-5.82v-5.38c0-1.65.02-3.41.05-5.28.03-1.87.11-4.07.24-6.59.26-4.65.52-9.32.78-14.01.26-4.68.58-9.36.97-14.01l11.73.58c-.84,8.21-1.5,16.37-1.99,24.48-.48,8.11-.73,16.3-.73,24.58,0,.58.02,1.23.05,1.94.03.71.15,1.42.34,2.13.26.91.63,1.68,1.11,2.33.48.65,1.08.97,1.79.97,1.1,0,2.2-.34,3.3-1.02,1.1-.68,2.12-1.45,3.05-2.33.94-.87,1.66-1.63,2.18-2.28.58-.71,1.03-1.07,1.36-1.07.19,0,.35.1.48.29.13.19.19.36.19.48Zm48.86-6.79c0,1.49-.61,2.84-1.84,4.07-1.23,1.23-2.8,2.33-4.7,3.3-1.91.97-3.94,1.78-6.11,2.42-2.17.65-4.2,1.15-6.11,1.5-1.91.36-3.44.53-4.6.53-5.43,0-9.95-1.44-13.57-4.31-3.62-2.88-5.69-7.09-6.2-12.65.19-.06.74-.23,1.65-.48.9-.26,1.91-.57,3.01-.92,1.1-.35,2.13-.68,3.1-.97s1.65-.5,2.04-.63c.26,2.46.89,4.77,1.89,6.93,1,2.17,2.44,3.93,4.31,5.28,1.87,1.36,4.17,2.04,6.88,2.04,1.87,0,3.72-.18,5.53-.53,1.81-.35,3.59-.79,5.33-1.31-.71-.45-1.28-1.1-1.7-1.94-.42-.84-.63-1.68-.63-2.52,0-1.29.68-2.46,2.04-3.49,1.36-1.03,2.65-1.55,3.88-1.55,1.29,0,2.6.52,3.93,1.55,1.32,1.03,1.99,2.2,1.99,3.49l-.1.19Zm-8.82-38.78c0,1.23-.52,2.81-1.55,4.75-.71,1.29-1.6,2.55-2.67,3.78-1.07,1.23-2.12,2.25-3.15,3.05-1.03.81-1.97,1.21-2.81,1.21-.26,0-.53-.08-.82-.24-.29-.16-.44-.4-.44-.73,0-1.36.05-2.71.15-4.07.1-1.36.18-2.71.24-4.07h-21.23v-4.56c5.17,0,10.36-.01,15.56-.05,5.2-.03,10.39-.05,15.56-.05.78,0,1.16.32,1.16.97Z"/>
        <path class="cls-1" d="m348,597.08c0,3.56-.71,6.72-2.13,9.5-1.42,2.78-3.31,5.22-5.67,7.32-2.36,2.1-4.99,3.91-7.9,5.43s-5.85,2.83-8.82,3.93c-1.81.64-3.93,1.24-6.35,1.79-2.42.55-4.57.82-6.45.82-.84,0-1.65-.31-2.42-.92-.78-.62-1.16-1.37-1.16-2.28,0-1.1.47-2.02,1.41-2.76.94-.74,1.92-1.12,2.96-1.12,1.1,0,1.99.39,2.67,1.16.68.78,1.02,1.71,1.02,2.81,1.1-.32,2.16-.71,3.2-1.16,1.03-.45,2.04-.94,3.01-1.45,4.78-2.46,8.66-5.56,11.63-9.31,2.97-3.75,4.46-8.47,4.46-14.15,0-2.33-.61-4.39-1.84-6.2-1.23-1.81-2.81-3.23-4.75-4.27-1.94-1.03-4.04-1.55-6.3-1.55-2.39,0-4.9.36-7.51,1.07-2.62.71-5.06,1.52-7.32,2.42-2.59,1.03-5.11,2.26-7.56,3.68-2.46,1.42-4.94,2.78-7.46,4.07-.39.13-.76.28-1.11.44-.36.16-.76.24-1.21.24-.65,0-1.42-.34-2.33-1.02-.91-.68-1.7-1.47-2.38-2.38-.68-.9-1.02-1.68-1.02-2.33,0-.78.45-1.16,1.36-1.16h2.04c1.42,0,3.07-.31,4.94-.92,1.87-.61,3.46-1.15,4.75-1.6,4.33-1.62,8.89-3.2,13.67-4.75,4.78-1.55,9.5-2.33,14.15-2.33,3.62,0,6.98.57,10.08,1.7,3.1,1.13,5.61,2.94,7.51,5.43,1.91,2.49,2.86,5.77,2.86,9.84Z"/>
        <path class="cls-1" d="m451.43,576.23c0,1.42-.48,2.54-1.45,3.34-.97.81-2.1,1.37-3.39,1.7-2.65.71-5.37,1.28-8.14,1.7-2.78.42-5.56.73-8.34.92.39,1.16.89,2.58,1.5,4.27.61,1.68,1.18,3.34,1.7,4.99.52,1.65.78,3.05.78,4.22,0,2.26-.73,3.86-2.18,4.8-1.45.94-3.22,1.41-5.28,1.41-1.16,0-2.52-.23-4.07-.68-1.55-.45-3.07-1.03-4.56-1.75-1.49-.71-2.71-1.42-3.68-2.13-.19-.13-.45-.32-.78-.58-.32-.26-.48-.52-.48-.78,0-.32.23-.48.68-.48.19,0,.32.03.39.1,1.16.26,2.38.52,3.64.78,1.26.26,2.5.39,3.73.39.65,0,1.18-.19,1.6-.58.42-.39.63-.9.63-1.55,0-1.03-.19-2.23-.58-3.59-.39-1.36-.82-2.73-1.31-4.12-.48-1.39-.89-2.57-1.21-3.54-2.2.26-4.38.48-6.54.68-2.17.19-4.35.39-6.54.58-1.16.13-2.34.28-3.54.44-1.2.16-2.34.24-3.44.24-.32,0-.76-.29-1.31-.87-.55-.58-1.02-1.21-1.41-1.89-.39-.68-.58-1.18-.58-1.5,0-.52.16-.78.48-.78h.87c3.42,0,6.85-.1,10.28-.29,3.42-.19,6.85-.42,10.28-.68-.65-2.07-1.37-4.15-2.18-6.25-.81-2.1-1.6-4.15-2.38-6.16-4.59.45-9.21.84-13.86,1.16-4.65.32-9.27.65-13.86.97-.13,0-.24.02-.34.05-.1.03-.21.05-.34.05-.58,0-.94-.26-1.07-.78-.07-.13-.16-.52-.29-1.16-.13-.65-.24-1.29-.34-1.94-.1-.65-.15-1.03-.15-1.16,0-.58.29-.87.87-.87.9,0,1.84.06,2.81.19.97.13,1.94.19,2.91.19,3.62,0,7.25-.1,10.91-.29,3.65-.19,7.29-.39,10.91-.58-.84-2.58-1.73-5.14-2.67-7.66-.94-2.52-1.92-5.01-2.96-7.46l11.15-2.04c.9,2.65,1.81,5.32,2.71,8,.9,2.68,1.71,5.41,2.42,8.19,1.49-.26,2.97-.53,4.46-.82,1.49-.29,2.97-.57,4.46-.82-.19-.58-.29-1.16-.29-1.75,0-1.49.61-2.73,1.84-3.73,1.23-1,2.55-1.5,3.97-1.5s2.79.49,3.93,1.45c1.13.97,1.7,2.2,1.7,3.68s-.39,2.49-1.16,3.2c-.78.71-1.81,1.26-3.1,1.65-2.33.84-4.72,1.44-7.17,1.79-2.46.36-4.91.7-7.37,1.02l4.07,12.12c1.94-.26,3.88-.55,5.82-.87s3.84-.61,5.72-.87c-.26-.52-.39-.94-.39-1.26,0-1.49.58-2.79,1.74-3.93,1.16-1.13,2.49-1.7,3.97-1.7,1.29,0,2.58.5,3.88,1.5,1.29,1,1.94,2.21,1.94,3.63Zm-5.82,36.74c0,1.29-.47,2.46-1.41,3.49-.94,1.03-2.05,1.92-3.34,2.67-1.29.74-2.46,1.34-3.49,1.79-2.97,1.1-5.98,2-9.02,2.71-3.04.71-6.14,1.07-9.31,1.07-3.81,0-7.56-.65-11.25-1.94-3.68-1.29-6.83-3.26-9.45-5.91-2.62-2.65-4.35-5.98-5.19-9.99.32-.19.89-.53,1.7-1.02.81-.48,1.7-1.02,2.67-1.6.97-.58,1.84-1.07,2.62-1.45.78-.39,1.26-.58,1.45-.58.58,0,.9.23.97.68.13.45.29.92.48,1.41.19.48.35.99.48,1.5,1.42,3.88,3.8,7.06,7.13,9.55,3.33,2.49,7.06,3.73,11.2,3.73,2.46,0,4.86-.21,7.22-.63,2.36-.42,4.67-.95,6.93-1.6-.45-.45-.86-1-1.21-1.65-.36-.65-.53-1.32-.53-2.04,0-.9.34-1.76,1.02-2.57.68-.81,1.49-1.47,2.42-1.99.94-.52,1.83-.78,2.67-.78,1.29,0,2.49.53,3.59,1.6,1.1,1.07,1.65,2.25,1.65,3.54Z"/>
      </g>
      <g>
        <path class="cls-1" d="m184.21,441.67c0,1.97-.56,4.44-1.67,7.4-1.11,2.96-2.62,5.89-4.53,8.79-1.91,2.9-4.01,5.31-6.29,7.22-2.28,1.92-4.6,2.87-6.94,2.87-3.58,0-6.39-1.23-8.42-3.7-2.04-2.47-3.49-5.52-4.35-9.16-.86-3.64-1.39-7.31-1.57-11.01-.19-3.7-.28-6.78-.28-9.25,0-5.8.06-11.6.19-17.4.12-5.8.37-11.54.74-17.21l14.62-.19c-.49,5.31-.93,10.64-1.3,16.01s-.56,10.77-.56,16.19c0,1.24.03,2.47.09,3.7.06,1.23.09,2.47.09,3.7,0,1.6.03,3.7.09,6.29.06,2.59.56,4.94,1.48,7.03.93,2.1,2.56,3.15,4.9,3.15,1.85,0,3.36-.83,4.53-2.5,1.17-1.67,2.13-3.61,2.87-5.83.74-2.22,1.48-4.17,2.22-5.83.74-1.67,1.6-2.5,2.59-2.5.62,0,1.02.25,1.2.74.19.5.28.99.28,1.48Zm103.46-12.77c0,6.66-1.36,12.58-4.07,17.77-2.72,5.18-6.39,9.59-11.01,13.23-4.63,3.64-9.84,6.51-15.64,8.61-5.8,2.1-11.72,3.39-17.77,3.89-1.85,10.49-5.4,18.57-10.64,24.25-5.25,5.68-11.75,9.59-19.53,11.75-7.77,2.16-16.54,3.24-26.28,3.24-2.35,0-4.63-.77-6.85-2.31-2.22-1.54-3.33-3.67-3.33-6.38,0-2.34.86-4.41,2.59-6.2,1.73-1.79,3.76-2.68,6.11-2.68,2.47,0,4.6.8,6.39,2.41,1.79,1.6,2.68,3.64,2.68,6.11,0,1.85-.43,3.39-1.3,4.63,6.29-.62,11.91-2.53,16.84-5.74,4.93-3.21,9.04-7.31,12.31-12.31,3.27-5,5.4-10.52,6.39-16.56-1.23-.25-3.24-.71-6.02-1.39-2.78-.68-5.34-1.6-7.68-2.78-2.35-1.17-3.52-2.56-3.52-4.16,0-.99.43-1.48,1.3-1.48.25,0,.46.06.65.19.19.12.34.25.46.37,2.47,1.23,5,2.16,7.59,2.78,2.59.62,5.24,1.05,7.96,1.29.62-6.54,1.02-13.11,1.2-19.71.19-6.6.28-13.17.28-19.71v-9.99c0-3.33-.06-6.66-.19-9.99-3.21.99-6.63,2.56-10.27,4.72-3.64,2.16-7.06,4.6-10.27,7.31-3.21,2.72-5.99,5.37-8.33,7.96-.62.62-1.51,1.76-2.68,3.42-1.17,1.67-2.38,3.21-3.61,4.63-1.23,1.42-2.35,2.13-3.33,2.13s-2.04-.56-3.15-1.67-2.04-2.37-2.78-3.79c-.74-1.42-1.11-2.56-1.11-3.42,0-.62.21-.93.65-.93h1.2c.62,0,1.23-.15,1.85-.46.62-.31,1.17-.65,1.67-1.02.62-.25,1.14-.58,1.57-1.02.43-.43.89-.89,1.39-1.39,3.33-3.08,7.03-6.26,11.1-9.53,4.07-3.27,8.3-6.23,12.68-8.88,4.38-2.65,8.85-4.41,13.42-5.27,0-4.56-.16-9.1-.46-13.6-.31-4.5-.59-9.04-.83-13.6l17.03.19v24.24c.99-.12,1.91-.21,2.78-.28.86-.06,1.73-.09,2.59-.09,6.91,0,13.39.96,19.43,2.87,6.04,1.91,10.98,5.15,14.81,9.72,3.82,4.57,5.74,10.8,5.74,18.69Zm-17.58.74c0-7.65-2.01-13.57-6.01-17.77-4.01-4.19-9.9-6.29-17.67-6.29-.62,0-1.3.03-2.04.09-.74.06-1.42.16-2.04.28v12.21c0,8.14-.09,16.29-.28,24.43-.19,8.14-.77,16.23-1.76,24.25,9.13-2.1,16.38-6.48,21.75-13.14,5.37-6.66,8.05-14.68,8.05-24.06Z"/>
        <path class="cls-1" d="m482.18,448.52c0,8.64-1.45,16.41-4.35,23.32-2.9,6.91-7.62,13.33-14.16,19.25-2.72,2.34-5.92,4.66-9.62,6.94-3.7,2.28-7.56,4.16-11.57,5.64-4.01,1.48-7.93,2.22-11.75,2.22-2.47,0-4.69-.8-6.66-2.41-1.98-1.6-2.96-3.76-2.96-6.48,0-2.47.99-4.69,2.96-6.66,1.97-1.97,4.19-2.96,6.66-2.96s4.66.99,6.57,2.96c1.91,1.97,2.87,4.2,2.87,6.66,0,.37-.03.74-.09,1.11-.06.37-.09.8-.09,1.3,6.54-3.45,11.66-7.89,15.36-13.33,3.7-5.43,6.32-11.44,7.87-18.04,1.54-6.6,2.31-13.35,2.31-20.27,0-10.24-2.72-18.97-8.14-26.19-5.43-7.22-13.26-11.94-23.5-14.16-1.48,4.07-3.46,9.04-5.92,14.9-2.47,5.86-5.34,12.09-8.61,18.69-3.27,6.6-6.88,13.11-10.83,19.53-3.95,6.42-8.14,12.25-12.59,17.49-4.44,5.25-9.1,9.44-13.97,12.58-4.88,3.15-9.9,4.72-15.08,4.72-4.69,0-8.33-1.08-10.92-3.24-2.59-2.16-4.38-5-5.37-8.51-.99-3.52-1.48-7.31-1.48-11.38,0-8.39,1.94-16.38,5.83-23.97,3.89-7.59,8.48-14.4,13.79-20.45-7.4-9.99-12.4-20.97-14.99-32.94.86-.49,2.41-1.26,4.63-2.31,2.22-1.05,4.41-2.07,6.57-3.05,2.16-.99,3.55-1.48,4.16-1.48.49,0,.83.22,1.02.65.19.43.28.83.28,1.2.12.25.19.55.19.92.86,4.81,1.88,9.56,3.05,14.25,1.17,4.69,2.56,9.38,4.16,14.07,6.41-5.43,13.08-9.68,19.99-12.77,6.91-3.08,14.56-5.12,22.95-6.11,1.85-5.8,3.55-11.72,5.09-17.77,1.54-6.04,2.74-12.09,3.61-18.14l19.06,2.41c-1.6,5.68-3.49,11.29-5.64,16.84-2.16,5.55-4.29,11.1-6.39,16.66,8.76.62,16.56,3.08,23.41,7.4,6.85,4.32,12.28,9.99,16.29,17.03,4.01,7.03,6.02,14.99,6.02,23.88Zm-80.32-2.59c-1.23.37-2.47.56-3.7.56-4.81,0-9.22-1.23-13.23-3.7-4.01-2.47-7.62-5.37-10.83-8.7-3.7,4.81-6.73,10.09-9.07,15.82-2.35,5.74-3.52,11.69-3.52,17.86,0,1.85.19,4.2.56,7.03.37,2.84,1.17,5.4,2.41,7.68,1.23,2.28,3.08,3.42,5.55,3.42s5-1.05,7.59-3.15c2.59-2.1,5.12-4.78,7.59-8.05,2.47-3.27,4.75-6.75,6.85-10.46,2.1-3.7,4.01-7.19,5.74-10.46,1.73-3.27,3.08-5.89,4.07-7.87Zm16.84-39.05c-7.16.87-13.97,2.93-20.45,6.2-6.48,3.27-12.19,7.56-17.12,12.86,1.97,4.69,4.75,8.79,8.33,12.31,3.58,3.52,8.14,5.28,13.7,5.28,2.96-5.92,5.77-11.94,8.42-18.04,2.65-6.11,5.03-12.31,7.13-18.6Z"/>
      </g>
      <g>
        <path class="cls-1" d="m322.4,0c6.65.22,10.65,5,10.81,10.24.18,5.94-5.95,11.78-11.38,11.47-5.32-.3-11.18-5.99-10.89-11.17.35-6.35,5.29-10.74,11.46-10.54Z"/>
        <path class="cls-1" d="m264.66,20.6c-.04,4.48-2.86,7.26-7.38,7.28-4.63.02-8.31-3.12-8.29-7.06.03-4.88,3.02-7.8,7.94-7.76,4.44.03,7.77,3.28,7.73,7.54Z"/>
        <path class="cls-1" d="m386.75,27.88c-4.28-.07-8.03-3.64-7.92-7.52.11-3.94,3.87-7.3,8.16-7.3,4.81,0,7.48,2.9,7.41,8.03-.06,4.19-3.08,6.86-7.65,6.79Z"/>
        <path class="cls-1" d="m643.25,647.2c-.73-7.02-1.71-14.01-2.41-21.03-.72-7.17-.97-14.4-1.93-21.54-.44-3.31-.42-6.64-.93-9.91-.75-4.85-1.16-9.72-1.55-14.61-.3-3.74-.78-7.46-1.06-11.2-.54-7.03-1.67-14.01-2.37-21.03-.72-7.17-.98-14.4-1.92-21.54-.45-3.45-.58-6.9-.99-10.33-.81-6.86-1.78-13.72-2.27-20.61-.3-4.18-.81-8.35-1.23-12.49-.32-3.15-.36-6.33-.8-9.48-.59-4.28-1.27-8.56-1.47-12.87-.19-4.19-.79-8.35-1.22-12.49-.33-3.15-.36-6.33-.8-9.48-.6-4.28-1.27-8.56-1.46-12.87-.19-4.19-.79-8.35-1.22-12.49-.33-3.15-.36-6.33-.8-9.48-.6-4.28-1.26-8.56-1.46-12.87-.19-4.19-.79-8.35-1.22-12.49-.33-3.15-.35-6.33-.8-9.48-.61-4.27-1.26-8.56-1.46-12.87-.19-4.19-.83-8.34-1.22-12.5-.28-3-.18-6.08-.78-9.04-.93-4.54-1.15-9.17-1.44-13.74-.31-5.04-2.23-8.58-6.8-10.63-5.15-2.31-10.27-4.71-15.51-6.8-19.08-7.6-38.14-15.25-57.37-22.46-3.92-1.47-6.3-3.46-7.85-7.16-2.91-6.92-8.26-11.46-15.19-13.97-2.41-.87-3.92-2.28-5.19-4.26-2.89-4.53-6.09-8.85-10.18-12.34-1.77-1.51-2.32-3.03-2.23-5.21.23-6.23.3-12.49-1.76-18.47-.81-2.36-.39-4.32.96-6.1,2.25-2.94,3.26-6.46,4.69-9.76,1.84-4.24,2.77-8.84,3.05-13.46.57-9.5-.84-18.77-4.31-27.64-5.71-14.6-15.57-24.93-31.01-29.15-2.02-.55-2.91-1.64-3.65-3.24-2.27-4.92-5.45-9.37-9.22-13.06-6.61-6.45-14.84-10.56-23.63-13.28-2.76-.85-4.69-1.96-5.72-4.64-.46-1.21-1.14-2.35-1.73-3.51-5.67-11.1-14.1-19.31-25.54-24.38q-5.04-2.23-4.85-7.93c.02-.72.01-1.46.13-2.17.98-6.14,1.12-12.34,1.59-18.52.07-.86.08-1.75-.04-2.61-.39-3.01-2.48-4.74-5.43-4.24-1.67.28-3.37.72-4.78,1.89-2.89,2.4-5.81,4.76-8.8,7.03-4.59,3.5-9.2,7-13.9,10.36-2.74,1.96-2.79,1.75-5.45-.69-1.63-1.5-2.54-3.53-4.13-5.02-6.95-6.54-12.47-14.48-20.17-20.31-3.27-2.48-6.23-2.97-9.24-.09-8.37,8.01-16.54,16.24-23.9,25.21-2.28,2.78-2.64,3.04-5.57.91-5.6-4.08-11.07-8.35-16.64-12.47-2.78-2.05-5.12-4.71-8.37-6.12-5.06-2.2-9.03.52-8.39,5.92.8,6.74,1.61,13.46,1.64,20.26,0,.85.2,1.72.39,2.56.96,4.39.15,3.89-2.6,5.17-5.89,2.75-11.68,5.57-16.47,10.32-5.54,5.51-10.07,11.57-13.17,18.69-.94,2.16-2.32,3.49-4.62,4.09-5.93,1.54-11.37,4.21-16.58,7.43-7.61,4.71-13.34,11.07-17.1,19.12-.89,1.91-1.74,2.85-3.87,3.4-8.64,2.19-16.22,6.52-21.82,13.47-10.55,13.08-14.68,28.17-13.09,44.9.73,7.65,3.4,14.61,7.17,21.17,1.31,2.29,1.67,4.3,1.07,6.96-1.45,6.45-2.93,12.98-1.56,19.68.29,1.42-.69,2.11-1.47,2.93-2.97,3.16-6.43,5.87-8.77,9.61-2.64,4.22-5.54,8.11-10.94,8.99-.53.09-.99.58-1.48.88-5.56,3.39-9.15,8.43-11.43,14.35-.79,2.06-1.95,2.92-3.85,3.57-5.34,1.82-10.66,3.7-15.91,5.76-12.39,4.86-24.76,9.75-37.08,14.79-8.17,3.35-16.43,6.49-24.27,10.59-2.35,1.22-4.18,2.8-4.51,5.45-.73,5.86-1.27,11.75-1.84,17.63-.36,3.73-.79,7.46-1.07,11.2-.54,7.03-1.67,14.01-2.37,21.03-.72,7.17-1.01,14.39-1.91,21.54-.42,3.31-.41,6.65-.96,9.9-1.2,7.12-1.56,14.32-2.28,21.48-.72,7.17-1.56,14.34-2.11,21.53-.24,3.13-.17,6.37-.86,9.46-.95,4.25-.95,8.6-1.37,12.88-.41,4.15-.88,8.33-1.27,12.48-.29,3.15-.23,6.36-.82,9.48-1.33,7.1-1.45,14.33-2.34,21.47-.85,6.86-.97,13.83-1.98,20.66-1.03,6.99-1.35,14.05-2.32,21.04-.99,7.13-1.09,14.38-1.96,21.53-.4,3.3-.43,6.65-.96,9.9-1.17,7.12-1.57,14.32-2.28,21.48-.72,7.17-1.54,14.34-2.09,21.53-.24,3.14-.15,6.39-.88,9.46-.97,4.11-.77,8.32-1.35,12.46-.4,2.82-.91,5.7-.97,8.58-.07,3.27,1.92,5.62,4.61,5.85,3.12.27,5.34-1.64,5.74-5.16.93-8.01,1.83-16.03,2.61-24.06.7-7.18.95-14.4,1.92-21.54.47-3.45.32-6.95,1-10.33.86-4.27.93-8.6,1.35-12.89.41-4.15.88-8.33,1.27-12.49.29-3.15.15-6.38.84-9.47.95-4.25.95-8.6,1.37-12.88.41-4.15.88-8.33,1.27-12.49.3-3.15.15-6.38.84-9.47.95-4.25.96-8.6,1.37-12.88.4-4.15.87-8.34,1.27-12.49.3-3.15.15-6.38.84-9.47.95-4.25.95-8.6,1.37-12.88.41-4.15.87-8.34,1.27-12.49.31-3.15.36-6.33.79-9.48.58-4.28,1.29-8.56,1.47-12.87.18-4.19.82-8.33,1.14-12.5.76-9.9,2.32-19.74,3.2-29.63.77-8.61,1.65-17.21,2.6-25.8.93-8.45,1.96-16.91,2.53-25.37.7-10.23,2.47-20.34,2.79-30.58.05-1.62.59-2.62,2.23-3.27,5.65-2.24,11.2-4.7,16.83-6.99,10.99-4.47,21.98-8.9,33-13.29,5.78-2.3,11.6-4.48,17.4-6.71,1.54-.59,2.89-.9,2.81,1.53-.23,7,2.22,13.37,4.96,19.59,1.93,4.37,4.39,8.5,8.16,11.65,2.46,2.05,5.04,1.74,7.05-.76,2.63-3.26,5.31-6.47,7.93-9.75,2.03-2.54,2.53-2.56,5.25-.67,3.56,2.47,6.65,5.54,10.38,7.8,2.92,1.77,5.94,1.21,8.77-2,.66-.75,1.22-1.63,1.67-2.53,5.37-10.8,6.8-21.99,3.15-33.64-.47-1.5-1.23-2.92-1.2-4.55,6.74-2.54,13.81-1.42,20.65-2.04,7.85-.7,15.86-.43,23.84.39,6.58.68,13.23.98,19.79,1.99,6.84,1.05,13.62,2.43,20.33,4.13,11.09,2.81,21.91,6.48,32.59,10.57,9.18,3.52,18.55,6.75,26.56,12.63,4.33,3.18,8.31,2.82,12.42.06,2.53-1.7,5.08-3.32,7.8-4.7,11.27-5.72,23.23-9.71,35.12-13.81,12.56-4.34,25.51-7.26,38.73-9.06,10.03-1.36,20.06-2.28,30.17-2.47,7.25-.13,14.45.44,21.67.8,3.59.18,7.04.8,10.69,1.28-2.62,7.84-4.63,15.37-3.06,23.55,1.11,5.75,2.57,11.29,5.47,16.36,2.43,4.24,5.87,4.92,10.17,2.57,3.47-1.89,6.27-4.61,9.3-7.06,2.59-2.1,3.23-2.16,5.42.25,2.62,2.88,5.06,5.93,7.48,8.98,2.14,2.7,4.2,3.67,6.69,2.77,1.56-.57,2.66-1.84,3.56-3.11,4.19-5.94,7.51-12.3,9.56-19.35,1.12-3.85.36-7.77,1.16-12.03,5.27,1.3,9.76,3.29,14.33,5.05,8.1,3.12,16.14,6.37,24.18,9.64,10.32,4.19,20.61,8.44,30.92,12.67,1.43.59,2.36,1.44,2.53,3.17.26,2.58.78,5.11.91,7.73.19,3.74.58,7.49,1.05,11.2.6,4.72.82,9.47,1.49,14.18.51,3.57.54,7.23,1.09,10.76,1.13,7.28,1.42,14.63,2.25,21.92.8,7.01,1.48,14.05,2.1,21.09.29,3.28.4,6.62.87,9.91.61,4.27,1.25,8.57,1.45,12.87.19,4.19.68,8.37,1.19,12.49.87,7,1.28,14.05,2.25,21.05.99,7.13,1.09,14.38,1.96,21.53.4,3.3.6,6.61.93,9.91.71,7.16,1.88,14.29,2.36,21.47.49,7.2,1.51,14.34,2.04,21.54.23,3.14.33,6.34.85,9.47.81,4.84,1.12,9.73,1.55,14.6.33,3.74.78,7.46,1.07,11.2.54,7.03,1.89,14,2.31,21.03.44,7.35,1.47,14.64,2.01,21.98.62,8.47,2.04,16.87,2.55,25.37.19,3.15.75,6.29.89,9.47.07,1.67.58,3.41,1.75,4.82,1.31,1.58,2.91,2.57,4.94,1.89,2.03-.68,3.53-2.11,3.61-4.41.08-2.46.13-4.95-.13-7.39Zm-163.92-379.97c-1.11,1.24-2.61,1.01-4.07.79-5.42-.81-10.85-1.78-16.34-1.5-4.25.21-8.33-.92-12.53-.92-9.55-.02-19.03.84-28.53,1.64-19.86,1.68-38.97,6.56-57.67,13.16-12.57,4.44-24.96,9.36-36.04,16.95-1.58,1.08-2.74,1.18-4.28.19-20.93-13.34-44.24-20.61-68.07-26.42-8.23-2.01-16.66-3.28-25.19-3.91-8.78-.64-17.54-1.83-26.35-1.56-7.78.24-15.57.52-23.31,1.57-3.28.44-6.65-.16-9.91.9-1.33.43-2.52-.31-3.47-1.34-2.91-3.1-6.17-5.66-10.34-6.91-1.72-.52-1.86-1.59-.57-2.88,2.54-2.54,4.36-5.67,7.49-7.77,2.39-1.61,3.7-4.25,3.57-7.5-.19-5.19-.05-10.38-.05-15.38,1.65-.85,2.2.26,2.94.84,5.87,4.6,12.69,7.47,19.96,7.61,8.04.16,15.19-3.05,20.4-9.69,5.18-6.61,7.15-14.22,8.23-22.44,1.14-8.68-.71-16.7-3.97-24.39-2.99-7.03-7.66-13.11-15.25-15.79-11.5-4.07-19.29-.09-24.58,8.44-3.12,5.03-3.89,10.58-3.31,16.3.72,7.08,6.37,12.63,13.46,13.99,3.9.75,7.36.67,10.28-2.49,1.61-1.74,1.84-3.54.87-5.57-.94-1.97-2.68-2.51-4.7-2.42-.14,0-.31-.01-.43.04-2.49,1.12-4.8.91-6.86-.94-2.31-2.07-2.48-4.83-2.22-7.62.44-4.73,2.16-8.72,6.98-10.57,3.79-1.46,9.61.28,12.3,4.12,5.71,8.18,8.91,17.04,7.05,27.33-.67,3.73-1.34,7.39-2.9,10.82-2.57,5.63-6.93,9.32-12.99,10.52-4.13.82-8.02-.88-11.68-2.62-5.21-2.48-9.29-6.4-12.43-11.21-5.07-7.78-8.55-16.23-8.03-25.66.55-10.06,2.67-19.86,8.7-28.22,4.86-6.74,11.13-12.04,19.54-13.54,8.18-1.46,16.16-.55,23.17,4.62,7.85,5.79,12.02,13.47,12.06,23.28,0,1.65.17,3.21,1.39,4.43,1.91,1.91,5.24,1.59,6.87-.59,1.72-2.3,1.58-5,1.24-7.55-1.29-9.57-4.8-18.15-12-24.88-4.85-4.54-10.56-7.56-17-9.2-.84-.21-1.69-.37-2.5-.67-1.18-.44-1.53-1.13-.74-2.32,2.43-3.66,5.41-6.81,8.99-9.32,5.37-3.76,11.11-6.83,17.64-7.99,4.52-.8,7.25-3.5,8.64-7.57,1.72-5.02,4.53-9.4,7.77-13.46,4.35-5.46,9.4-10.18,16.83-12.65.42,3.37.33,6.27,1.21,9.06.63,2.01,1.63,3.59,3.41,4.84,3.98,2.79,8.38,4.63,13,5.88,8.22,2.22,16.55,4.08,24.97,5.27,11.51,1.63,23.18,1.67,34.7.83,13.8-1.01,27.5-3.4,40.55-8.4,5.82-2.23,10.63-5.36,10.6-12.63,0-1.5.76-3.01,1.29-4.95,5.66,2.93,10.92,5.9,14.71,10.77,3.64,4.67,7.01,9.55,9.07,15.21,1.46,4.02,3.89,6.64,8.5,7.65,6.8,1.5,13.05,4.57,18.82,8.66,3.79,2.68,6.31,6.24,9.02,10.08-1.09,1.12-2.4,1.32-3.56,1.58-6.96,1.56-13.1,4.89-18.15,9.71-5.08,4.84-8.3,11.02-10.2,17.86-1.03,3.71-.98,7.45-.85,11.21.1,2.95,1.34,4.5,3.42,4.82,3.29.5,5.12-1.04,5.25-4.6.24-6.7,2.16-12.85,6.21-18.18,5.28-6.94,12.32-10.59,21.11-11.23,15.34-1.12,27.29,9.31,32.6,22.62,3.44,8.64,4.44,17.72,3.51,26.88-.74,7.34-4.39,13.73-8.55,19.72-4.59,6.61-10.94,10.55-18.81,12.14-5.3,1.07-9.82-.54-13.34-4.31-2.97-3.18-5.02-7.11-5.95-11.43-2.17-10.07-1.76-19.82,3.65-28.98,1.59-2.7,3.56-5.18,6.17-6.6,6.39-3.48,10.45-2.3,14.36,4.41,1.6,2.75,2.55,6.15,1.06,9.59-1.7,3.93-3.46,4.93-7.74,4.17-1.87-.33-3.74-.65-5.32.89-2.78,2.7-1.68,5.48,1.19,8.16,1.36,1.27,3.39,1.75,5.24,1.91,5.7.49,13-4.17,15.54-9.45,5.69-11.82-2.12-26.81-11.14-30.23-4.41-1.67-8.82-1.63-13.18-.46-8.19,2.19-13.2,8.15-16.68,15.42-3.54,7.41-5.32,15.3-4.68,23.57.86,10.98,3.78,21.15,12.8,28.42,6.45,5.2,13.84,6.75,21.95,4.68,4.37-1.12,8.54-2.68,12.24-5.33,1.39-.99,2.82-1.91,4.3-2.9,1,2.86,1.48,10.32.58,13.44-1.1,3.84.1,6.77,2.79,9.39,2.29,2.23,4.52,4.51,6.77,6.77,1.02,1.02,2.14,1.98,2.44,3.78-4.66,2.12-9.36,4.28-12.9,8.22Z"/>
        <path class="cls-1" d="m406.67,190.18c-1.03-6.1-2.69-10.95-9.71-11.81-.7-.09-1.37-.45-2.05-.71-10.1-3.88-18.52-10-25.11-18.62-2.3-3-4.05-6.32-6.08-9.47-2.38-3.69-4.98-5.28-8.73-1.83-9.02,8.29-20.07,12.08-32.06,12.36-12.49.29-23.97-3.23-33.43-11.94-.52-.48-1.17-.85-1.8-1.2-3.16-1.75-4.76-1.35-6.88,1.72-.74,1.07-1.42,2.18-2.06,3.31-7.22,12.74-17.59,21.66-31.64,26.15-1.24.4-2.41,1.07-3.66,1.32-3.37.67-4.82,3.01-5.34,6.05-.5,2.98-1.21,5.91-1.37,8.96-.49,9.87,2.39,18.81,7.24,27.23,5.64,9.78,14.26,16.21,24.14,21.08,5.45,2.69,11.26,4.51,17.13,6.08,11.88,3.17,23.86,5.68,36.57,5.41,11.63.31,23.2-1.91,34.69-4.94,10.27-2.7,20.09-6.22,28.96-12.31,6.99-4.8,12.55-10.84,16.08-18.37,4.18-8.93,6.81-18.27,5.1-28.48Zm-103.68,9.11c-1.76,1.53-3.8,2.68-6,3.44-5.06,1.76-10.2,3.18-15.68,2.84-7.47-.31-14.58-1.73-20.53-6.75-.22-.19-.51-.3-.71-.5-2.56-2.46-3.11-5.57-1.39-7.72,1.71-2.13,5.06-2.35,7.8-.07,5.1,4.24,11.11,5.4,17.39,5.32,4.18-.05,8.29-.99,12.08-2.94,1.15-.59,2.27-1.25,3.63-1.34,2.02-.13,3.78.22,4.76,2.22.83,1.7.27,4.07-1.37,5.5Zm82.28-2.82c-1.1,1.7-2.61,3.03-4.43,4.06-5.91,3.34-12.15,5.28-19.02,5.02-7.12-.31-14.04-1.5-20.11-5.55-3.19-2.13-3.53-4.86-1.22-7.21,1.55-1.58,3.4-1.62,5.19-.71,3.38,1.72,6.94,2.58,10.67,3.31,6.97,1.36,13.14-.24,19.07-3.64,1.12-.64,2.11-1.54,3.24-2.16,2.07-1.15,4.58-.86,6.02.57,1.7,1.69,2.03,4.08.6,6.3Z"/>
      </g>
    </g>
  </g>
</svg>