<?xml version="1.0" encoding="UTF-8"?>
<svg id="_レイヤー_2" data-name="レイヤー 2" xmlns="http://www.w3.org/2000/svg" viewBox="0 0 110 130">
  <defs>
    <style>
      .cls-1 {
        fill: #857db3;
        opacity: .5;
        stroke-width: 0px;
      }
    </style>
  </defs>
  <g id="object">
    <path class="cls-1" d="m36.45,130h37.18c5.98,0,11.81-2.01,16.42-5.79,12.18-10.01,19.95-25.14,19.95-42.07,0-24.15-15.8-44.63-37.69-51.84-2.51-.83-4.2-3.17-4.2-5.79v-9.9h5.66c1.55,0,2.8-1.24,2.8-2.78V2.78c0-1.54-1.25-2.78-2.8-2.78h-37.53c-1.55,0-2.8,1.24-2.8,2.78v9.05c0,1.54,1.25,2.78,2.8,2.78h5.66v9.9c0,2.62-1.68,4.97-4.19,5.79C15.11,37.72-1,59.29.05,84.44c.67,16.05,8.4,30.32,20.13,39.88,4.57,3.73,10.36,5.68,16.27,5.68Z"/>
  </g>
</svg>