<?xml version="1.0" encoding="UTF-8"?>
<svg id="Layer_2" data-name="Layer 2" xmlns="http://www.w3.org/2000/svg" xmlns:xlink="http://www.w3.org/1999/xlink" viewBox="0 0 105.86 105.86">
  <defs>
    <style>
      .cls-1 {
        clip-path: url(#clippath);
      }

      .cls-2 {
        fill: none;
      }

      .cls-2, .cls-3, .cls-4, .cls-5, .cls-6, .cls-7, .cls-8 {
        stroke-width: 0px;
      }

      .cls-3 {
        fill: #4b4080;
      }

      .cls-4 {
        fill: #a296e6;
      }

      .cls-5 {
        fill: #ab9ef2;
      }

      .cls-6 {
        fill: #b88ae6;
      }

      .cls-7 {
        fill: #998ae6;
      }

      .cls-8 {
        fill: #ecd9ff;
      }
    </style>
    <clipPath id="clippath">
      <circle class="cls-2" cx="52.93" cy="52.93" r="52.93"/>
    </clipPath>
  </defs>
  <g id="menu">
    <g>
      <g>
        <circle class="cls-7" cx="52.93" cy="52.93" r="52.93"/>
        <g class="cls-1">
          <g>
            <rect class="cls-5" x="-28.12" y="34.61" width="146.18" height="18.23" transform="translate(-17.75 44.61) rotate(-45)"/>
            <rect class="cls-5" x="-43.95" y="21.49" width="146.18" height="7.52" transform="translate(-9.32 28) rotate(-45)"/>
          </g>
        </g>
        <circle class="cls-3" cx="52.93" cy="52.93" r="40.37"/>
        <path class="cls-4" d="M92.09,52.93c0-8.36-2.62-16.09-7.08-22.45-7.18-7.84-17.49-12.78-28.96-12.78-21.72,0-39.33,17.61-39.33,39.33,0,7.54,2.13,14.58,5.81,20.56,7.18,8.84,18.13,14.5,30.41,14.5,21.63,0,39.16-17.53,39.16-39.16Z"/>
      </g>
      <g>
        <path class="cls-3" d="M50.88,75.48c-.82.06-1.57-.03-2.31-.18-1.32-.27-2.41-.93-3.29-1.93-.31-.35-.61-.71-.89-1.09-.11-.14-.21-.19-.38-.19-.68,0-1.36-.04-2.03-.2-.15-.04-.25.03-.35.1-.46.29-.86.64-1.28.97-.74.59-1.48,1.17-2.23,1.76-.22.17-.44.31-.72.15-.26-.15-.27-.41-.23-.67.06-.36.09-.72.17-1.07.05-.21-.02-.23-.2-.21-.43.06-.85.1-1.28.15-.11.01-.21.03-.32.03-.19,0-.34-.07-.42-.25-.08-.18-.05-.34.08-.49.04-.05.09-.1.14-.15.89-.91,1.77-1.81,2.66-2.72.07-.07.18-.12.08-.26-.46-.65-.51-1.39-.43-2.16.11-.95.28-1.89.59-2.79.16-.45.37-.88.64-1.28.06-.09.11-.17.04-.29-.69-1.09-.7-2.28-.54-3.5.06-.48.11-.97.25-1.44.07-.24-.12-.35-.22-.51-.05-.07-.13.04-.18.08-.42.3-.81.64-1.25.91-.17.1-.33.2-.51.28-.43.18-.78-.09-.72-.55.04-.29.09-.58.16-.86.04-.17,0-.22-.17-.23-.34-.03-.68-.08-1.02-.12-.22-.03-.39-.13-.46-.35-.06-.22.03-.39.19-.55.58-.55,1.14-1.12,1.73-1.66.67-.61,1.2-1.33,1.79-2,.05-.06.06-.14.07-.22.21-1.39.96-2.47,1.96-3.4.08-.08.19-.16.29-.18.35-.07.43-.31.51-.61.12-.45.24-.91.52-1.29.11-.15-.02-.19-.1-.24-1.07-.85-1.67-1.98-1.8-3.32-.1-1.05-.02-2.09.51-3.04.05-.09.12-.16-.02-.26-.91-.66-1.22-1.61-1.21-2.68,0-.78.11-1.55.29-2.32.02-.09.02-.22.09-.27.27-.26.19-.58.18-.89-.01-.65.07-1.27.46-1.81.38-.53.63-1.13.95-1.69.65-1.16,1.66-1.76,2.93-2.01,1.17-.23,2.33-.18,3.49.02.18.03.28,0,.41-.12,1.3-1.19,2.75-2.07,4.55-2.27,1.35-.14,2.65.02,3.88.59.8.37,1.62.73,2.21,1.39.37.42.75.58,1.28.61,2.06.14,3.7,1.16,5.06,2.62.86.92,1.42,2.04,1.73,3.27.15.6.38,1.17.75,1.69.9,1.25,1.34,2.67,1.48,4.19.04.41-.03.82-.15,1.21-.04.14-.02.24.07.37.37.52.68,1.07.77,1.71,0,.05.03.1.01.14-.13.41.12.67.35.95,1.14,1.32,1.46,2.91,1.54,4.59.02.41-.02.82-.05,1.23-.02.23.04.41.21.57,1.12,1.05,1.77,2.35,1.99,3.87.12.83.06,1.66-.07,2.47-.08.49-.02.91.27,1.32,1,1.43,1.22,3.05,1.1,4.74-.07,1.05-.16,2.1-.75,3.03-.5.78-1,1.56-1.56,2.29-.08.11-.14.2-.1.34.02.07,0,.15-.02.23-.22,1.24-.73,2.33-1.59,3.26-.46.49-.95.95-1.47,1.39-.81.68-1.79.97-2.8,1.15-.19.04-.38.07-.58.09-.24.02-.42.13-.59.29-.04.03-.07.07-.1.1-1.75,2.08-4.06,2.43-6.58,2.12-.43-.05-.84-.15-1.23-.34-.12-.06-.23-.05-.34-.02-.27.08-.55.15-.83.14-.34-.01-.58.14-.83.34-.66.54-1.24,1.15-1.87,1.72-.73.67-1.58,1.17-2.37,1.75-.17.13-.37.18-.58.06-.22-.13-.25-.34-.23-.56.04-.45.08-.89.13-1.34.02-.14.01-.21-.17-.19-.6.06-1.2.13-1.77.34-.24.09-.45.07-.59-.16-.15-.24-.06-.45.14-.62.83-.72,1.6-1.52,2.39-2.28.24-.23.44-.49.68-.81Z"/>
        <path class="cls-8" d="M59.61,42.3c-.21.55-.56,1-.95,1.42-.26-.02-.43.08-.51.33-.07.22-.26.33-.42.47-1.62,1.46-3.49,2.41-5.65,2.83-2.23.43-4.45.49-6.67-.02-1.22-.28-2.33-.82-3.35-1.55-1.35-.97-1.89-2.29-1.76-3.93.06-.73.29-1.38.69-1.99.54-.83.88-1.73,1.01-2.71.02-.15.06-.2.22-.18.59.1,1.18.07,1.76-.1.09-.03.15-.01.2.07,0,.02.02.03.03.05.88,1.78,3.83,2.15,5.4,1.1.25-.17.51-.32.76-.5.12-.09.19-.1.28.03.5.7,1.23.95,2.03.98,1.47.05,2.9-.11,4.15-1.02.09-.06.14-.06.22.01.38.38.85.62,1.38.73.16.03.16.11.15.25-.07.54-.08,1.08.02,1.63.14.8.46,1.5,1.02,2.09Z"/>
        <g>
          <path class="cls-6" d="M59.61,42.3c.18.12.35.26.56.3.25.05.45-.01.55-.27.09-.24-.02-.42-.22-.51-.58-.28-.8-.81-.96-1.36-.29-.98-.13-1.95.11-2.91.12-.47.44-.83.82-1.11,1.06-.77,2.19-1.43,3.53-1.59.26-.03.48,0,.7.12,1.14.64,1.9,1.59,2.35,2.8.26.72.45,1.45.52,2.21.03.32-.03.64-.12.95-.21.71-.45,1.41-.87,2.03-.53.79-1.29,1.21-2.21,1.39-.67.13-1.17-.08-1.56-.65-.5-.74-.93-1.51-.99-2.4-.07-.92.21-1.77.69-2.55.13-.21.27-.42.5-.6.03.5.07.95.19,1.39.24.83.81,1.33,1.65,1.52.07.01.14.01.2.02.3,0,.47-.13.49-.38.02-.25-.11-.44-.4-.48-.7-.1-1.06-.52-1.16-1.19-.09-.57-.17-1.14.07-1.7.08-.18.02-.37-.15-.5-.17-.13-.34-.1-.52-.01-1.13.55-1.78,1.5-2.18,2.66-.65,1.9-.06,3.52,1.11,5.01.56.72,1.33.89,2.21.73,1.54-.28,2.6-1.16,3.24-2.58.03-.06.06-.12.11-.25.23.49.52.89.32,1.43-.11.28,0,.46.24.67.66.62,1.14,1.37,1.39,2.26.3,1.09.44,2.2.29,3.32-.07.54.11.95.51,1.32,1.21,1.14,1.75,2.58,1.75,4.22,0,.59-.08,1.19-.17,1.77-.07.44.05.81.26,1.17.41.69.83,1.37,1.01,2.16.19.85.18,1.7.13,2.56-.02.36-.06.72-.11,1.07-.08.58-.33,1.1-.64,1.58-.49.75-.96,1.52-1.54,2.2-.09.11-.18.23-.14.37.12.49-.09.92-.23,1.35-.37,1.17-1.23,1.98-2.08,2.81-.95.92-2.12,1.23-3.36,1.4-.42.06-.75.24-1.05.52-.16.15-.31.3-.45.46-.73.88-1.72,1.27-2.81,1.49-.98.2-1.95.21-2.93,0-.21-.04-.4-.05-.47-.34-.05-.23-.34-.29-.62-.17-.59.26-1.21.39-1.85.33-1.66-.16-3.12-.68-4.04-2.2-.3-.49-.38-1.06-.51-1.61-.02-.09.04-.21.05-.31.02-.22-.05-.38-.27-.46-.21-.08-.37,0-.49.16-.18.24-.23.51-.16.8.16.62.27,1.25.6,1.86-.56.06-1.08-.04-1.6-.13-1.63-.26-2.74-1.28-3.69-2.53-.02-.03-.06-.06-.06-.1-.07-.6-.55-.6-.96-.62-.62-.03-1.25-.03-1.86-.15-.94-.18-1.7-.71-2.44-1.28-.27-.21-.53-.43-.77-.67-.59-.56-.71-1.26-.6-2.04.14-.99.29-1.96.69-2.89.14-.33.33-.64.54-.93.2-.28.21-.55.02-.84-.56-.83-.69-1.73-.57-2.71.08-.59.1-1.19.27-1.76.43-1.38.98-2.71,1.91-3.85.34-.42.46-.82.18-1.33-.23-.43-.27-.93-.29-1.42-.07-1.36.1-2.68.59-3.96.21-.55.21-.55.71-.26,1.27.72,2.64,1.14,4.09,1.31.77.09,1.53.13,2.3.12,2.27-.03,4.46-.43,6.51-1.42,1.25-.6,2.33-1.45,3.3-2.43.39-.39.32-.76-.12-.99.01-.13.1-.23.18-.32.3-.34.48-.76.77-1.1Z"/>
          <path class="cls-6" d="M65.39,34.32c-.21-.1-.39-.19-.57-.27-.32-.13-.64-.11-.98-.06-1.73.27-3.18,1.05-4.42,2.26-.3.3-.5.67-.62,1.08-.04.15-.1.17-.24.13-.43-.12-.78-.34-1.06-.69-.31-.39-.5-.42-.9-.1-1.22.99-2.65,1.14-4.14,1.03-.65-.05-1.07-.46-1.39-1-.2-.34-.42-.4-.74-.16-.58.44-1.16.86-1.85,1.11-.97.34-1.89.12-2.77-.3-.43-.21-.65-.67-.9-1.05-.3-.45-.39-.48-.91-.31-.96.3-1.89.25-2.73-.36-.96-.7-1.31-2.35-.74-3.39.13-.23.19-.51.5-.6.11-.03.15-.17.17-.29.19-.98.72-1.72,1.6-2.16.94-.47,1.96-.56,2.99-.5.51.03,1.03.1,1.53.2.31.06.56-.09.78-.3.81-.75,1.68-1.44,2.74-1.8,1.98-.68,3.87-.44,5.67.61.6.35,1.18.73,1.58,1.32.17.25.46.28.74.28,2.01,0,3.63.88,4.99,2.27.79.8,1.25,1.82,1.62,2.88.02.04.02.09.03.16Z"/>
          <path class="cls-6" d="M40.46,49.44c-.08.66-.07,1.27-.06,1.88.01.64.12,1.26.37,1.85.05.13.07.24-.03.35-.66.77-1.1,1.67-1.52,2.6-.09-.29-.05-.8.1-1.3.04-.13.09-.26.13-.39.15-.43.11-.57-.24-.86-.2-.16-.32-.36-.34-.62-.09-1.21.58-2.72,1.59-3.51Z"/>
          <path class="cls-6" d="M39.79,35.31c.33.56.71.99,1.22,1.28.16.09.15.27.14.42-.07.64-.29,1.23-.54,1.81-.08.19-.18.13-.28.04-.49-.44-.7-1.02-.71-1.64-.02-.61.03-1.22.18-1.9Z"/>
        </g>
        <g>
          <path class="cls-3" d="M48.47,62.02c-.25,0-.51.01-.76,0-.26-.02-.51-.09-.61-.37-.1-.28.06-.46.25-.64,1.03-1.01,2.05-2.03,2.97-3.14.42-.5.79-1.04.93-1.7.03-.13.02-.21-.07-.31-.37-.44-.42-.94-.34-1.49.16-1.01.66-1.89,1.01-2.82.11-.29.35-.38.58-.28.24.1.32.32.21.61-.19.49-.39.98-.59,1.46-.18.41-.3.84-.36,1.29-.05.31.04.58.27.8.27.25.32.54.17.88-.19.43-.29.89-.36,1.35-.04.29,0,.56.19.8.42.54.94.96,1.56,1.25.74.35,1.43.18,2.07-.24.24-.16.45-.22.72-.05.24.15.55.09.8.03,1.36-.36,2.58-.98,3.43-2.14.48-.65.73-1.44,1.06-2.18.14-.32.29-.63.28-1,0-.24.18-.37.4-.38.21-.01.37.12.42.33.07.28.05.56-.06.83-.33.81-.68,1.62-1.08,2.4-.49.97-1.28,1.63-2.2,2.15-.66.37-1.34.72-2.1.85-.33.06-.66.06-.99.03-.26-.02-.5.02-.73.14-.31.16-.65.27-1,.3-.24.02-.39.13-.54.29-.77.81-1.6,1.54-2.47,2.23-.42.33-.89.6-1.42.74-.35.09-.59-.05-.69-.4-.12-.45-.06-.91-.04-1.37,0-.2-.04-.25-.23-.24-.22.02-.45,0-.67,0h0Z"/>
          <g>
            <path class="cls-3" d="M53.56,42.19c-.82.03-1.56-.3-2.28-.66-.28-.14-.36-.42-.23-.64.12-.21.38-.26.64-.14.54.25,1.07.51,1.68.56.75.06,1.4-.17,1.96-.66.13-.12.27-.23.47-.18.34.08.46.48.19.76-.45.46-1.01.76-1.64.9-.25.05-.5.08-.78.06Z"/>
            <path class="cls-3" d="M43.9,41.47c-.79-.03-1.44-.32-2.03-.79-.19-.15-.24-.36-.1-.57.12-.2.36-.25.59-.13.14.07.26.17.39.26.7.45,1.43.45,2.18.14.33-.13.56-.09.68.15.12.25,0,.51-.32.65-.45.2-.93.26-1.39.29Z"/>
          </g>
        </g>
        <g>
          <path class="cls-8" d="M51.05,79.82c0-.36.05-.68.12-1.01.11-.44-.09-.7-.55-.7-.33,0-.66.03-1,.05-.02-.12.09-.16.15-.22.6-.61,1.25-1.17,1.76-1.87.05-.07.1-.18.23-.08.37.3.77.53,1.21.7.42.17.86.29,1.31.38-.55.71-2.49,2.35-3.24,2.73Z"/>
          <path class="cls-8" d="M36.78,71.98c.6-.61,1.2-1.22,1.8-1.83.06-.06.11-.21.25-.09.61.53,1.27.99,1.98,1.4-.89.71-1.75,1.39-2.65,2.11.01-.31.1-.57.17-.83.11-.44-.05-.68-.5-.73-.27-.03-.54.03-.82.03-.09,0-.19.09-.23-.06Z"/>
          <path class="cls-8" d="M38.08,53.48c.06.12.09.22.16.28.34.31.33.65.19,1.06-.12.38-.13.78-.14,1.18,0,.1.01.19-.09.26-.47.34-.94.69-1.45,1.08.06-.25.11-.45.14-.64.07-.42-.11-.63-.53-.65-.18,0-.37-.02-.55-.03-.05,0-.09-.02-.17-.04.81-.85,1.69-1.59,2.44-2.5Z"/>
          <path class="cls-8" d="M50.21,63.03c.02-.33.03-.63.05-.93,0-.13.03-.25.03-.38,0-.42-.21-.63-.63-.62-.38.01-.75.06-1.19.03.86-.89,1.69-1.74,2.48-2.64.5.91,1.26,1.51,2.14,1.98.09.05.17.07.06.18-.87.82-1.71,1.68-2.75,2.3-.05.03-.1.04-.2.08Z"/>
        </g>
      </g>
    </g>
  </g>
</svg>