<?xml version="1.0" encoding="UTF-8"?>
<svg id="Layer_2" data-name="Layer 2" xmlns="http://www.w3.org/2000/svg" viewBox="0 0 264.9 45.65">
  <defs>
    <style>
      .cls-1 {
        fill: #f2e7da;
        stroke-width: 0px;
      }
    </style>
  </defs>
  <g id="text">
    <g>
      <g>
        <path class="cls-1" d="M49.29,45.11c-.14,0-.29-.03-.43-.09-.14-.06-.25-.15-.32-.27l-8.1-18.32h-.11l.07,14.29c.02.46.07.89.13,1.31.06.42.25.77.56,1.04.31.28.84.41,1.58.41.26,0,.48.02.65.07.17.05.26.28.29.68,0,.19-.05.37-.16.54-.11.17-.27.25-.49.25-.5-.02-.91-.04-1.22-.05-.31-.01-.61-.02-.9-.04-.29-.01-.67-.02-1.15-.02-.72,0-1.3,0-1.75.02-.44.01-1.05.04-1.82.09-.24,0-.41-.08-.5-.25-.1-.17-.14-.35-.14-.54.02-.41.12-.64.29-.68.17-.05.37-.07.61-.07.77,0,1.3-.14,1.6-.41.3-.28.49-.62.56-1.04.07-.42.11-.86.11-1.31l.07-14.29c0-.77-.08-1.34-.25-1.71s-.43-.64-.79-.79c-.36-.16-.82-.28-1.37-.38-.34-.07-.57-.13-.7-.18-.13-.05-.2-.26-.2-.65,0-.41.14-.63.43-.67s.62-.05,1.01-.05c1.18,0,2.21.1,3.11.29.9.19,1.69.56,2.36,1.1s1.22,1.35,1.66,2.43l6.19,13.9h.11l7.09-17.5h2.05c.72,0,1.42-.01,2.11-.04s1.41-.05,2.18-.07c.24,0,.41.08.5.25.1.17.14.35.14.54-.02.41-.12.64-.29.68-.17.05-.37.07-.61.07-.74,0-1.28.14-1.6.41-.32.28-.52.62-.59,1.04-.07.42-.12.86-.14,1.31v14.29c.02.46.07.89.14,1.31.07.42.27.77.59,1.04.32.28.86.41,1.6.41.24,0,.44.02.61.07.17.05.26.28.29.68,0,.19-.05.37-.14.54-.1.17-.26.25-.5.25-.77-.05-1.5-.08-2.2-.09-.7-.01-1.4-.02-2.12-.02-1.39,0-2.87.04-4.43.11-.24,0-.41-.08-.5-.25-.1-.17-.14-.35-.14-.54.02-.41.12-.64.29-.68.17-.05.37-.07.61-.07.77,0,1.31-.14,1.62-.41.31-.28.51-.62.59-1.04.08-.42.13-.86.13-1.31v-14.29h-.11l-7.42,18.32c-.05.12-.14.21-.29.27-.14.06-.29.09-.43.09Z"/>
        <path class="cls-1" d="M79.92,45.04c-.24,0-.41-.08-.5-.25-.1-.17-.14-.35-.14-.54.02-.41.12-.64.29-.68.17-.05.37-.07.61-.07.77,0,1.31-.14,1.62-.41.31-.28.51-.62.59-1.04.08-.42.13-.86.13-1.31v-4.5c0-.17-.13-.56-.38-1.17-.25-.61-.58-1.33-.97-2.14-.4-.82-.81-1.66-1.24-2.52-.43-.86-.83-1.65-1.21-2.36s-.67-1.25-.88-1.64c-.5-.91-1.06-1.57-1.66-1.96-.6-.4-1.28-.68-2.05-.85-.34-.07-.57-.13-.7-.18-.13-.05-.2-.26-.2-.65,0-.41.14-.63.43-.67.29-.04.62-.05,1.01-.05,1.7,0,3.08.26,4.12.79,1.04.53,1.97,1.51,2.79,2.95.7,1.3,1.33,2.56,1.89,3.78.56,1.22,1.19,2.47,1.89,3.74h.11l4-7.88c.41-.82.46-1.31.14-1.49-.31-.18-.89-.27-1.73-.27-.24,0-.44-.02-.61-.07-.17-.05-.26-.28-.29-.68,0-.19.05-.37.14-.54.1-.17.25-.25.47-.25.77.02,1.43.05,2,.07s1.21.04,1.93.04,1.31-.01,1.78-.04c.47-.02,1.09-.05,1.85-.07.24,0,.41.08.5.25.1.17.14.35.14.54-.02.41-.11.64-.27.68-.16.05-.37.07-.63.07-.91,0-1.66.2-2.23.59-.58.4-1.09,1.01-1.55,1.85l-4.07,7.67c-.22.46-.4.84-.54,1.15-.14.31-.25.64-.32.97s-.11.78-.11,1.33v3.49c.02.46.07.89.14,1.31.07.42.27.77.59,1.04.32.28.86.41,1.6.41.26,0,.47.02.63.07.16.05.25.28.27.68,0,.19-.05.37-.14.54-.1.17-.25.25-.47.25-.77-.05-1.5-.08-2.2-.09-.7-.01-1.4-.02-2.12-.02-1.42,0-2.9.04-4.46.11Z"/>
        <path class="cls-1" d="M120.02,45.04c-.22,0-.38-.08-.49-.25-.11-.17-.16-.35-.16-.54.02-.41.13-.64.31-.68.18-.05.39-.07.63-.07.77,0,1.31-.14,1.62-.41.31-.28.51-.62.59-1.04.08-.42.13-.86.13-1.31v-14.29c0-.46-.04-.89-.13-1.31-.08-.42-.28-.77-.59-1.04-.31-.28-.85-.41-1.62-.41-.24,0-.45-.02-.63-.07-.18-.05-.28-.28-.31-.68,0-.19.05-.37.16-.54.11-.17.27-.25.49-.25.77.02,1.5.05,2.2.07.7.02,1.4.04,2.12.04h5.4c.46,0,1.05.04,1.78.11.73.07,1.51.22,2.34.43.83.22,1.61.56,2.36,1.04.74.48,1.35,1.12,1.82,1.91.47.79.7,1.79.7,2.99,0,1.13-.26,2.15-.77,3.06-.52.91-1.2,1.69-2.05,2.34-.85.65-1.81,1.15-2.88,1.49s-2.15.52-3.26.52c-.53,0-1.1-.04-1.73-.11-.62-.07-1.25-.23-1.87-.47v5.18c.02.46.07.89.14,1.31.07.42.27.77.59,1.04.32.28.86.41,1.6.41.26,0,.48.02.65.07.17.05.26.28.29.68,0,.19-.05.37-.16.54-.11.17-.27.25-.49.25-1.54-.07-3.04-.11-4.5-.11-.72,0-1.42,0-2.11.02s-1.41.04-2.18.09ZM128.74,34.49c.55,0,1.17-.09,1.85-.27.68-.18,1.34-.48,1.98-.9.64-.42,1.16-1,1.57-1.73.41-.73.61-1.66.61-2.79,0-1.22-.24-2.19-.72-2.9-.48-.71-1.07-1.23-1.78-1.57s-1.41-.55-2.11-.65c-.7-.1-1.26-.14-1.69-.14-.58,0-1.03.06-1.37.18-.34.12-.57.38-.7.77-.13.4-.2,1-.2,1.82v7.78c.24.1.59.19,1.04.27.46.08.96.13,1.51.13Z"/>
        <path class="cls-1" d="M147.02,45.04c-.24,0-.41-.08-.5-.25-.1-.17-.14-.35-.14-.54.02-.41.12-.64.29-.68.17-.05.37-.07.61-.07.65,0,1.14-.13,1.48-.4.34-.26.61-.61.81-1.04.2-.43.4-.88.59-1.33l6.3-14.9c.24-.58.29-1.01.14-1.31-.14-.3-.38-.52-.72-.65-.34-.13-.71-.23-1.12-.31-.36-.07-.6-.14-.72-.2-.12-.06-.18-.27-.18-.63,0-.41.14-.63.43-.67s.62-.05,1.01-.05c.98,0,1.82.1,2.52.29.7.19,1.3.56,1.8,1.1.5.54.97,1.35,1.4,2.43l6.05,14.9c.17.41.35.83.54,1.26s.45.79.77,1.06c.32.28.74.43,1.24.45.26,0,.47.02.63.07.16.05.25.28.27.68,0,.19-.05.37-.16.54-.11.17-.27.25-.49.25-.77-.05-1.44-.08-2.02-.09-.58-.01-1.22-.02-1.94-.02-1.42,0-2.9.04-4.46.11-.24,0-.41-.08-.5-.25-.1-.17-.14-.35-.14-.54.02-.41.12-.64.29-.68s.37-.07.61-.07c1.18,0,1.82-.22,1.93-.65.11-.43,0-1.14-.34-2.12l-1.22-2.99h-8.89c-.36.91-.62,1.57-.77,1.98-.16.41-.25.67-.29.79-.04.12-.07.19-.09.22-.26.82-.4,1.42-.41,1.82-.01.4.18.65.58.77.4.12,1.06.18,2,.18.26,0,.47.02.63.07s.25.28.27.68c0,.19-.05.37-.16.54-.11.17-.27.25-.49.25-.77-.05-1.43-.08-2-.09-.56-.01-1.21-.02-1.93-.02-.48,0-.88,0-1.21.02s-.65.02-.99.04c-.34.01-.77.03-1.3.05ZM153.86,36.18h7.56l-3.64-9.25h-.11l-3.82,9.25Z"/>
        <path class="cls-1" d="M190.44,45.65c-2.02,0-3.87-.43-5.56-1.28-1.69-.85-3.05-2.16-4.07-3.92-1.02-1.76-1.53-4-1.53-6.71,0-2.45.53-4.59,1.6-6.43,1.07-1.84,2.55-3.26,4.45-4.28,1.9-1.02,4.07-1.53,6.52-1.53.84,0,1.7.1,2.59.29.89.19,1.72.49,2.48.88.77.4,1.39.92,1.85,1.57s.7,1.43.7,2.34c0,.98-.3,1.88-.9,2.68-.6.8-1.44,1.21-2.52,1.21-.46,0-.93-.11-1.42-.34-.49-.23-.75-.55-.77-.95,0-.07.15-.2.45-.4.3-.19.6-.49.9-.88.3-.4.45-.92.45-1.57,0-1.03-.4-1.85-1.19-2.47s-1.81-.92-3.06-.92c-1.46,0-2.8.41-4,1.22-1.2.82-2.15,2.01-2.86,3.58-.71,1.57-1.06,3.5-1.06,5.78,0,2.16.34,4.01,1.03,5.56.68,1.55,1.64,2.74,2.88,3.56s2.67,1.24,4.3,1.24c.79,0,1.48-.05,2.05-.14.58-.1,1.19-.24,1.84-.43v-3.67c0-.67-.02-1.21-.07-1.6-.05-.4-.22-.69-.5-.88-.29-.19-.79-.29-1.51-.29-.24,0-.46-.02-.67-.07-.2-.05-.32-.28-.34-.68,0-.19.07-.37.2-.54s.32-.25.56-.25c.77.02,1.42.05,1.94.07.53.02,1.2.04,2.02.04s1.48-.01,2-.04c.52-.02,1.15-.05,1.89-.07.24,0,.41.08.52.25.11.17.16.35.16.54-.02.41-.13.64-.32.68-.19.05-.42.07-.68.07-.67,0-1.15.1-1.42.31-.28.2-.44.51-.5.92-.06.41-.09.92-.09,1.55v4.25c-.94.43-1.81.78-2.61,1.04-.8.26-1.66.45-2.56.56-.9.11-1.95.16-3.15.16Z"/>
        <path class="cls-1" d="M211.79,45.04c-.22,0-.37-.08-.47-.25-.1-.17-.14-.35-.14-.54.02-.41.12-.64.29-.68s.37-.07.61-.07c.77,0,1.31-.14,1.62-.41.31-.28.51-.62.59-1.04.08-.42.13-.86.13-1.31v-14.29c0-.46-.04-.89-.13-1.31-.08-.42-.28-.77-.59-1.04-.31-.28-.85-.41-1.62-.41-.24,0-.44-.02-.61-.07-.17-.05-.26-.28-.29-.68,0-.19.05-.37.14-.54.1-.17.25-.25.47-.25.79.02,1.52.05,2.2.07.67.02,1.37.04,2.09.04h11.3c.26,0,.49.06.67.18s.27.35.27.68l.11,5.04c0,.24-.11.42-.34.54-.23.12-.44.18-.63.18-.26,0-.5-.05-.72-.16-.22-.11-.35-.27-.4-.49-.17-1.08-.37-1.95-.59-2.61-.23-.66-.56-1.14-1.01-1.44s-1.09-.46-1.93-.49h-4.82v9.14h6.52c.19.02.33.12.41.29.08.17.13.35.13.54,0,.17-.04.33-.13.49-.08.16-.22.23-.41.23h-6.52v6.8c.02.31.07.65.14,1.03s.28.69.63.95c.35.26.93.38,1.75.36h3.31c.84-.02,1.48-.16,1.93-.41.44-.25.8-.68,1.06-1.28.26-.6.55-1.43.86-2.48.1-.24.26-.4.49-.47.23-.07.47-.08.74-.04.19.02.39.11.59.25.2.14.29.34.27.58l-.72,4.54c-.07.34-.19.55-.34.63s-.39.13-.7.13h-11.88c-.72,0-1.42,0-2.11.02s-1.42.04-2.21.09Z"/>
      </g>
      <path class="cls-1" d="M9.15,31.69c-.42-.8-.74-1.75-1.65-8.4-.91,6.66-1.23,7.61-1.65,8.4-.55.61-1.21,1.06-5.85,2.37,4.63,1.31,5.29,1.77,5.85,2.37.42.8.74,1.75,1.65,8.4.91-6.66,1.23-7.61,1.65-8.4.55-.61,1.21-1.06,5.85-2.37-4.63-1.31-5.29-1.77-5.85-2.37Z"/>
      <path class="cls-1" d="M259.06,31.69c-.42-.8-.74-1.75-1.65-8.4-.91,6.66-1.23,7.61-1.65,8.4-.55.61-1.21,1.06-5.85,2.37,4.63,1.31,5.29,1.77,5.85,2.37.42.8.74,1.75,1.65,8.4.91-6.66,1.23-7.61,1.65-8.4.55-.61,1.21-1.06,5.85-2.37-4.63-1.31-5.29-1.77-5.85-2.37Z"/>
      <g>
        <path class="cls-1" d="M103.59,4.9c.27.08.52.17.75.28.23.11.37.22.39.32.02.09,0,.16-.07.2-.07.05-.16.09-.28.12-.14.04-.25.09-.32.13-.07.05-.17.14-.29.29-.05.07-.11.14-.17.21-.33.42-.61.78-.84,1.06-.24.28-.45.51-.65.67.67.2,1.04.48,1.14.85.03.12.03.24-.03.35-.05.11-.13.19-.25.22-.23.06-.46-.05-.7-.32-.19-.22-.49-.46-.9-.72-.41-.25-.82-.41-1.24-.47-.11-.02-.17-.04-.18-.07,0-.03.01-.05.07-.06.09-.03.34-.03.75,0,.4.03.79.09,1.16.18.84-1.25,1.22-2.09,1.1-2.54-.02-.09-.09-.12-.2-.09-.1.03-.67.24-1.69.68s-1.75.77-2.16.99c-.32.17-.58.34-.77.5-.1.07-.17.12-.23.13-.18.06-.38.05-.61-.04-.22-.08-.39-.18-.49-.29-.05-.04-.07-.09-.09-.13-.02-.04,0-.07.02-.08.01,0,.05,0,.1,0,.06,0,.1,0,.15,0,.18,0,.37-.04.58-.1.06-.02.17-.06.33-.12.12-.05.22-.09.3-.12.36-.13,1.14-.46,2.37-.96,1.23-.5,1.95-.8,2.17-.93.06-.04.11-.08.15-.13.05-.05.09-.09.13-.1.06-.01.22.02.48.09Z"/>
        <path class="cls-1" d="M118.19.28c.11.09.17.18.18.27,0,.05,0,.08-.02.1-.02.02-.05.04-.09.08,0,0-.03.03-.08.06-.05.04-.09.08-.12.14-.34.61-.72,1.19-1.12,1.74.19.05.34.09.46.14.11.05.18.12.19.24,0,.06,0,.15-.02.28-.02.24-.02.39-.01.47.05.44.11.87.16,1.31.13.98.23,1.61.3,1.89.04.16.07.3.09.42.04.33-.04.51-.24.54-.15.02-.28-.02-.37-.11-.09-.09-.15-.24-.18-.44-.05-.35-.08-.69-.11-1.02-.04-.43-.08-.74-.11-.94-.08-.54-.16-1.08-.23-1.62-.04-.33-.14-.56-.27-.68-.89,1.13-1.88,2.08-2.98,2.85-.07.05-.14.08-.18.09-.05,0-.08,0-.09-.03,0-.05.05-.12.17-.23.77-.76,1.45-1.51,2.02-2.24.57-.74,1.01-1.37,1.3-1.92.29-.55.43-.92.4-1.11-.02-.13-.06-.23-.15-.29-.03-.02-.07-.04-.11-.07-.04-.02-.06-.04-.06-.05,0-.05.04-.09.15-.1.26-.03.52,0,.77.07.12.04.24.1.35.19Z"/>
        <path class="cls-1" d="M135.28,4.99c-.66-.39-1.37-.85-2.12-1.35-.75-.51-1.32-.91-1.69-1.22-.03-.02-.06-.05-.11-.07-.04-.02-.08-.03-.12-.03-.06,0-.12.03-.2.09-.9.79-1.46,1.39-1.69,1.79-.03.04-.06.1-.11.19-.05.09-.08.14-.11.15-.02.02-.06.03-.1.03-.08,0-.19-.03-.34-.1-.15-.07-.29-.18-.43-.31-.14-.13-.23-.3-.27-.48,0-.03,0-.06-.01-.09,0-.07,0-.13.03-.19.02-.06.05-.09.07-.09.02,0,.06.02.1.07.04.05.09.08.12.1.07.04.15.05.25.05.22,0,.41-.08.59-.21.19-.14.47-.35.84-.64.37-.29.64-.51.82-.67.12-.1.24-.15.38-.16.15,0,.32.06.49.18.65.46,1.39.93,2.22,1.41.83.48,1.72.93,2.65,1.35.29.15.43.31.42.5,0,.11-.05.19-.12.24-.07.05-.17.08-.29.07-.2,0-.63-.21-1.29-.61ZM134.02,2.03c-.19-.19-.29-.41-.29-.68,0-.27.11-.49.31-.67.2-.18.45-.27.73-.26.29,0,.52.1.72.3.19.19.28.42.28.68,0,.27-.11.49-.32.67-.2.18-.44.26-.71.26-.28,0-.52-.1-.71-.29ZM135.26,1.86c.14-.13.22-.29.22-.48,0-.19-.06-.36-.21-.5-.14-.14-.32-.21-.51-.22-.21,0-.38.06-.53.2-.15.13-.22.3-.23.49,0,.19.07.36.21.49.14.14.32.21.52.21.2,0,.38-.06.52-.19Z"/>
        <path class="cls-1" d="M144.39,4.2c-.12-.08-.22-.18-.31-.3-.09-.12-.13-.25-.11-.38,0-.07.03-.14.07-.21.04-.07.08-.1.11-.1.01,0,.04.02.09.06.07.06.13.11.21.14.27.11.58.19.93.23.3.03.76.07,1.37.13.61.06,1.14.12,1.57.16.93.1,1.7.18,2.32.25.36.04.64.07.84.11.27.05.48.1.62.18.14.07.21.19.18.34-.03.16-.19.23-.47.2-.14-.01-.33-.04-.57-.08-1-.14-2.01-.27-3.02-.39-.54-.06-1.12-.12-1.75-.16-.63-.04-1.04-.05-1.23-.04-.18.02-.31.01-.42,0-.18-.02-.32-.07-.42-.15Z"/>
        <path class="cls-1" d="M161.62,7.16c-.05-.05-.1-.1-.13-.15-.12-.2-.23-.36-.31-.45-.09-.1-.19-.21-.33-.34-.14-.13-.27-.24-.39-.31-.12-.07-.19-.12-.22-.14-.05-.03-.07-.06-.06-.09.01-.04.09-.05.24-.03.15.02.3.05.43.08.41.11.76.28,1.03.52.28.24.37.5.3.77-.02.08-.07.15-.14.2-.07.05-.15.06-.25.04-.06-.02-.12-.05-.18-.1ZM160.28,10c-.09-.19-.16-.45-.2-.77-.04-.32-.05-.54-.02-.67.03-.11.08-.16.14-.14.03,0,.06.05.09.12.03.07.06.14.1.21.1.18.26.3.5.36.19.05.38.06.58.02.99-.15,2.1-.45,3.31-.89,1.21-.44,2.3-.95,3.26-1.56.09-.06.16-.08.21-.07.04.01.06.04.04.08-.02.05-.06.1-.13.16-.72.53-1.5,1-2.37,1.42-.87.42-1.7.77-2.49,1.05-.8.28-1.49.49-2.08.62-.07.01-.2.07-.38.16-.09.05-.16.09-.22.11-.05.02-.11.02-.15.01-.08-.02-.14-.09-.19-.2ZM163.21,5.45c-.07-.05-.11-.11-.13-.16-.12-.25-.24-.44-.34-.57-.1-.13-.23-.28-.39-.43-.08-.08-.17-.15-.25-.21-.08-.06-.14-.1-.17-.13,0,0-.02-.02-.06-.04-.03-.02-.04-.05-.04-.08.02-.06.15-.06.38,0,.28.07.56.19.84.34.27.15.5.33.65.52.16.2.21.39.16.58-.03.1-.08.18-.16.24-.08.06-.17.07-.27.04-.06-.02-.14-.05-.2-.11ZM166.98,5.57c-.07-.07-.1-.15-.11-.26-.02-.21-.06-.39-.13-.56-.06-.16-.18-.32-.33-.48-.01-.01-.04-.04-.08-.08-.04-.04-.07-.08-.09-.11-.02-.03-.03-.05-.02-.07.02-.04.07-.05.16-.03.08.02.24.11.48.26.24.15.45.34.63.56.18.22.23.44.16.67-.03.11-.1.19-.18.23-.08.04-.18.04-.27.01-.07-.02-.14-.07-.21-.13ZM168.2,4.89c-.05-.21-.12-.37-.19-.5-.07-.13-.18-.27-.34-.42-.04-.04-.08-.08-.13-.11-.04-.04-.08-.07-.11-.1-.03-.03-.04-.06-.03-.08.01-.05.08-.05.2-.01.17.05.38.15.61.29.23.14.43.31.58.5.15.19.19.39.13.59-.04.1-.09.17-.18.19-.08.03-.17.03-.24,0-.14-.05-.24-.16-.3-.36Z"/>
      </g>
    </g>
  </g>
</svg>