<?xml version="1.0" encoding="UTF-8"?>
<svg id="Layer_2" data-name="Layer 2" xmlns="http://www.w3.org/2000/svg" viewBox="0 0 334.4 55.58">
  <defs>
    <style>
      .cls-1 {
        fill: #f2e7da;
        stroke-width: 0px;
      }
    </style>
  </defs>
  <g id="text">
    <g>
      <g>
        <path class="cls-1" d="M35.78,55.05c-.22,0-.37-.08-.47-.25-.1-.17-.14-.35-.14-.54.02-.41.12-.64.29-.68.17-.05.37-.07.61-.07.77,0,1.31-.14,1.62-.41.31-.28.51-.62.59-1.04.08-.42.13-.86.13-1.31v-14.29c0-.46-.04-.89-.13-1.31-.08-.42-.28-.77-.59-1.04-.31-.28-.85-.41-1.62-.41-.24,0-.44-.02-.61-.07-.17-.05-.26-.28-.29-.68,0-.19.05-.37.14-.54.1-.17.25-.25.47-.25.79.02,1.52.05,2.2.07.67.02,1.37.04,2.09.04h11.3c.26,0,.49.06.67.18.18.12.27.35.27.68l.11,5.04c0,.24-.11.42-.34.54-.23.12-.44.18-.63.18-.26,0-.5-.05-.72-.16-.22-.11-.35-.27-.4-.49-.17-1.08-.37-1.95-.59-2.61-.23-.66-.56-1.14-1.01-1.44-.44-.3-1.09-.46-1.93-.49h-4.82v9.14h6.52c.19.02.33.12.41.29.08.17.13.35.13.54,0,.17-.04.33-.13.49-.08.16-.22.23-.41.23h-6.52v6.8c.02.31.07.65.14,1.03.07.37.28.69.63.95.35.26.93.38,1.75.36h3.31c.84-.02,1.48-.16,1.93-.41.44-.25.8-.68,1.06-1.28.26-.6.55-1.43.86-2.48.1-.24.26-.4.49-.47.23-.07.47-.08.74-.04.19.03.39.11.59.25.2.14.29.34.27.58l-.72,4.54c-.07.34-.19.54-.34.63-.16.08-.39.13-.7.13h-11.88c-.72,0-1.42,0-2.11.02s-1.42.04-2.21.09Z"/>
        <path class="cls-1" d="M64.37,55.05c-.22,0-.37-.08-.47-.25-.1-.17-.14-.35-.14-.54.02-.41.12-.64.29-.68.17-.05.37-.07.61-.07.77,0,1.31-.14,1.62-.41.31-.28.51-.62.59-1.04.08-.42.13-.86.13-1.31v-14.29c0-.46-.04-.89-.13-1.31-.08-.42-.28-.77-.59-1.04-.31-.28-.85-.41-1.62-.41-.24,0-.44-.02-.61-.07-.17-.05-.26-.28-.29-.68,0-.19.05-.37.14-.54.1-.17.25-.25.47-.25.79.02,1.52.05,2.2.07.67.02,1.37.04,2.09.04h5.62c2.3,0,4.39.46,6.26,1.37,1.87.91,3.36,2.22,4.46,3.92,1.1,1.7,1.66,3.77,1.66,6.19,0,1.92-.37,3.59-1.12,5-.74,1.42-1.74,2.59-2.99,3.51-1.25.92-2.65,1.61-4.19,2.05-1.55.44-3.13.67-4.73.67h-4.97c-.72,0-1.42,0-2.09.02-.67.01-1.4.04-2.2.09ZM74.16,53.61c1.94,0,3.52-.41,4.72-1.24,1.2-.83,2.07-1.99,2.61-3.47.54-1.49.81-3.21.81-5.18s-.35-3.72-1.04-5.26c-.7-1.54-1.71-2.74-3.04-3.62s-2.95-1.31-4.84-1.31c-.38,0-.89,0-1.51.02-.62.01-1.06.02-1.3.02v17.6c0,.96.29,1.61.88,1.94.59.34,1.49.5,2.72.5Z"/>
        <path class="cls-1" d="M97.77,55.05c-.24,0-.41-.08-.5-.25-.1-.17-.14-.35-.14-.54.02-.41.12-.64.29-.68.17-.05.37-.07.61-.07.77,0,1.31-.14,1.62-.41.31-.28.51-.62.59-1.04.08-.42.14-.86.16-1.31v-14.29c-.02-.46-.08-.89-.16-1.31-.08-.42-.28-.77-.59-1.04-.31-.28-.85-.41-1.62-.41-.24,0-.44-.02-.61-.07s-.26-.28-.29-.68c0-.19.05-.37.14-.54.1-.17.26-.25.5-.25.77.02,1.49.05,2.18.07s1.39.04,2.11.04c1.46,0,2.96-.04,4.5-.11.22,0,.38.08.49.25.11.17.16.35.16.54-.02.41-.12.64-.29.68-.17.05-.38.07-.65.07-.74,0-1.28.14-1.6.41-.32.28-.52.62-.59,1.04-.07.42-.12.86-.14,1.31v14.29c.02.46.07.89.14,1.31.07.42.27.77.59,1.04.32.28.86.41,1.6.41.26,0,.48.02.65.07.17.05.26.28.29.68,0,.19-.05.37-.16.54-.11.17-.27.25-.49.25-1.54-.07-3.02-.11-4.46-.11-.72,0-1.43,0-2.12.02-.7.01-1.43.04-2.2.09Z"/>
        <path class="cls-1" d="M122.36,55.05c-.24,0-.41-.08-.5-.25-.1-.17-.14-.35-.14-.54.02-.41.12-.64.29-.68.17-.05.37-.07.61-.07.77,0,1.31-.14,1.62-.41.31-.28.51-.62.59-1.04.08-.42.13-.86.13-1.31v-17.17h-2.48c-.82.02-1.45.2-1.91.52-.46.32-.79.83-1.01,1.51-.22.68-.41,1.57-.58,2.65-.02.22-.17.38-.45.49-.28.11-.55.16-.81.16-.17,0-.35-.06-.56-.18-.2-.12-.31-.3-.31-.54l.11-5.08c0-.34.1-.56.29-.68.19-.12.42-.18.68-.18h17.6c.26,0,.49.06.67.18.18.12.27.35.27.68l.14,5.08c0,.24-.1.42-.31.54-.2.12-.4.18-.59.18-.24,0-.49-.05-.76-.16-.26-.11-.42-.27-.47-.49-.17-1.08-.37-1.96-.59-2.65-.23-.68-.56-1.19-1.01-1.51-.44-.32-1.09-.5-1.93-.52h-2.45v17.17c.02.46.07.89.14,1.31.07.42.27.77.59,1.04.32.28.86.41,1.6.41.24,0,.44.02.61.07.17.05.26.28.29.68,0,.19-.05.37-.14.54-.1.17-.26.25-.5.25-.77-.05-1.49-.08-2.18-.09s-1.37-.02-2.07-.02c-1.44,0-2.94.04-4.5.11Z"/>
        <path class="cls-1" d="M162.11,55.05c-.22,0-.37-.08-.47-.25-.1-.17-.14-.35-.14-.54.02-.41.12-.64.29-.68.17-.05.37-.07.61-.07.77,0,1.31-.14,1.62-.41.31-.28.51-.62.59-1.04.08-.42.13-.86.13-1.31v-14.29c0-.46-.04-.89-.13-1.31-.08-.42-.28-.77-.59-1.04-.31-.28-.85-.41-1.62-.41-.24,0-.44-.02-.61-.07s-.26-.28-.29-.68c0-.19.05-.37.14-.54.1-.17.25-.25.47-.25.79.02,1.52.05,2.2.07.67.02,1.37.04,2.09.04h5.62c2.3,0,4.39.46,6.26,1.37,1.87.91,3.36,2.22,4.46,3.92,1.1,1.7,1.66,3.77,1.66,6.19,0,1.92-.37,3.59-1.12,5-.74,1.42-1.74,2.59-2.99,3.51s-2.65,1.61-4.19,2.05c-1.55.44-3.13.67-4.73.67h-4.97c-.72,0-1.42,0-2.09.02-.67.01-1.4.04-2.2.09ZM171.9,53.61c1.94,0,3.52-.41,4.72-1.24s2.07-1.99,2.61-3.47c.54-1.49.81-3.21.81-5.18s-.35-3.72-1.04-5.26c-.7-1.54-1.71-2.74-3.04-3.62s-2.95-1.31-4.84-1.31c-.38,0-.89,0-1.51.02-.62.01-1.06.02-1.3.02v17.6c0,.96.29,1.61.88,1.94.59.34,1.49.5,2.72.5Z"/>
        <path class="cls-1" d="M195.51,55.05c-.24,0-.41-.08-.5-.25-.1-.17-.14-.35-.14-.54.02-.41.12-.64.29-.68.17-.05.37-.07.61-.07.77,0,1.31-.14,1.62-.41.31-.28.51-.62.59-1.04s.14-.86.16-1.31v-14.29c-.02-.46-.08-.89-.16-1.31s-.28-.77-.59-1.04c-.31-.28-.85-.41-1.62-.41-.24,0-.44-.02-.61-.07s-.26-.28-.29-.68c0-.19.05-.37.14-.54.1-.17.26-.25.5-.25.77.02,1.49.05,2.18.07.68.02,1.39.04,2.11.04,1.46,0,2.96-.04,4.5-.11.22,0,.38.08.49.25.11.17.16.35.16.54-.02.41-.12.64-.29.68s-.38.07-.65.07c-.74,0-1.28.14-1.6.41-.32.28-.52.62-.59,1.04s-.12.86-.14,1.31v14.29c.02.46.07.89.14,1.31s.27.77.59,1.04c.32.28.86.41,1.6.41.26,0,.48.02.65.07.17.05.26.28.29.68,0,.19-.05.37-.16.54-.11.17-.27.25-.49.25-1.54-.07-3.02-.11-4.46-.11-.72,0-1.43,0-2.12.02-.7.01-1.43.04-2.2.09Z"/>
        <path class="cls-1" d="M213.87,55.05c-.24,0-.41-.08-.5-.25-.1-.17-.14-.35-.14-.54.02-.41.12-.64.29-.68.17-.05.37-.07.61-.07.65,0,1.14-.13,1.48-.4.34-.26.61-.61.81-1.04s.4-.88.59-1.33l6.3-14.9c.24-.58.29-1.01.14-1.31-.14-.3-.38-.52-.72-.65-.34-.13-.71-.23-1.12-.31-.36-.07-.6-.14-.72-.2s-.18-.27-.18-.63c0-.41.14-.63.43-.67.29-.04.62-.05,1.01-.05.98,0,1.82.1,2.52.29.7.19,1.3.56,1.8,1.1.5.54.97,1.35,1.4,2.43l6.05,14.9c.17.41.35.83.54,1.26.19.43.45.79.77,1.06.32.28.74.43,1.24.45.26,0,.47.02.63.07.16.05.25.28.27.68,0,.19-.05.37-.16.54-.11.17-.27.25-.49.25-.77-.05-1.44-.08-2.02-.09-.58-.01-1.22-.02-1.94-.02-1.42,0-2.9.04-4.46.11-.24,0-.41-.08-.5-.25-.1-.17-.14-.35-.14-.54.02-.41.12-.64.29-.68.17-.05.37-.07.61-.07,1.18,0,1.82-.22,1.93-.65.11-.43,0-1.14-.34-2.12l-1.22-2.99h-8.89c-.36.91-.62,1.57-.77,1.98s-.25.67-.29.79c-.04.12-.07.19-.09.22-.26.82-.4,1.42-.41,1.82s.18.65.58.77c.4.12,1.06.18,2,.18.26,0,.47.02.63.07.16.05.25.28.27.68,0,.19-.05.37-.16.54-.11.17-.27.25-.49.25-.77-.05-1.43-.08-2-.09-.56-.01-1.21-.02-1.93-.02-.48,0-.88,0-1.21.02s-.65.02-.99.04c-.34.01-.77.03-1.3.05ZM220.71,46.2h7.56l-3.64-9.25h-.11l-3.82,9.25Z"/>
        <path class="cls-1" d="M246.56,55.05c-.24,0-.41-.08-.5-.25-.1-.17-.14-.35-.14-.54.02-.41.12-.64.29-.68.17-.05.37-.07.61-.07.77,0,1.31-.14,1.62-.41.31-.28.51-.62.59-1.04.08-.42.13-.86.13-1.31v-14.26c0-.46-.04-.9-.13-1.33-.08-.43-.28-.79-.59-1.06-.31-.28-.85-.41-1.62-.41-.24,0-.44-.02-.61-.07s-.26-.28-.29-.68c0-.19.05-.37.14-.54.1-.17.26-.25.5-.25.77.02,1.49.05,2.18.07s1.39.04,2.11.04h6.19c1.94.02,3.52.32,4.73.9,1.21.58,2.09,1.31,2.65,2.2.55.89.83,1.81.83,2.77,0,1.27-.51,2.47-1.53,3.6-1.02,1.13-2.45,1.93-4.3,2.41.91,1.44,1.84,2.89,2.77,4.34.94,1.45,2.02,2.81,3.24,4.09.34.26.67.48.99.65.32.17.71.28,1.17.32.19.02.38.05.58.09s.3.26.32.67c0,.19-.05.37-.14.54s-.26.25-.5.25c-.5-.02-.91-.04-1.21-.05-.3-.01-.59-.02-.88-.04s-.67-.02-1.15-.02c-.98-.19-1.82-.54-2.5-1.04-.68-.5-1.35-1.2-2-2.09-.67-.91-1.3-1.84-1.87-2.77-.58-.94-1.14-1.85-1.69-2.74-.31-.5-.63-.87-.95-1.1s-.93-.34-1.82-.34h-1.04v5.87c.02.46.07.89.14,1.31s.27.77.59,1.04c.32.28.86.41,1.6.41.24,0,.44.02.61.07.17.05.26.28.29.68,0,.19-.05.37-.14.54-.1.17-.26.25-.5.25-1.54-.07-3.04-.11-4.5-.11-.72,0-1.42,0-2.09.02-.67.01-1.39.04-2.16.09ZM252.72,43.46h3.17c1.22,0,2.19-.17,2.9-.5s1.24-.77,1.6-1.3c.36-.53.59-1.08.7-1.66.11-.58.16-1.1.16-1.58,0-.79-.17-1.56-.52-2.3-.35-.74-.96-1.36-1.84-1.84-.88-.48-2.09-.72-3.65-.72-1.03,0-1.71.2-2.03.59-.32.4-.49,1.2-.49,2.39v6.91Z"/>
        <path class="cls-1" d="M282.56,55.05c-.24,0-.41-.08-.5-.25s-.14-.35-.14-.54c.02-.41.12-.64.29-.68.17-.05.37-.07.61-.07.77,0,1.31-.14,1.62-.41.31-.28.51-.62.59-1.04s.13-.86.13-1.31v-4.5c0-.17-.13-.56-.38-1.17-.25-.61-.58-1.33-.97-2.14-.4-.82-.81-1.66-1.24-2.52-.43-.86-.83-1.65-1.21-2.36s-.67-1.25-.88-1.64c-.5-.91-1.06-1.57-1.66-1.96-.6-.4-1.28-.68-2.05-.85-.34-.07-.57-.13-.7-.18s-.2-.26-.2-.65c0-.41.14-.63.43-.67.29-.04.62-.05,1.01-.05,1.7,0,3.08.26,4.12.79s1.97,1.51,2.79,2.95c.7,1.3,1.33,2.56,1.89,3.78.56,1.22,1.19,2.47,1.89,3.74h.11l4-7.88c.41-.82.46-1.31.14-1.49-.31-.18-.89-.27-1.73-.27-.24,0-.44-.02-.61-.07s-.26-.28-.29-.68c0-.19.05-.37.14-.54.1-.17.25-.25.47-.25.77.02,1.43.05,2,.07.56.02,1.21.04,1.93.04s1.31-.01,1.78-.04,1.09-.05,1.85-.07c.24,0,.41.08.5.25.1.17.14.35.14.54-.02.41-.11.64-.27.68-.16.05-.37.07-.63.07-.91,0-1.66.2-2.23.59s-1.09,1.01-1.55,1.85l-4.07,7.67c-.22.46-.4.84-.54,1.15-.14.31-.25.64-.32.97-.07.34-.11.78-.11,1.33v3.49c.02.46.07.89.14,1.31.07.42.27.77.59,1.04.32.28.86.41,1.6.41.26,0,.47.02.63.07.16.05.25.28.27.68,0,.19-.05.37-.14.54s-.25.25-.47.25c-.77-.05-1.5-.08-2.2-.09s-1.4-.02-2.12-.02c-1.42,0-2.9.04-4.46.11Z"/>
      </g>
      <path class="cls-1" d="M9.15,41.71c-.42-.8-.74-1.75-1.65-8.4-.91,6.66-1.23,7.61-1.65,8.4-.55.61-1.21,1.06-5.85,2.37,4.63,1.31,5.29,1.77,5.85,2.37.42.8.74,1.75,1.65,8.4.91-6.66,1.23-7.61,1.65-8.4.55-.61,1.21-1.06,5.85-2.37-4.63-1.31-5.29-1.77-5.85-2.37Z"/>
      <path class="cls-1" d="M328.17,41.55c-.45-.85-.79-1.86-1.76-8.96-.97,7.1-1.31,8.11-1.76,8.96-.59.65-1.29,1.13-6.24,2.53,4.94,1.4,5.65,1.88,6.24,2.53.45.85.79,1.86,1.76,8.96.97-7.1,1.31-8.11,1.76-8.96.59-.65,1.3-1.13,6.24-2.53-4.94-1.4-5.65-1.88-6.24-2.53Z"/>
      <g>
        <path class="cls-1" d="M109.78,12.56s.03-.08.04-.14c.02-.06.03-.11.05-.15.02-.03.04-.05.06-.06.04-.01.14.01.31.08.16.06.32.14.47.22.15.09.23.15.25.2-.05.11-.19.22-.42.32.27.86.54,1.71.8,2.57.3.18.6.3.9.35.3.05.63.04.99-.03.36-.07.84-.19,1.44-.36,1.77-.52,3.04-.88,3.81-1.12.01.04.02.09.04.13-.12.06-.22.15-.28.26-.06.11-.08.24-.05.39-1.12.31-2.23.62-3.34.95-.61.18-1.11.29-1.51.34-.4.05-.76.02-1.08-.09-.32-.1-.65-.3-.99-.59-.1.26-.23.54-.39.87-.16.32-.3.6-.42.82.01,0,.02.03.03.06.02.06,0,.12-.05.18-.23-.21-.46-.41-.7-.61.25-.24.61-.63,1.07-1.16-.3-.95-.6-1.9-.9-2.85-.14.04-.28.09-.42.13-.23.08-.45.2-.68.36-.13-.14-.26-.27-.39-.41.25-.04.53-.1.87-.19.13-.04.27-.09.4-.13.02-.11.05-.22.07-.33ZM107.94,9.46c.65,0,1.15.1,1.52.3.37.2.59.42.66.67.04.12.04.23,0,.33-.04.1-.11.16-.2.19-.09.03-.2.03-.31,0-.14-.26-.38-.52-.72-.77-.34-.25-.69-.45-1.03-.6.03-.03.06-.07.09-.1ZM116.03,9.9s.02-.06.04-.11c.02-.05.03-.09.05-.11.02-.03.04-.04.06-.05.04-.01.13,0,.27.06.14.05.28.11.4.19.13.07.2.13.21.18-.02.04-.06.09-.12.14-.06.05-.12.09-.19.13.29,1.06.58,2.12.87,3.17.04.15.06.28.04.39-.01.11-.07.21-.17.3-.1.09-.27.18-.5.27-.06-.16-.14-.26-.23-.3-.12-.05-.33-.06-.63-.02-.01-.05-.03-.1-.04-.14.44-.09.71-.15.81-.18.06-.02.1-.04.11-.07.02-.03.02-.08,0-.14-.3-1.07-.59-2.13-.89-3.2-1.45.4-2.89.82-4.33,1.26.13.43.26.87.4,1.3.25.79.51,1.53.76,2.22-.03.08-.08.16-.18.24-.09.08-.19.14-.31.18-.05.01-.09,0-.13-.02-.04-.03-.07-.07-.09-.12-.08-.37-.21-.86-.38-1.47-.08-.27-.17-.55-.25-.82-.25-.8-.49-1.44-.73-1.92.29.04.58.07.87.11.05-.02.11-.03.16-.05-.12-.38-.23-.77-.35-1.15-.24-.8-.48-1.44-.73-1.92.31.03.63.05.94.08.81-.24,1.63-.48,2.45-.71.03-.08.06-.16.09-.24,0-.02.02-.06.04-.11.02-.05.04-.09.06-.12.02-.03.04-.04.07-.05.04-.01.14,0,.3.05.16.04.3.1.45.16.14.06.22.12.23.16-.03.06-.07.12-.13.16-.06.05-.15.1-.27.14.23.81.45,1.62.68,2.43.07-.02.15-.04.22-.06.03-.08.05-.16.08-.24ZM111.75,8.64c.25.83.5,1.66.74,2.49.34-.1.69-.2,1.03-.31-.22-.74-.44-1.35-.67-1.83.3.04.59.07.88.11.32-.09.63-.18.95-.27-.09-.32-.18-.65-.28-.97-.89.25-1.78.51-2.67.78ZM114.87,11.39s.02-.07.05-.13c.03-.06.06-.1.1-.11.07-.02.21.02.41.11.21.09.32.18.34.25-.01.04-.04.08-.09.13-.05.05-.11.09-.18.11.05.19.11.38.16.58.04.11.07.23.11.34.08.27.17.51.25.74-.01.07-.06.14-.16.23-.1.09-.19.14-.27.17-.03,0-.05.02-.08.02-.04-.15-.09-.3-.13-.45-.46.13-.91.26-1.37.4.04.13.08.27.12.4,0,.03-.03.08-.12.15-.09.07-.18.13-.28.16-.04.01-.08,0-.12-.03-.04-.03-.06-.07-.08-.12-.03-.16-.06-.33-.1-.48-.02-.07-.04-.15-.06-.22-.04-.15-.09-.29-.13-.44-.16-.54-.32-.98-.5-1.33.26.04.51.08.77.12.42-.12.85-.25,1.27-.37.02-.07.05-.14.07-.21ZM113.57,12.24c.12.42.25.83.37,1.25.46-.13.91-.27,1.37-.4-.12-.42-.24-.83-.36-1.25-.46.13-.92.27-1.38.4ZM113.71,9.43c.12.41.24.83.36,1.24.35-.1.71-.2,1.06-.3-.12-.41-.23-.83-.35-1.24-.36.1-.71.2-1.07.31Z"/>
        <path class="cls-1" d="M130.28,4.82s.05-.09.08-.16c.03-.07.06-.12.08-.15.02-.03.05-.06.07-.06.04,0,.15.03.32.11.17.08.33.17.49.26.15.1.24.17.24.21,0,.11-.07.18-.22.2-1.1.21-2.2.43-3.29.65.14.69.29,1.38.43,2.07.92-.19,1.84-.38,2.77-.55.05-.12.11-.24.17-.36.02-.04.05-.09.08-.16.03-.07.06-.12.09-.16.03-.03.05-.06.08-.06.04,0,.15.03.32.11.17.08.34.17.49.27.16.1.24.17.25.22,0,.11-.08.18-.23.2-1.42.26-2.84.54-4.26.84-.17.63-.37,1.28-.6,1.96-.23.68-.46,1.26-.68,1.74.87-.27,2.34-.73,4.42-1.34-.58-.52-1.24-1.01-1.97-1.44.03-.04.07-.08.1-.11.76.21,1.39.47,1.89.75.51.29.88.58,1.14.87.25.29.39.55.44.78.02.12.02.23-.02.32-.04.08-.11.14-.2.15-.09.02-.2,0-.31-.05-.17-.32-.47-.68-.89-1.09-1.49.62-3.4,1.37-5.71,2.27-.04.12-.1.21-.2.27-.21-.27-.43-.54-.64-.82.27-.07.81-.23,1.63-.47.14-.49.27-1.08.4-1.77.13-.68.23-1.3.29-1.83-.62.13-1.23.27-1.84.41-.48.12-.98.28-1.49.49-.12-.15-.25-.29-.37-.44.38-.05.84-.13,1.37-.24.95-.21,1.89-.42,2.84-.62-.15-.69-.29-1.38-.44-2.06-.56.12-1.12.24-1.68.36-.49.11-.99.28-1.52.48-.13-.15-.26-.29-.39-.44.39-.05.85-.13,1.39-.23.71-.16,1.43-.31,2.14-.47-.16-.74-.33-1.34-.51-1.81.75.03,1.13.1,1.15.2,0,.03-.01.07-.06.12-.05.05-.1.1-.16.14.08.4.17.81.25,1.21.7-.15,1.41-.29,2.12-.43.06-.12.11-.23.17-.35Z"/>
        <path class="cls-1" d="M145.22,2.74c.61.16,1.15.48,1.6.94.45.47.72,1.09.8,1.88.11,1.03-.14,1.86-.73,2.47-.59.61-1.24,1.05-1.95,1.29-.71.25-1.31.41-1.8.47-.09.01-.14,0-.15-.03,0-.04.12-.1.39-.18,1.13-.35,2.02-.84,2.68-1.48.66-.64.94-1.48.84-2.51-.08-.7-.29-1.26-.66-1.68-.37-.42-.81-.71-1.32-.86-.51-.15-1.04-.2-1.57-.13-.12.01-.21.03-.26.04.11.16.21.36.29.6.08.24.13.46.16.66.06.49,0,1.07-.16,1.73-.15.62-.35,1.16-.58,1.63-.23.47-.47.83-.71,1.09-.24.26-.44.4-.6.42-.24.03-.49-.05-.73-.26-.25-.2-.46-.49-.64-.85-.18-.36-.3-.75-.36-1.17-.1-.71,0-1.38.31-1.99.31-.61.78-1.12,1.38-1.51.61-.39,1.27-.63,1.98-.72.58-.07,1.18-.03,1.79.13ZM142.93,3.01c-.54.13-1.02.38-1.44.73-.42.35-.74.78-.95,1.29-.21.51-.27,1.05-.19,1.64.06.4.15.72.29.97.14.25.27.43.41.54.14.11.25.16.32.15.17-.02.35-.17.56-.45.2-.28.38-.58.54-.91.31-.63.51-1.19.61-1.7.1-.51.12-1,.06-1.48-.04-.29-.11-.54-.21-.76Z"/>
        <path class="cls-1" d="M157.07,8.41c.01.08.02.15.03.22,0,.07.01.11.02.14,0,.08-.07.16-.18.23-.11.07-.23.11-.37.12-.05,0-.1-.02-.15-.06-.05-.04-.07-.08-.07-.13,0-.39,0-.78,0-1.15,0-.37-.01-.86-.04-1.46-.07-1.21-.14-2.42-.21-3.63-.05-.84-.13-1.52-.26-2.04.3.12.59.23.89.35,1.52-.08,3.04-.14,4.57-.19.05-.07.11-.15.16-.22.01-.02.04-.05.07-.1.03-.04.06-.08.09-.1.03-.02.06-.03.08-.03.04,0,.13.04.27.13.14.09.26.18.38.29.12.1.17.18.17.23-.08.09-.22.15-.43.2.04,1.66.08,3.31.13,4.97.03.83.08,1.61.14,2.35-.05.07-.14.14-.27.21-.13.07-.25.11-.37.12-.04,0-.07-.02-.1-.06-.02-.04-.04-.09-.04-.14.01-.12.02-.24.03-.36,0-.09,0-.19,0-.28-1.52.04-3.04.11-4.56.19,0,.07,0,.14.01.21ZM161.5,4.2c-.03-1.03-.06-2.07-.09-3.1-1.58.05-3.15.11-4.73.19.06,1.03.11,2.06.17,3.1,1.55-.08,3.1-.15,4.65-.19ZM156.87,4.69c.06,1.07.12,2.15.17,3.22,1.52-.08,3.04-.14,4.56-.19-.03-1.08-.06-2.15-.09-3.23-1.55.04-3.1.11-4.64.19Z"/>
        <path class="cls-1" d="M171.59,2.06c-.4,0-.82.03-1.26.11-.08-.17-.17-.34-.25-.5.39.05.85.08,1.4.11.62.01,1.24.03,1.86.05.07-.09.13-.18.2-.27.02-.03.05-.07.09-.12.04-.05.08-.09.1-.12.03-.03.06-.04.09-.04.04,0,.13.05.26.15.13.1.25.21.36.32.11.11.16.19.16.24-.03.1-.12.15-.26.14-.91-.04-1.83-.06-2.74-.09ZM173,.26s.05-.06.09-.11c.04-.05.08-.09.1-.11.03-.03.06-.04.09-.04.04,0,.13.05.25.15.12.1.24.2.34.31.11.11.16.19.16.24-.03.11-.12.16-.27.15-.44-.02-.89-.03-1.33-.04-.5,0-1.03.03-1.59.1-.08-.17-.17-.34-.25-.51.39.05.86.08,1.41.11.26,0,.53.01.79.02.07-.09.14-.18.21-.26ZM171.67,3.34c-.28,0-.57.04-.88.12-.08-.17-.17-.34-.25-.51.38.05.84.08,1.39.11.3,0,.59.02.89.03.06-.08.12-.16.19-.24.03-.03.07-.08.13-.15.05-.06.1-.1.14-.09.07,0,.2.09.39.27.19.18.29.31.28.38-.03.11-.12.16-.27.15-.67-.02-1.34-.04-2.01-.06ZM171.64,4.61c-.28,0-.57.04-.87.12-.08-.17-.17-.34-.25-.51.38.05.84.08,1.38.11.29,0,.59.02.88.03.06-.08.12-.16.18-.24.03-.03.07-.08.12-.15.05-.06.1-.1.14-.09.07,0,.2.09.39.27.19.18.29.31.28.38-.03.11-.12.16-.26.15-.67-.02-1.33-.04-2-.06ZM171.21,8.74s-.06.08-.17.13c-.11.05-.22.07-.35.07-.04,0-.08-.02-.11-.06-.03-.04-.04-.09-.04-.14.03-.27.06-.61.08-1.02,0-.21,0-.41.01-.62.01-.75-.01-1.38-.09-1.89.26.12.52.24.78.37.5.01,1,.03,1.5.04.05-.06.11-.12.16-.18.02-.02.06-.05.1-.11.05-.05.09-.08.13-.08.04,0,.12.05.24.13.12.08.23.18.34.28.1.1.15.17.15.22-.09.09-.23.15-.42.19,0,.28-.02.57-.03.85-.01.68,0,1.22,0,1.63-.04.05-.13.11-.25.16-.13.06-.24.08-.33.08-.03,0-.06,0-.09,0,0-.16.01-.31.01-.47-.54-.02-1.08-.03-1.63-.04,0,.16,0,.32-.01.48ZM171.27,5.87c-.02.7-.03,1.39-.05,2.09.54.01,1.09.03,1.63.04.02-.7.04-1.39.07-2.09-.55-.02-1.1-.03-1.65-.05ZM178.18.61s.06-.07.11-.13c.05-.06.1-.09.14-.09.04,0,.12.05.25.15.12.1.23.21.34.33.1.12.15.2.15.25-.09.09-.24.15-.44.17-.02.37-.04.73-.07,1.1-.04.92-.05,1.63-.06,2.13-.04.06-.14.11-.28.16-.14.05-.26.07-.35.07-.03,0-.07,0-.1,0,0-.15.02-.31.03-.46-.85-.05-1.7-.09-2.56-.13-.06,1.27-.11,2.53-.17,3.8,0,.11.02.18.08.21.06.04.2.06.42.07.4.02.79.04,1.19.06.64.03,1.01.05,1.12.04.06,0,.11-.01.14-.03.03-.02.06-.05.08-.11.08-.16.22-.65.42-1.48.04,0,.08,0,.12,0-.02.52-.04,1.04-.07,1.56.11.05.18.09.22.13.04.04.06.1.06.16,0,.11-.07.18-.18.23-.12.05-.32.08-.63.09-.3,0-.75,0-1.33-.04-.42-.02-.84-.04-1.26-.06-.29-.01-.51-.04-.66-.09-.15-.05-.25-.12-.3-.22-.05-.1-.08-.25-.07-.44.03-.85.07-1.7.1-2.55.03-.84.02-1.52-.05-2.05.3.14.59.27.89.41.81.04,1.62.08,2.43.12.06-.96.11-1.91.17-2.87-.53-.03-1.06-.06-1.58-.09-.5-.02-1.03,0-1.59.07-.08-.17-.17-.35-.25-.52.39.06.86.1,1.4.14.65.03,1.3.06,1.95.1.06-.07.12-.15.18-.22Z"/>
        <path class="cls-1" d="M193.78,4.53c.16.16.22.36.19.59-.04.3-.21.53-.51.7-.3.17-.69.32-1.17.45-.27.06-.53.13-.8.2-.53.13-.89.22-1.07.27-.04.14-.07.35-.11.65-.06.47-.1.73-.11.79-.02.1-.07.18-.16.24-.09.06-.17.08-.26.07-.08-.01-.15-.06-.2-.14-.05-.08-.07-.17-.06-.26,0-.07.04-.2.08-.38.05-.25.1-.5.16-.76-.42.16-.76.35-1.01.55-.25.21-.39.45-.42.74-.06.5.43.81,1.45.94.16.02.32.03.48.02.17,0,.32-.02.47-.03.28-.02.49-.03.64,0,.26.03.38.14.36.32-.03.2-.23.31-.62.34-.39.03-.78.02-1.2-.03-.84-.1-1.39-.29-1.64-.58-.25-.28-.36-.6-.32-.96.04-.37.22-.68.55-.93.32-.25.76-.47,1.32-.67.02-.07.03-.17.05-.31.09-.69-.09-1.07-.51-1.12-.25-.03-.53.08-.83.34-.3.25-.6.54-.89.84-.02.02-.08.09-.17.19-.09.1-.17.18-.24.24-.08.06-.14.09-.19.08-.12-.01-.2-.06-.25-.16-.05-.09-.07-.2-.06-.32.02-.16.07-.27.15-.35.07-.05.13-.09.2-.14.24-.17.45-.33.63-.47.18-.14.34-.31.49-.5.42-.54.77-1.12,1.07-1.75-.28.04-.55.05-.82.02-.23-.03-.42-.08-.57-.17-.15-.09-.33-.23-.54-.42-.03-.02-.04-.05-.04-.06,0-.03.02-.04.06-.03.03,0,.08.02.14.05.22.1.45.17.7.2.12.01.3.02.53.01.23,0,.48-.04.75-.1.07-.18.11-.34.13-.48.03-.26-.05-.49-.25-.68-.03-.03-.05-.06-.04-.09.02-.1.08-.14.19-.13.06,0,.18.04.35.1.17.06.28.12.31.18.03.04.04.12.03.22,0,.04-.02.11-.04.2.1.09.25.14.44.16.1.01.17.01.22,0,.07,0,.14,0,.21,0,.16.02.23.09.22.2-.01.09-.08.18-.2.27-.12.09-.27.17-.44.23-.24.09-.54.18-.91.26-.34.74-.66,1.35-.96,1.83.21-.09.42-.12.61-.1.34.04.59.16.76.36.17.2.26.46.29.77.16-.26.32-.49.49-.68.17-.19.37-.38.61-.56.24-.18.51-.33.84-.44.33-.11.63-.15.91-.11.23.03.42.13.58.29ZM189.92,2.58c.05-.01.09-.03.13-.05.04-.02.07-.03.1-.04.05-.02.08-.04.08-.07,0-.03-.02-.06-.07-.11-.04-.03-.07-.06-.11-.08,0,.02-.05.14-.14.36ZM192.99,5.36c.24-.2.37-.37.39-.51.03-.19-.09-.31-.35-.34-.19-.03-.41,0-.67.1-.26.09-.51.22-.74.4-.21.16-.42.37-.63.65-.21.28-.37.53-.47.75,0,0,0,0,0,0,.05-.01.09-.03.14-.04.08-.02.15-.05.23-.07.59-.19.99-.33,1.2-.42.36-.15.67-.32.91-.52Z"/>
        <path class="cls-1" d="M202.07,5.32c-.13-.27-.27-.51-.44-.72.04-.02.07-.04.11-.06.27.14.49.29.67.45,0-.01.02-.02.03-.04.18-.29.36-.61.54-.95.17-.34.31-.64.4-.9.63.36.93.59.91.68,0,.03-.04.05-.11.06-.06,0-.13.02-.19.02-.57.58-1.03,1.01-1.4,1.3.21.26.29.5.25.72-.02.1-.06.17-.13.23-.07.05-.14.07-.23.06-.08-.01-.15-.06-.22-.13,0-.21-.07-.45-.2-.72ZM201.95,8.68c.25.07.36.14.35.2,0,.04-.05.07-.13.09-.06.02-.13.03-.19.05-.43.91-.88,1.59-1.34,2.04-.05-.04-.1-.07-.15-.11.08-.14.18-.31.28-.52.15-.3.28-.64.4-1.02.12-.38.2-.71.24-.99.18.09.35.18.53.27ZM203.3,7.86c-.13.64-.25,1.28-.38,1.92-.15.81-.27,1.59-.37,2.32-.06.05-.15.09-.26.12-.12.03-.24.04-.35.01-.05-.01-.1-.04-.13-.09-.04-.05-.05-.1-.04-.14.1-.38.2-.75.29-1.11.09-.36.2-.83.32-1.42.1-.54.21-1.07.31-1.61-.36,0-.71,0-1.07,0-.08.11-.17.16-.28.16-.05-.27-.09-.53-.14-.8.31.05.61.1.92.15.32-.36.66-.76,1.03-1.21.21-.26.43-.54.64-.85.22-.31.38-.59.51-.84.58.39.86.62.84.71,0,.02-.02.03-.04.04-.02,0-.05,0-.08.01-.07,0-.13,0-.2.01-.33.33-.71.69-1.14,1.09-.43.4-.86.76-1.28,1.09.54.08,1.08.15,1.61.23-.05-.3-.14-.63-.26-.97.04-.01.09-.02.13-.04.33.3.55.58.67.86.12.28.16.51.12.72-.03.13-.08.23-.16.29-.08.07-.16.09-.25.07-.09-.02-.17-.08-.24-.17.03-.17.03-.35.01-.55-.24,0-.49,0-.73,0ZM203.51,10.42c.04-.22.06-.48.03-.77-.02-.29-.07-.56-.13-.81.04,0,.09-.02.13-.02.25.26.42.51.51.76.09.24.12.46.08.64-.03.14-.08.24-.16.31-.08.07-.16.09-.25.08-.09-.02-.16-.08-.23-.18ZM209.83,9.5c.16.19.24.31.22.39-.03.03-.08.05-.15.07-.07.02-.15.03-.24.02-.23.97-.45,1.94-.68,2.91-.06.27-.15.45-.27.55-.12.1-.33.14-.63.11.01-.11.02-.21.02-.27,0-.07-.02-.13-.05-.18-.05-.11-.19-.21-.41-.3-.01.09-.03.18-.04.27-.05.05-.12.09-.21.12-.09.03-.2.03-.32,0-.03,0-.06-.03-.08-.08-.02-.04-.02-.09,0-.15.09-.29.2-.67.32-1.14.05-.23.1-.46.15-.68-.24-.05-.49-.11-.73-.16-.05.21-.09.42-.14.64-.03.13-.05.26-.08.39-.06.29-.1.57-.14.82-.04.04-.12.08-.21.11-.1.03-.21.03-.33,0-.03,0-.06-.04-.08-.08-.02-.05-.02-.09-.01-.14.1-.29.2-.67.32-1.16.05-.23.1-.46.15-.7-.24-.05-.48-.1-.73-.15-.05.22-.09.43-.14.65-.02.13-.05.27-.07.4-.06.3-.1.58-.14.85-.04.05-.11.1-.22.13-.11.03-.22.04-.32.01-.05-.01-.08-.04-.11-.08-.03-.05-.04-.1-.03-.15.16-.57.31-1.15.44-1.72.07-.32.13-.65.2-.97-.44.98-1.07,1.74-1.87,2.28-.04-.04-.08-.08-.12-.13.58-.58,1.03-1.25,1.34-2.01.31-.76.57-1.63.77-2.63.07-.34.14-.68.21-1.02.08-.41.14-.77.16-1.08.24.18.48.36.72.54,1.05.22,2.09.45,3.13.68.07-.06.14-.12.2-.18.03-.02.07-.06.13-.11.06-.05.12-.07.16-.06.04,0,.11.07.22.19.1.12.2.24.28.37.08.13.12.22.11.26-.04.02-.11.04-.19.06-.09.02-.18.02-.27.02-.04.19-.09.38-.13.58-.02.11-.05.23-.07.34-.05.26-.1.51-.13.76-.05.05-.14.09-.27.12-.14.03-.25.03-.36.01-.03,0-.06-.01-.09-.02.03-.12.05-.24.08-.36-1.11-.25-2.21-.49-3.32-.73-.05.23-.11.48-.18.73.12.09.24.19.37.28,1.06.22,2.12.46,3.17.7.05-.05.09-.09.14-.14.02-.02.05-.04.09-.08.04-.04.09-.05.13-.04.07.02.18.12.35.3ZM210.67,5.04c.11.13.21.26.3.4.09.14.13.23.12.28-.05.1-.14.13-.29.1-1.27-.3-2.54-.58-3.82-.85-.49-.1-1.02-.16-1.59-.19-.05-.19-.1-.38-.16-.56.37.12.83.24,1.37.36,1.07.23,2.14.46,3.21.7.09-.08.18-.16.27-.23.03-.03.07-.06.12-.1.04-.04.08-.07.13-.09.04-.02.08-.03.1-.03.04,0,.12.08.23.21ZM209.47,6.81c-1.12-.25-2.23-.5-3.35-.73-.1.47-.2.93-.29,1.4,1.11.23,2.22.47,3.33.73.11-.46.21-.93.32-1.39ZM205.55,10.45c.24.05.48.1.73.15.1-.47.2-.93.3-1.4-.24-.05-.49-.1-.73-.16-.1.47-.2.93-.3,1.4ZM206.78,10.72c.25.05.49.11.74.16.1-.47.21-.93.31-1.4-.25-.05-.49-.11-.74-.16-.1.47-.2.93-.3,1.4ZM208.02,10.99c.27.06.53.12.8.18.11-.46.21-.93.32-1.39-.27-.06-.53-.12-.8-.18-.1.46-.21.93-.31,1.39ZM208.75,11.45c-.26-.06-.53-.12-.79-.18-.05.21-.09.41-.14.62-.05.26-.1.51-.15.76.05.01.13.04.25.07.12.04.24.07.36.11.06.01.1,0,.13-.01.03-.02.04-.06.06-.12.1-.42.19-.83.29-1.25Z"/>
        <path class="cls-1" d="M223.75,14.4s.09-.06.14-.09c.05-.03.09-.06.14-.09.04-.02.08-.03.11-.02.04.01.11.09.22.23.1.14.2.29.27.44.08.15.11.25.1.29-.05.1-.15.12-.29.08-1.14-.37-2.29-.73-3.44-1.07.33.51.8,1.02,1.41,1.54.61.52,1.22.96,1.85,1.31-.02.04-.03.07-.05.11-.14-.02-.27,0-.39.06-.13.06-.23.17-.31.31-.62-.46-1.17-.98-1.68-1.58-.5-.6-.88-1.21-1.14-1.85-.02,0-.03-.01-.05-.02-.08.27-.16.54-.24.8-.18.66-.32,1.18-.4,1.56-.05.05-.14.09-.27.11-.13.02-.25.01-.37-.02-.06-.02-.1-.05-.13-.1-.02-.05-.03-.1-.01-.15.13-.34.29-.81.49-1.4.08-.27.16-.54.24-.82-.62.34-1.33.59-2.14.77-.81.18-1.66.28-2.55.3-.01-.06-.02-.12-.03-.19.74-.09,1.46-.25,2.16-.47.71-.22,1.33-.5,1.87-.82-.53-.16-1.07-.31-1.61-.46-.47-.13-.99-.22-1.54-.28-.04-.18-.08-.37-.12-.55.36.14.79.29,1.31.44.93.26,1.85.52,2.78.8.1-.35.17-.62.19-.83.56.36.83.57.81.66,0,.03-.04.05-.1.07-.06.02-.12.03-.18.05-.02.08-.05.17-.07.25.91.27,1.82.55,2.73.84.1-.08.2-.15.3-.23ZM223.53,13.02s.08-.05.12-.09c.04-.03.09-.06.13-.08.04-.02.08-.03.11-.02.04.01.11.08.21.22.1.13.19.27.27.42.08.14.11.24.1.28-.05.1-.15.12-.29.08-1.92-.61-3.86-1.2-5.8-1.75-.02.09-.05.17-.07.26,0,.03-.08.06-.2.08-.12.02-.25.02-.37-.02-.05-.01-.1-.05-.12-.1-.03-.05-.04-.1-.02-.15.22-.6.44-1.27.66-2.02.11-.38.21-.75.32-1.13-.6.34-1.2.6-1.79.76-.03-.05-.05-.1-.08-.15.49-.23,1.03-.58,1.62-1.04.27-.21.56-.48.85-.8.3-.33.52-.61.66-.84.53.47.78.76.75.84,0,.03-.05.04-.12.03-.07,0-.14-.01-.21-.02-.17.17-.42.37-.74.6,0,0,.02.01.03.02.67.19,1.33.38,2,.58.16-.16.31-.35.47-.58.15-.23.28-.44.39-.64.57.45.84.71.82.79,0,.02-.02.03-.04.03-.02,0-.05,0-.08,0-.07,0-.13-.01-.2-.02-.31.18-.66.34-1.05.5.78.23,1.57.47,2.35.72.09-.07.19-.15.28-.22.04-.02.08-.05.12-.09.05-.04.09-.06.13-.08.04-.02.08-.03.11-.02.04.01.11.09.22.22.1.14.19.28.28.42.08.15.11.24.1.28-.06.09-.16.12-.29.07-1.02-.32-2.04-.64-3.07-.95-.08.28-.17.56-.25.84.61.18,1.22.37,1.84.56.09-.06.18-.13.27-.19.03-.01.07-.04.12-.08.05-.04.1-.07.13-.08.03-.01.06-.02.09,0,.04.01.11.08.2.21.09.13.18.25.25.39.07.13.1.22.08.27-.06.09-.16.12-.3.07-.92-.29-1.84-.57-2.76-.85-.08.28-.17.56-.25.84.61.18,1.22.37,1.82.56.09-.06.18-.13.27-.19.03-.02.07-.05.12-.08.05-.04.1-.06.13-.08.04-.02.07-.02.09-.01.04.01.11.08.2.2.09.12.18.25.25.39.07.13.1.22.09.27-.06.09-.16.12-.31.07-.91-.29-1.83-.57-2.75-.85-.09.29-.18.59-.26.88.71.21,1.42.43,2.12.65.09-.07.18-.14.27-.21ZM221.16,10.09c.08-.28.17-.56.25-.84-.68-.2-1.37-.4-2.05-.6-.08.28-.16.56-.24.85.68.19,1.36.39,2.05.59ZM218.79,10.64c.68.19,1.36.39,2.03.59.08-.28.17-.56.25-.84-.68-.2-1.36-.4-2.04-.59-.08.28-.16.56-.24.85ZM218.46,11.8c.67.19,1.35.39,2.02.59.09-.29.17-.59.26-.88-.68-.2-1.35-.4-2.03-.59-.08.29-.17.59-.25.88Z"/>
      </g>
    </g>
  </g>
</svg>