<?xml version="1.0" encoding="UTF-8"?>
<svg id="Layer_2" data-name="Layer 2" xmlns="http://www.w3.org/2000/svg" viewBox="0 0 19.7 19.71">
  <defs>
    <style>
      .cls-1 {
        fill: #f2e7da;
        stroke-width: 0px;
      }
    </style>
  </defs>
  <g id="trash">
    <g>
      <circle class="cls-1" cx="9.85" cy="9.86" r="4.64"/>
      <path class="cls-1" d="M9.85,3.09c-.28,0-.52-.23-.52-.52V.52c0-.28.23-.52.52-.52s.52.23.52.52v2.06c0,.28-.23.52-.52.52Z"/>
      <path class="cls-1" d="M9.85,19.71c-.28,0-.52-.23-.52-.52v-2.06c0-.28.23-.52.52-.52s.52.23.52.52v2.06c0,.28-.23.52-.52.52Z"/>
      <path class="cls-1" d="M19.19,10.37h-2.06c-.28,0-.52-.23-.52-.52s.23-.52.52-.52h2.06c.28,0,.52.23.52.52s-.23.52-.52.52Z"/>
      <path class="cls-1" d="M15,5.23c-.13,0-.26-.05-.36-.15-.2-.2-.2-.53,0-.73l1.46-1.46c.2-.2.53-.2.73,0,.2.2.2.53,0,.73l-1.46,1.46c-.1.1-.23.15-.36.15Z"/>
      <path class="cls-1" d="M4.7,5.23c-.13,0-.26-.05-.36-.15l-1.46-1.46c-.2-.2-.2-.53,0-.73.2-.2.53-.2.73,0l1.46,1.46c.2.2.2.53,0,.73-.1.1-.23.15-.36.15Z"/>
      <path class="cls-1" d="M3.25,16.97c-.13,0-.26-.05-.36-.15-.2-.2-.2-.53,0-.73l1.46-1.46c.2-.2.53-.2.73,0,.2.2.2.53,0,.73l-1.46,1.46c-.1.1-.23.15-.36.15Z"/>
      <path class="cls-1" d="M16.45,16.97c-.13,0-.26-.05-.36-.15l-1.46-1.46c-.2-.2-.2-.53,0-.73.2-.2.53-.2.73,0l1.46,1.46c.2.2.2.53,0,.73-.1.1-.23.15-.36.15Z"/>
      <path class="cls-1" d="M2.58,10.37H.52c-.28,0-.52-.23-.52-.52s.23-.52.52-.52h2.06c.28,0,.52.23.52.52s-.23.52-.52.52Z"/>
    </g>
  </g>
</svg>