<?xml version="1.0" encoding="UTF-8"?>
<svg id="_レイヤー_2" data-name="レイヤー 2" xmlns="http://www.w3.org/2000/svg" xmlns:xlink="http://www.w3.org/1999/xlink" viewBox="0 0 480 340">
  <defs>
    <style>
      .cls-1 {
        fill: #e6a88a;
      }

      .cls-1, .cls-2, .cls-3, .cls-4, .cls-5 {
        stroke-width: 0px;
      }

      .cls-6 {
        opacity: .2;
      }

      .cls-2 {
        fill: url(#_名称未設定グラデーション_138);
      }

      .cls-3 {
        fill: url(#_名称未設定グラデーション_79);
        opacity: .3;
      }

      .cls-4 {
        fill: none;
      }

      .cls-5 {
        fill: #0f0d1a;
        opacity: .5;
      }

      .cls-7 {
        clip-path: url(#clippath);
      }
    </style>
    <linearGradient id="_名称未設定グラデーション_79" data-name="名称未設定グラデーション 79" x1="240" y1="340" x2="240" y2="0" gradientUnits="userSpaceOnUse">
      <stop offset="0" stop-color="#9873bf"/>
      <stop offset=".27" stop-color="#7869ba"/>
      <stop offset=".55" stop-color="#5d60b6"/>
      <stop offset=".81" stop-color="#4c5bb3"/>
      <stop offset="1" stop-color="#475ab3"/>
    </linearGradient>
    <clipPath id="clippath">
      <path class="cls-4" d="m240,0C107.45,0,0,72.2,0,161.27v178.73h480v-178.73C480,72.2,372.55,0,240,0Z"/>
    </clipPath>
    <linearGradient id="_名称未設定グラデーション_138" data-name="名称未設定グラデーション 138" x1="240" y1="340" x2="240" y2="0" gradientUnits="userSpaceOnUse">
      <stop offset="0" stop-color="#5c4573"/>
      <stop offset=".02" stop-color="#5a4472"/>
      <stop offset=".4" stop-color="#3f3a6b"/>
      <stop offset=".74" stop-color="#2e3567"/>
      <stop offset="1" stop-color="#293366"/>
    </linearGradient>
  </defs>
  <g id="object">
    <g>
      <path class="cls-3" d="m240,0C107.45,0,0,72.2,0,161.27v178.73h480v-178.73C480,72.2,372.55,0,240,0Z"/>
      <g class="cls-7">
        <path class="cls-2" d="m480,0H0v340h197.88c-6.32-59.66-10.06-164.17-10.06-243.79,0-4.57.01-9.12.04-13.65,14.91,6.02,32.84,9.53,52.13,9.53s37.22-3.51,52.14-9.53c.02,4.53.04,9.08.04,13.65,0,79.63-3.73,184.13-10.06,243.79h197.88V33.97h0V0Z"/>
        <g class="cls-6">
          <path class="cls-5" d="m314.35,37.06c-11.62,16.49-40.52,28.16-74.35,28.16s-62.73-11.68-74.35-28.16c6.48,20.6,37.3,36.22,74.35,36.22s67.87-15.61,74.35-36.22Z"/>
          <path class="cls-5" d="m240,46.17c34.31,0,63.81-11.27,76.83-27.41-16.82,12.01-44.96,19.89-76.83,19.89s-60-7.88-76.83-19.89c13.02,16.14,42.52,27.41,76.83,27.41Z"/>
          <path class="cls-5" d="m319.3,2.99c-21.3,7.99-49.01,12.81-79.3,12.81s-58.01-4.83-79.3-12.81c19.12,11.38,47.55,18.6,79.3,18.6s60.18-7.22,79.3-18.6Z"/>
          <path class="cls-5" d="m84.52,62.56c-30.44,0-56.46-10.51-66.91-25.35,5.83,18.54,33.57,32.59,66.91,32.59s61.08-14.05,66.91-32.59c-10.46,14.84-36.47,25.35-66.91,25.35Z"/>
          <path class="cls-5" d="m84.52,38.55c-28.68,0-54-7.09-69.14-17.9,11.72,14.53,38.27,24.67,69.14,24.67s57.43-10.14,69.14-24.67c-15.14,10.81-40.46,17.9-69.14,17.9Z"/>
          <path class="cls-5" d="m155.9,6.46c-19.17,7.19-44.1,11.53-71.37,11.53S32.31,13.64,13.15,6.46c17.21,10.24,42.8,16.74,71.37,16.74s54.16-6.49,71.37-16.74Z"/>
          <path class="cls-5" d="m395.48,62.56c-30.44,0-56.46-10.51-66.91-25.35,5.83,18.54,33.57,32.59,66.91,32.59s61.08-14.05,66.91-32.59c-10.46,14.84-36.47,25.35-66.91,25.35Z"/>
          <path class="cls-5" d="m395.48,38.55c-28.68,0-54-7.09-69.14-17.9,11.72,14.53,38.27,24.67,69.14,24.67s57.43-10.14,69.14-24.67c-15.14,10.81-40.46,17.9-69.14,17.9Z"/>
          <path class="cls-5" d="m466.85,6.46c-19.17,7.19-44.1,11.53-71.37,11.53s-52.21-4.35-71.37-11.53c17.21,10.24,42.8,16.74,71.37,16.74s54.16-6.49,71.37-16.74Z"/>
          <path class="cls-5" d="m480,33.97h-.06c.02.48.06.96.06,1.45,0,13.35-8.51,25.5-22.43,34.59h0c-1.52.99-3.1,1.95-4.75,2.86h0c-8.15,4.55-17.78,8.14-28.41,10.48h0s-.03,0-.05,0c-.92.2-1.85.39-2.78.57-.72.14-1.44.27-2.17.4h0c-7.59,1.35-15.62,2.09-23.93,2.09-1.51,0-3.01-.03-4.5-.08h0c-1.7-.05-3.38-.14-5.05-.25h0c-10.18-.69-19.8-2.47-28.56-5.14h0c-1.69-.52-3.35-1.07-4.97-1.65h0c-11.87-4.25-21.86-10.2-29.06-17.3-.07-.06-.14-.13-.2-.19-.63.72-1.29,1.43-1.97,2.13-.09.09-.17.18-.26.27-.69.7-1.39,1.39-2.12,2.07h0c-6.96,6.47-16.04,12.01-26.64,16.29.02,3.73.03,7.49.03,11.25,10.64-4.3,19.75-9.88,26.71-16.37.05,6.22.08,12.47.08,18.77,0,79.63-3.74,184.13-10.06,243.79h8.91c5.31-59.9,7.77-164.74,6.36-244.69-.13-7.3-.3-14.53-.49-21.72,7.18,6.96,17.06,12.8,28.76,16.99,0,1.87.01,3.75.01,5.63,0,79.63-3.74,184.13-10.06,243.79h8.91c5.31-59.9,7.77-164.74,6.36-244.69-.02-1.01-.04-2.02-.06-3.03,8.7,2.64,18.25,4.39,28.34,5.07-.04,79.19-3.77,183.27-10.06,242.65h8.91c5.26-59.32,7.72-163.32,6.4-242.39,1.42.04,2.85.07,4.28.07,8.33,0,16.36-.74,23.96-2.09,0,.21,0,.41,0,.62,0,79.63-3.74,184.13-10.06,243.79h8.91c5.31-59.9,7.77-164.74,6.36-244.69,0-.25-.01-.5-.01-.74,10.58-2.35,20.16-5.94,28.27-10.47.02,4.02.03,8.06.03,12.12,0,79.63-3.74,184.13-10.06,243.79h8.91c5.31-59.9,7.77-164.74,6.36-244.69-.08-4.76-.18-9.5-.3-14.21,13.76-9.07,22.15-21.15,22.15-34.42,0-.49-.04-.97-.06-1.45h.06v-11.26h0Z"/>
          <path class="cls-5" d="m0,33.97v1.44c0-.48.04-.96.06-1.44H0Z"/>
          <path class="cls-5" d="m161.22,66.26c-.73-.68-1.43-1.36-2.11-2.06-.09-.1-.19-.19-.28-.29-.68-.7-1.33-1.4-1.96-2.12-.07.07-.15.15-.23.22h0c-7.2,7.09-17.18,13.03-29.03,17.28h0c-1.62.58-3.28,1.13-4.97,1.65h0c-8.75,2.67-18.38,4.45-28.56,5.14h0c-1.67.11-3.36.2-5.05.25h0c-1.49.05-2.99.08-4.5.08-8.32,0-16.34-.74-23.93-2.09-.72-.13-1.44-.26-2.16-.4-.95-.19-1.9-.37-2.83-.58h0c-10.63-2.34-20.26-5.93-28.41-10.48h0c-1.64-.92-3.23-1.87-4.74-2.86h0C8.52,60.92,0,48.78,0,35.43v9.8h.06c-.02.48-.06.96-.06,1.44v.02c0,13.26,8.4,25.34,22.15,34.4-.11,4.72-.21,9.45-.3,14.21-1.41,79.95,1.05,184.8,6.36,244.69h8.91c-6.32-59.66-10.06-164.16-10.06-243.79,0-4.06.01-8.09.03-12.12,8.11,4.53,17.69,8.13,28.27,10.47,0,.25-.01.5-.02.74-1.41,79.95,1.05,184.8,6.36,244.69h8.91c-6.32-59.66-10.06-164.16-10.06-243.79,0-.21,0-.41,0-.62,7.6,1.35,15.63,2.09,23.96,2.09,1.44,0,2.86-.03,4.28-.07-1.33,79.07,1.14,183.07,6.4,242.39h8.91c-6.29-59.38-10.02-163.46-10.06-242.65,10.09-.68,19.65-2.44,28.34-5.07-.02,1.01-.04,2.01-.06,3.03-1.41,79.95,1.05,184.8,6.36,244.69h8.91c-6.32-59.66-10.06-164.16-10.06-243.79,0-1.88,0-3.76.01-5.63,11.7-4.19,21.58-10.03,28.76-16.99-.19,7.19-.36,14.42-.49,21.72-1.41,79.95,1.05,184.8,6.36,244.69h8.91c-6.32-59.66-10.06-164.16-10.06-243.79,0-6.31.03-12.55.08-18.77,6.97,6.49,16.07,12.07,26.71,16.37,0-3.76.01-7.51.03-11.25-10.6-4.28-19.68-9.83-26.64-16.28h0Z"/>
        </g>
      </g>
      <path class="cls-1" d="m240,2c63.71,0,123.59,16.65,168.59,46.89,21.81,14.65,38.92,31.7,50.86,50.67,12.31,19.56,18.55,40.32,18.55,61.71v176.73H2v-176.73C2,73.45,108.77,2,240,2m0-2C107.45,0,0,72.2,0,161.27v178.73h480v-178.73C480,72.2,372.55,0,240,0h0Z"/>
    </g>
  </g>
</svg>