<?xml version="1.0" encoding="UTF-8"?>
<svg id="_レイヤー_2" data-name="レイヤー 2" xmlns="http://www.w3.org/2000/svg" xmlns:xlink="http://www.w3.org/1999/xlink" viewBox="0 0 480 480">
  <defs>
    <style>
      .cls-1 {
        fill: #e6a88a;
      }

      .cls-1, .cls-2, .cls-3, .cls-4, .cls-5, .cls-6 {
        stroke-width: 0px;
      }

      .cls-7, .cls-3 {
        opacity: .2;
      }

      .cls-2 {
        fill: url(#_名称未設定グラデーション_138);
      }

      .cls-3 {
        fill: rgba(187, 153, 255, .8);
      }

      .cls-4 {
        fill: none;
      }

      .cls-5 {
        fill: #0f0d1a;
        opacity: .5;
      }

      .cls-8 {
        clip-path: url(#clippath);
      }

      .cls-6 {
        fill: url(#_名称未設定グラデーション_138-2);
      }
    </style>
    <linearGradient id="_名称未設定グラデーション_138" data-name="名称未設定グラデーション 138" x1="240" y1="479" x2="240" y2="1" gradientUnits="userSpaceOnUse">
      <stop offset="0" stop-color="#5c4573"/>
      <stop offset=".02" stop-color="#5a4472"/>
      <stop offset=".4" stop-color="#3f3a6b"/>
      <stop offset=".74" stop-color="#2e3567"/>
      <stop offset="1" stop-color="#293366"/>
    </linearGradient>
    <clipPath id="clippath">
      <path class="cls-4" d="m240,1C108,1,1,73.99,1,164.04v314.96h478.01V164.04C479,73.99,372,1,240,1Z"/>
    </clipPath>
    <linearGradient id="_名称未設定グラデーション_138-2" data-name="名称未設定グラデーション 138" y1="479" y2="1" xlink:href="#_名称未設定グラデーション_138"/>
  </defs>
  <g id="object">
    <g>
      <path class="cls-2" d="m240,1C108,1,1,73.99,1,164.04v314.96h478.01V164.04C479,73.99,372,1,240,1Z"/>
      <path class="cls-3" d="m240,1C108,1,1,73.99,1,164.04v314.96h478.01V164.04C479,73.99,372,1,240,1Z"/>
      <g class="cls-8">
        <g>
          <path class="cls-6" d="m479,1H1v478h58.86c-6.3-60.32-10.02-300.24-10.02-380.74,0-4.91.02-9.79.05-14.65,10.73,3.04,22.68,4.75,35.29,4.75,30.55,0,57.3-9.97,72.05-24.89,15.66,18.21,46.85,30.62,82.78,30.62s67.12-12.41,82.79-30.62c14.75,14.92,41.5,24.89,72.05,24.89,12.6,0,24.55-1.71,35.29-4.75.03,4.86.05,9.74.05,14.65,0,80.5-3.72,320.42-10.02,380.74h58.86V35.34h0V1Z"/>
          <g class="cls-7">
            <path class="cls-5" d="m240,63.81c-33.68,0-62.47-11.81-74.04-28.47,6.45,20.83,37.14,36.61,74.04,36.61s67.59-15.78,74.04-36.61c-11.57,16.67-40.36,28.47-74.04,28.47Z"/>
            <path class="cls-5" d="m163.49,17.88c12.97,16.32,42.34,27.71,76.51,27.71s63.54-11.39,76.51-27.71c-16.75,12.15-44.77,20.11-76.51,20.11s-59.75-7.96-76.51-20.11Z"/>
            <path class="cls-5" d="m161.02,1.94c19.04,11.51,47.36,18.8,78.98,18.8s59.93-7.3,78.98-18.8c-21.21,8.07-48.8,12.96-78.98,12.96s-57.77-4.88-78.98-12.96Z"/>
            <path class="cls-5" d="m85.17,61.12c-30.31,0-56.22-10.63-66.63-25.63,5.81,18.75,33.43,32.95,66.63,32.95s60.83-14.2,66.64-32.95c-10.41,15-36.32,25.63-66.64,25.63Z"/>
            <path class="cls-5" d="m16.31,19.79c11.67,14.69,38.11,24.94,68.86,24.94s57.19-10.25,68.86-24.94c-15.08,10.93-40.29,18.1-68.86,18.1S31.39,30.72,16.31,19.79Z"/>
            <path class="cls-5" d="m14.09,5.44c17.14,10.36,42.62,16.92,71.08,16.92s53.94-6.57,71.08-16.92c-19.09,7.27-43.92,11.66-71.08,11.66S33.18,12.71,14.09,5.44Z"/>
            <path class="cls-5" d="m461.47,35.5c-10.41,15-36.32,25.63-66.64,25.63s-56.22-10.63-66.63-25.63c5.81,18.75,33.43,32.95,66.63,32.95s60.83-14.2,66.64-32.95Z"/>
            <path class="cls-5" d="m394.83,44.73c30.75,0,57.19-10.25,68.86-24.94-15.08,10.93-40.29,18.1-68.86,18.1s-53.78-7.17-68.86-18.1c11.67,14.69,38.11,24.94,68.86,24.94Z"/>
            <path class="cls-5" d="m465.91,5.44c-19.09,7.27-43.92,11.66-71.08,11.66s-51.99-4.39-71.08-11.66c17.14,10.36,42.62,16.92,71.08,16.92s53.94-6.57,71.08-16.92Z"/>
            <path class="cls-5" d="m479,35.5h-.06c.02.49.06.98.06,1.47,0,8.08-3.05,15.72-8.46,22.53,0-.05,0-.09,0-.14-1.34,1.69-2.85,3.32-4.47,4.91,0,.05,0,.11,0,.16-4.39,4.26-9.76,8.1-15.94,11.4,0-.05,0-.11,0-.16-1.56.83-3.15,1.64-4.8,2.4,0,.05,0,.1,0,.15-4.71,2.17-9.8,4.04-15.21,5.57.02,3.78.03,7.57.04,11.38,5.41-1.54,10.52-3.41,15.24-5.59.01,2.89.02,5.79.02,8.7,0,80.51-3.72,320.42-10.02,380.74h8.87c5.29-60.56,7.74-300.82,6.34-381.65-.06-3.44-.13-6.87-.2-10.29,6.11-3.29,11.44-7.12,15.78-11.37.07,7.47.11,14.98.11,22.57,0,80.51-3.72,320.42-10.02,380.74h8.87c5.29-60.56,7.74-300.82,6.33-381.65-.16-9.05-.36-18.01-.61-26.88,5.21-6.7,8.13-14.2,8.13-22.12v-1.47h0v-11.39h0Z"/>
            <path class="cls-5" d="m1,35.5v1.46c0-.49.04-.97.06-1.46h-.06Z"/>
            <path class="cls-5" d="m34.67,78.06c-1.65-.76-3.24-1.57-4.8-2.4,0,.05,0,.11,0,.16-6.17-3.3-11.55-7.14-15.94-11.4,0-.05,0-.11,0-.16-1.63-1.58-3.13-3.21-4.47-4.91,0,.05,0,.09,0,.14C4.05,52.69,1,45.05,1,36.98v9.91h.06c-.02.49-.06.97-.06,1.46v.02c0,7.92,2.93,15.41,8.13,22.11-.25,8.88-.45,17.84-.61,26.88-1.41,80.83,1.04,321.09,6.33,381.65h8.87c-6.3-60.32-10.02-300.23-10.02-380.74,0-7.59.05-15.1.11-22.57,4.35,4.24,9.67,8.07,15.79,11.37-.07,3.42-.14,6.85-.2,10.29-1.41,80.83,1.04,321.09,6.33,381.65h8.87c-6.3-60.32-10.02-300.23-10.02-380.74,0-2.91,0-5.81.02-8.7,4.72,2.17,9.82,4.05,15.23,5.59,0-3.81.02-7.6.04-11.38-5.4-1.53-10.5-3.4-15.21-5.57,0-.05,0-.1,0-.15Z"/>
          </g>
        </g>
      </g>
      <path class="cls-1" d="m480,480H0V164.04c0-43.89,25.02-85.13,70.44-116.11C115.74,17.02,175.96,0,240,0s124.26,17.02,169.56,47.93c45.42,30.99,70.44,72.22,70.44,116.11v315.96Zm-478.01-2h476.02V164.04C478.01,74.69,371.24,2,240,2S1.99,74.69,1.99,164.04v313.96Z"/>
    </g>
  </g>
</svg>