<?xml version="1.0" encoding="UTF-8"?>
<svg id="_レイヤー_2" data-name="レイヤー 2" xmlns="http://www.w3.org/2000/svg" viewBox="0 0 40 71.66">
  <defs>
    <style>
      .cls-1 {
        fill: #999;
      }

      .cls-1, .cls-2, .cls-3 {
        stroke-width: 0px;
      }

      .cls-2 {
        fill: #ad8c4e;
      }

      .cls-3 {
        fill: #cfac68;
      }
    </style>
  </defs>
  <g id="text">
    <g>
      <g>
        <rect class="cls-1" x="19.62" width=".75" height="35"/>
        <circle class="cls-1" cx="20" cy="24.17" r="2"/>
        <circle class="cls-1" cx="20" cy="12.45" r="2.5"/>
      </g>
      <g>
        <polygon class="cls-3" points="20 33.62 26.18 46.14 40 48.15 30 57.9 32.36 71.66 20 65.16 7.64 71.66 10 57.9 0 48.15 13.82 46.14 20 33.62"/>
        <g>
          <polygon class="cls-2" points="20 33.62 20 55.5 26.18 46.14 20 33.62"/>
          <polygon class="cls-2" points="40 48.15 20 55.5 30 57.9 40 48.15"/>
          <polygon class="cls-2" points="10 57.9 20 55.5 0 48.15 10 57.9"/>
          <polygon class="cls-2" points="7.64 71.66 20 65.16 32.36 71.66 20 55.5 7.64 71.66"/>
        </g>
      </g>
    </g>
  </g>
</svg>